SplineFontDB: 3.0
FontName: Amatic-Bold
FullName: Amatic Bold
FamilyName: Amatic
Weight: Bold
Copyright: vernon adams 2011
Version: 2.000
ItalicAngle: 0
UnderlinePosition: -204
UnderlineWidth: 102
Ascent: 1638
Descent: 410
sfntRevision: 0x00020000
LayerCount: 2
Layer: 0 1 "Back"  1
Layer: 1 1 "Fore"  0
XUID: [1021 14 500265001 2178650]
FSType: 0
OS2Version: 1
OS2_WeightWidthSlopeOnly: 0
OS2_UseTypoMetrics: 1
CreationTime: 1336026831
ModificationTime: 1336046365
PfmFamily: 17
TTFWeight: 700
TTFWidth: 3
LineGap: 0
VLineGap: 0
Panose: 2 0 8 3 0 0 0 0 0 0
OS2TypoAscent: 2048
OS2TypoAOffset: 0
OS2TypoDescent: -160
OS2TypoDOffset: 0
OS2TypoLinegap: 0
OS2WinAscent: 2048
OS2WinAOffset: 0
OS2WinDescent: 160
OS2WinDOffset: 0
HheadAscent: 2048
HheadAOffset: 0
HheadDescent: -160
HheadDOffset: 0
OS2SubXSize: 1331
OS2SubYSize: 1229
OS2SubXOff: 0
OS2SubYOff: 154
OS2SupXSize: 1331
OS2SupYSize: 1229
OS2SupXOff: 0
OS2SupYOff: 717
OS2StrikeYSize: 102
OS2StrikeYPos: 614
OS2Vendor: 'newt'
OS2CodePages: 00000093.00000000
OS2UnicodeRanges: 8000006f.0000004b.00000000.00000000
Lookup: 258 0 0 "'kern' Horizontal Kerning in Latin lookup 0"  {"'kern' Horizontal Kerning in Latin lookup 0 per glyph data 0"  "'kern' Horizontal Kerning in Latin lookup 0 kerning class 1"  } ['kern' ('DFLT' <'dflt' > 'latn' <'dflt' > ) ]
MarkAttachClasses: 1
DEI: 91125
KernClass2: 32 23 "'kern' Horizontal Kerning in Latin lookup 0 kerning class 1" 
 73 A Agrave Aacute Acircumflex Atilde Adieresis Aring Amacron Abreve Aogonek
 1 B
 8 D Dcaron
 1 F
 13 J Jcircumflex
 14 K Kcommaaccent
 28 L Lacute Lcommaaccent Lcaron
 35 N Ntilde Nacute Ncommaaccent Ncaron
 73 O Ograve Oacute Ocircumflex Otilde Odieresis Omacron Obreve Ohungarumlaut
 1 P
 24 R Racute Rcaron Rcedilla
 29 T Tcommaaccent Tcaron uni021A
 80 U Ugrave Uacute Ucircumflex Udieresis Umacron Ubreve Uring Uhungarumlaut Uogonek
 1 V
 1 W
 18 Y Yacute Ydieresis
 73 a agrave aacute acircumflex atilde adieresis aring amacron abreve aogonek
 1 b
 8 d dcaron
 1 f

StartChar: exclam
Encoding: 33 33 4
Width: 286
GlyphClass: 2
Flags: W
LayerCount: 2
Fore
SplineSet
210 26 m 0,0,1
 210 -46 210 -46 109 -46 c 0,2,3
 86 -46 86 -46 63.5 -24.5 c 128,-1,4
 41 -3 41 -3 41 32.5 c 128,-1,5
 41 68 41 68 66 96.5 c 128,-1,6
 91 125 91 125 128 125 c 128,-1,7
 165 125 165 125 187.5 96 c 128,-1,8
 210 67 210 67 210 26 c 0,0,1
182 543 m 1,9,-1
 184 446 l 1,10,11
 184 306 184 306 146 306 c 0,12,13
 125 306 125 306 107.5 356 c 128,-1,14
 90 406 90 406 90 482 c 1,15,-1
 98 821 l 1,16,-1
 88 1493 l 2,17,18
 88 1525 88 1525 115 1548.5 c 128,-1,19
 142 1572 142 1572 169 1572 c 128,-1,20
 196 1572 196 1572 210.5 1557.5 c 128,-1,21
 225 1543 225 1543 225 1522 c 0,22,23
 225 1358 225 1358 203.5 1032 c 128,-1,24
 182 706 182 706 182 543 c 1,9,-1
EndSplineSet
EndChar

StartChar: quotedbl
Encoding: 34 34 5
Width: 359
GlyphClass: 2
Flags: W
LayerCount: 2
Fore
SplineSet
175 1193 m 2,0,1
 166 1193 166 1193 156 1321.5 c 128,-1,2
 146 1450 146 1450 146 1531 c 0,3,4
 146 1551 146 1551 165.5 1564.5 c 128,-1,5
 185 1578 185 1578 208.5 1578 c 128,-1,6
 232 1578 232 1578 241 1531 c 1,7,8
 238 1433 238 1433 221 1313 c 128,-1,9
 204 1193 204 1193 182 1193 c 2,10,-1
 175 1193 l 2,0,1
50 1525 m 1,11,-1
 51 1511 l 1,12,13
 51 1422 51 1422 27.5 1307.5 c 128,-1,14
 4 1193 4 1193 -24 1193 c 2,15,-1
 -31 1193 l 2,16,17
 -40 1193 -40 1193 -40 1531 c 0,18,19
 -40 1551 -40 1551 -27 1564.5 c 128,-1,20
 -14 1578 -14 1578 1 1578 c 0,21,22
 43 1578 43 1578 50 1525 c 1,11,-1
EndSplineSet
EndChar

StartChar: numbersign
Encoding: 35 35 6
Width: 748
GlyphClass: 2
Flags: W
LayerCount: 2
Fore
SplineSet
570 698 m 1,0,-1
 591 699 l 1,1,2
 676 699 676 699 676 637 c 1,3,-1
 677 637 l 1,4,5
 676 586 676 586 599 586 c 0,6,7
 596 586 596 586 593 586 c 2,8,-1
 563 587 l 1,9,10
 558 516 558 516 542 390 c 0,11,12
 508 111 508 111 507 -39 c 1,13,-1
 472 -81 l 1,14,15
 401 -81 401 -81 401 -37 c 0,16,17
 401 73 401 73 432 279 c 128,-1,18
 463 485 463 485 466 581 c 1,19,20
 419 585 419 585 324 585 c 1,21,-1
 274 582 l 1,22,23
 271 562 271 562 266 478.5 c 128,-1,24
 261 395 261 395 254 307 c 0,25,26
 247 220 247 220 236 128 c 0,27,28
 211 -79 211 -79 163 -80 c 0,29,30
 142 -80 142 -80 123.5 -68 c 128,-1,31
 105 -56 105 -56 105 -36 c 0,32,33
 105 210 105 210 176 576 c 1,34,35
 131 571 131 571 116 571 c 0,36,37
 31 571 31 571 31 637 c 0,38,39
 31 683 31 683 127 683 c 1,40,-1
 189 681 l 1,41,42
 208 790 208 790 220 948 c 1,43,44
 181 945 181 945 169 945 c 0,45,46
 72 945 72 945 72 1004 c 2,47,-1
 72 1014 l 1,48,-1
 102 1047 l 1,49,-1
 165 1046 l 2,50,51
 196 1046 196 1046 228 1049 c 1,52,53
 232 1084 232 1084 246 1174 c 0,54,55
 273 1349 273 1349 273 1457 c 1,56,-1
 272 1494 l 2,57,58
 272 1527 272 1527 282.5 1547 c 128,-1,59
 293 1567 293 1567 325 1567 c 2,60,-1
 340 1567 l 1,61,-1
 363 1520 l 1,62,63
 363 1440 363 1440 345 1286.5 c 128,-1,64
 327 1133 327 1133 326 1058 c 1,65,66
 344 1054 344 1054 408.5 1054 c 128,-1,67
 473 1054 473 1054 505 1062 c 1,68,69
 530 1187 530 1187 550 1334 c 128,-1,70
 570 1481 570 1481 579 1535 c 1,71,72
 603 1566 603 1566 625.5 1566 c 128,-1,73
 648 1566 648 1566 664 1553 c 128,-1,74
 680 1540 680 1540 680 1525 c 0,75,76
 680 1445 680 1445 644.5 1294 c 128,-1,77
 609 1143 609 1143 607 1067 c 1,78,-1
 673 1067 l 1,79,-1
 716 1020 l 1,80,81
 709 992 709 992 697.5 975.5 c 128,-1,82
 686 959 686 959 662 959 c 1,83,-1
 595 962 l 1,84,85
 572 856 572 856 570 698 c 1,0,-1
282 686 m 1,86,87
 290 685 290 685 351 685 c 128,-1,88
 412 685 412 685 463 691 c 1,89,90
 495 875 495 875 496 952 c 1,91,92
 461 960 461 960 404.5 960 c 128,-1,93
 348 960 348 960 314 954 c 1,94,95
 288 859 288 859 282 686 c 1,86,87
EndSplineSet
EndChar

StartChar: dollar
Encoding: 36 36 7
Width: 519
GlyphClass: 2
Flags: W
LayerCount: 2
Fore
SplineSet
54 24 m 0,0,1
 54 79 54 79 100 79 c 0,2,3
 124 79 124 79 161 63.5 c 128,-1,4
 198 48 198 48 215 48 c 128,-1,5
 232 48 232 48 247 52 c 1,6,7
 242 214 242 214 225 774 c 1,8,9
 220 781 220 781 192 819.5 c 128,-1,10
 164 858 164 858 145.5 884 c 128,-1,11
 127 910 127 910 91.5 966.5 c 0,12,13
 56 1024 56 1024 41 1060 c 0,14,15
 -1 1162 -1 1162 -1 1245.5 c 128,-1,16
 -1 1329 -1 1329 52 1410 c 128,-1,17
 105 1491 105 1491 202 1535 c 1,18,19
 202 1577 202 1577 200 1603 c 128,-1,20
 198 1629 198 1629 208 1651 c 0,21,22
 214 1663 214 1663 225 1663 c 0,23,24
 234 1663 234 1663 246 1655 c 0,25,26
 272 1637 272 1637 272 1586 c 2,27,-1
 272 1559 l 1,28,29
 335 1574 335 1574 384.5 1574 c 128,-1,30
 434 1574 434 1574 469 1553.5 c 128,-1,31
 504 1533 504 1533 518 1500 c 1,32,-1
 483 1456 l 1,33,34
 462 1456 462 1456 418 1462.5 c 128,-1,35
 374 1469 374 1469 347 1471 c 0,36,37
 342 1471 342 1471 337 1471 c 0,38,39
 312 1471 312 1471 276 1464 c 1,40,-1
 305 822 l 1,41,42
 464 614 464 614 497 478 c 0,43,44
 513 412 513 412 513 325 c 128,-1,45
 513 238 513 238 471.5 138 c 128,-1,46
 430 38 430 38 349 -10 c 1,47,-1
 349 -155 l 1,48,49
 349 -162 349 -162 349 -168 c 0,50,51
 349 -258 349 -258 290 -258 c 1,52,53
 254 -258 254 -258 254 -195 c 2,54,-1
 254 -179 l 1,55,-1
 250 -43 l 1,56,57
 238 -45 238 -45 212 -45 c 128,-1,58
 186 -45 186 -45 153 -40 c 128,-1,59
 120 -35 120 -35 87 -18 c 128,-1,60
 54 -1 54 -1 54 24 c 0,0,1
220 937 m 1,61,62
 216 1045 216 1045 205 1433 c 1,63,64
 152 1400 152 1400 125 1350.5 c 0,65,66
 98 1302 98 1302 98 1238 c 0,67,68
 98 1114 98 1114 220 937 c 1,61,62
337 113 m 1,69,70
 376 161 376 161 397.5 229 c 128,-1,71
 419 297 419 297 419 345 c 0,72,73
 419 480 419 480 313 647 c 1,74,-1
 337 113 l 1,69,70
EndSplineSet
EndChar

StartChar: percent
Encoding: 37 37 8
Width: 1077
GlyphClass: 2
Flags: W
LayerCount: 2
Fore
SplineSet
940 467 m 2,0,1
 940 538 940 538 926 605 c 0,2,3
 882 711 882 711 832 733 c 1,4,5
 773 732 773 732 755 570 c 0,6,7
 741 447 741 447 741 384.5 c 128,-1,8
 741 322 741 322 765.5 219 c 128,-1,9
 790 116 790 116 816 116 c 0,10,11
 940 116 940 116 940 386 c 2,12,-1
 940 467 l 2,0,1
222 1449 m 0,13,14
 197 1449 197 1449 171 1332 c 128,-1,15
 145 1215 145 1215 145 1179 c 128,-1,16
 145 1143 145 1143 146 1115.5 c 128,-1,17
 147 1088 147 1088 150 1043 c 128,-1,18
 153 998 153 998 159.5 958 c 128,-1,19
 166 918 166 918 176 881 c 0,20,21
 208 813 208 813 238 800 c 1,22,23
 350 800 350 800 350 1092 c 0,24,25
 350 1449 350 1449 222 1449 c 0,13,14
657 1438 m 1,26,-1
 658 1437 l 1,27,28
 659 1469 659 1469 673.5 1502.5 c 128,-1,29
 688 1536 688 1536 712.5 1536 c 128,-1,30
 737 1536 737 1536 753 1522.5 c 128,-1,31
 769 1509 769 1509 769 1487 c 0,32,33
 770 1344 770 1344 588 662 c 0,34,35
 504 345 504 345 491 274 c 128,-1,36
 478 203 478 203 469.5 167 c 0,37,38
 460 131 460 131 446 87 c 0,39,40
 415 -6 415 -6 367 -8 c 1,41,42
 328 14 328 14 328 64 c 128,-1,43
 328 114 328 114 353 245.5 c 128,-1,44
 378 377 378 377 425.5 566 c 0,45,46
 474 755 474 755 508 887 c 0,47,48
 608 1270 608 1270 657 1438 c 1,26,-1
927 38.5 m 0,49,50
 879 2 879 2 825.5 2 c 128,-1,51
 772 2 772 2 741.5 31 c 128,-1,52
 711 60 711 60 693 102.5 c 0,53,54
 675 146 675 146 663 198 c 0,55,56
 643 286 643 286 643 346 c 128,-1,57
 643 406 643 406 643.5 429.5 c 128,-1,58
 644 453 644 453 646 499 c 128,-1,59
 648 545 648 545 653.5 578 c 128,-1,60
 659 611 659 611 667.5 653.5 c 128,-1,61
 676 696 676 696 691 726 c 128,-1,62
 706 756 706 756 726 783 c 0,63,64
 766 838 766 838 838 838 c 0,65,66
 925 838 925 838 970 774 c 0,67,68
 1015 709 1015 709 1025 648 c 0,69,70
 1040 556 1040 556 1040 478 c 2,71,-1
 1040 378 l 2,72,73
 1040 246 1040 246 998 136 c 0,74,75
 975 76 975 76 927 38.5 c 0,49,50
444 1140 m 1,76,-1
 443 1141 l 1,77,78
 428 1100 428 1100 426 984.5 c 0,79,80
 424 870 424 870 412 816 c 0,81,82
 386 700 386 700 241 700 c 1,83,84
 168 700 168 700 128 754 c 0,85,86
 83 815 83 815 72.5 869 c 128,-1,87
 62 923 62 923 56.5 955 c 128,-1,88
 51 987 51 987 49 1033 c 0,89,90
 46 1102 46 1102 46 1154 c 128,-1,91
 46 1206 46 1206 54 1264.5 c 128,-1,92
 62 1323 62 1323 79 1391.5 c 128,-1,93
 96 1460 96 1460 132 1506.5 c 128,-1,94
 168 1553 168 1553 215 1553 c 0,95,96
 444 1553 444 1553 444 1147 c 2,97,-1
 444 1140 l 1,76,-1
EndSplineSet
EndChar

StartChar: ampersand
Encoding: 38 38 9
Width: 903
GlyphClass: 2
Flags: W
LayerCount: 2
Fore
SplineSet
309 1291 m 1,0,1
 312 1016 l 1,2,-1
 312 993 l 1,3,4
 364 1058 364 1058 413 1148 c 128,-1,5
 462 1238 462 1238 462 1283.5 c 128,-1,6
 462 1329 462 1329 429 1389.5 c 128,-1,7
 396 1450 396 1450 363.5 1450 c 128,-1,8
 331 1450 331 1450 309 1400 c 1,9,-1
 309 1291 l 1,0,1
571 696 m 1,10,11
 727 696 727 696 803 722 c 1,12,13
 861 710 861 710 861 668 c 0,14,15
 861 612 861 612 754 612 c 1,16,-1
 748 613 l 1,17,-1
 697 613 l 1,18,19
 697 286 697 286 613 175 c 1,20,21
 674 112 674 112 743 112 c 1,22,-1
 826 118 l 1,23,-1
 864 87 l 1,24,25
 864 46 864 46 835.5 32.5 c 128,-1,26
 807 19 807 19 760 19 c 0,27,28
 668 19 668 19 562 96 c 1,29,30
 447 18 447 18 349.5 18 c 128,-1,31
 252 18 252 18 185 70.5 c 128,-1,32
 118 123 118 123 83 200 c 128,-1,33
 48 277 48 277 48 341.5 c 128,-1,34
 48 406 48 406 53.5 455.5 c 128,-1,35
 59 505 59 505 64 540 c 128,-1,36
 69 575 69 575 86.5 625.5 c 128,-1,37
 104 676 104 676 111.5 698.5 c 0,38,39
 120 721 120 721 148 780 c 0,40,41
 184 854 184 854 230 945 c 1,42,-1
 216 1226 l 1,43,-1
 216 1396 l 2,44,45
 216 1471 216 1471 252 1507.5 c 128,-1,46
 288 1544 288 1544 354 1544 c 128,-1,47
 420 1544 420 1544 487 1489 c 128,-1,48
 554 1434 554 1434 554 1360 c 0,49,50
 554 1237 554 1237 512.5 1138.5 c 128,-1,51
 471 1040 471 1040 388 944 c 1,52,53
 384 936 384 936 369 915 c 0,54,55
 336 869 336 869 336 846 c 0,56,57
 336 757 336 757 411.5 526 c 128,-1,58
 487 295 487 295 541 238 c 1,59,60
 605 384 605 384 605 600 c 2,61,-1
 605 609 l 1,62,63
 590 609 590 609 586 615 c 128,-1,64
 582 621 582 621 580.5 623 c 128,-1,65
 579 625 579 625 575.5 633.5 c 128,-1,66
 572 642 572 642 571 644 c 1,67,-1
 571 696 l 1,10,11
251 789 m 1,68,69
 143 619 143 619 143 389 c 0,70,71
 143 285 143 285 189 199 c 0,72,73
 240 103 240 103 349 103 c 0,74,75
 382 103 382 103 430 120 c 128,-1,76
 478 137 478 137 499 158 c 1,77,78
 310 431 310 431 251 789 c 1,68,69
EndSplineSet
EndChar

StartChar: quotesingle
Encoding: 39 39 10
Width: 359
GlyphClass: 2
Flags: W
LayerCount: 2
Fore
SplineSet
256 1525 m 1,0,-1
 257 1511 l 1,1,2
 257 1422 257 1422 233.5 1307.5 c 128,-1,3
 210 1193 210 1193 182 1193 c 2,4,-1
 175 1193 l 2,5,6
 166 1193 166 1193 156 1321.5 c 128,-1,7
 146 1450 146 1450 146 1531 c 0,8,9
 146 1551 146 1551 165.5 1564.5 c 128,-1,10
 185 1578 185 1578 207 1578 c 0,11,12
 244 1578 244 1578 261 1531 c 1,13,-1
 256 1525 l 1,0,-1
EndSplineSet
EndChar

StartChar: parenleft
Encoding: 40 40 11
Width: 418
GlyphClass: 2
Flags: W
LayerCount: 2
Fore
SplineSet
396 -319 m 1,0,1
 394 -318 l 1,2,3
 376 -361 376 -361 338 -361 c 0,4,5
 284 -361 284 -361 235 -249 c 128,-1,6
 186 -137 186 -137 154 24.5 c 128,-1,7
 122 186 122 186 98 366 c 0,8,9
 52 711 52 711 52 822.5 c 128,-1,10
 52 934 52 934 67 1053 c 128,-1,11
 82 1172 82 1172 108.5 1309.5 c 128,-1,12
 135 1447 135 1447 179.5 1549 c 128,-1,13
 224 1651 224 1651 273 1651 c 2,14,-1
 282 1651 l 1,15,-1
 318 1621 l 1,16,17
 318 1567 318 1567 285 1500 c 128,-1,18
 252 1433 252 1433 245 1416 c 0,19,20
 154 1192 154 1192 154 899.5 c 0,21,22
 154 608 154 608 190 330 c 0,23,24
 230 10 230 10 338 -188 c 0,25,26
 382 -270 382 -270 396 -319 c 1,0,1
EndSplineSet
EndChar

StartChar: parenright
Encoding: 41 41 12
Width: 434
GlyphClass: 2
Flags: W
LayerCount: 2
Fore
SplineSet
388 817 m 1,0,1
 388 815 l 2,2,3
 388 650 388 650 298 196 c 0,4,5
 258 -2 258 -2 198 -152.5 c 128,-1,6
 138 -303 138 -303 79 -303 c 0,7,8
 58 -303 58 -303 41.5 -289.5 c 128,-1,9
 25 -276 25 -276 25 -257 c 128,-1,10
 25 -238 25 -238 41.5 -203 c 128,-1,11
 58 -168 58 -168 82 -126 c 0,12,13
 176 40 176 40 230.5 329.5 c 128,-1,14
 285 619 285 619 285 794 c 0,15,16
 285 1252 285 1252 165 1475 c 0,17,18
 120 1559 120 1559 120 1610 c 2,19,-1
 120 1621 l 1,20,-1
 157 1650 l 1,21,22
 215 1650 215 1650 262 1541.5 c 0,23,24
 308 1433 308 1433 334 1282 c 0,25,26
 386 980 386 980 388 817 c 1,0,1
EndSplineSet
EndChar

StartChar: asterisk
Encoding: 42 42 13
Width: 1051
GlyphClass: 2
Flags: W
LayerCount: 2
Fore
SplineSet
675 1189 m 1,0,-1
 810 1199 l 1,1,2
 914 1199 914 1199 914 1137 c 0,3,4
 914 1085 914 1085 843 1085 c 0,5,6
 798 1085 798 1085 709 1089.5 c 128,-1,7
 620 1094 620 1094 576 1094 c 1,8,9
 582 1078 582 1078 655 934.5 c 128,-1,10
 728 791 728 791 728 760.5 c 128,-1,11
 728 730 728 730 713 715 c 128,-1,12
 698 700 698 700 668 700 c 128,-1,13
 638 700 638 700 619 738.5 c 128,-1,14
 600 777 600 777 598 821 c 1,15,-1
 511 1011 l 1,16,17
 500 985 500 985 474 911 c 0,18,19
 419 757 419 757 377 690 c 1,20,-1
 328 690 l 1,21,-1
 284 736 l 1,22,-1
 283 745 l 1,23,24
 286 786 286 786 357.5 927 c 128,-1,25
 429 1068 429 1068 439 1096 c 1,26,27
 323 1096 323 1096 254.5 1096 c 128,-1,28
 186 1096 186 1096 177 1097 c 128,-1,29
 168 1098 168 1098 156 1102 c 0,30,31
 136 1110 136 1110 136 1139.5 c 128,-1,32
 136 1169 136 1169 149.5 1182.5 c 128,-1,33
 163 1196 163 1196 182 1196 c 2,34,-1
 425 1196 l 1,35,36
 423 1201 423 1201 401.5 1242.5 c 128,-1,37
 380 1284 380 1284 364.5 1315 c 0,38,39
 350 1346 350 1346 330 1388 c 0,40,41
 290 1474 290 1474 289.5 1498 c 128,-1,42
 289 1522 289 1522 306 1534.5 c 128,-1,43
 323 1547 323 1547 346.5 1547 c 128,-1,44
 370 1547 370 1547 400.5 1488.5 c 128,-1,45
 431 1430 431 1430 461 1349 c 128,-1,46
 491 1268 491 1268 496 1258 c 1,47,48
 499 1266 499 1266 512.5 1311.5 c 128,-1,49
 526 1357 526 1357 538.5 1393.5 c 128,-1,50
 551 1430 551 1430 569 1474 c 0,51,52
 608 1568 608 1568 649 1567 c 0,53,54
 671 1567 671 1567 688.5 1550.5 c 128,-1,55
 706 1534 706 1534 706 1508 c 128,-1,56
 706 1482 706 1482 683.5 1423 c 128,-1,57
 661 1364 661 1364 625.5 1287.5 c 128,-1,58
 590 1211 590 1211 583 1194 c 1,59,60
 622 1189 622 1189 675 1189 c 1,0,-1
EndSplineSet
EndChar

StartChar: plus
Encoding: 43 43 14
Width: 853
GlyphClass: 2
Flags: W
LayerCount: 2
Fore
SplineSet
468 553 m 1,0,-1
 487 389 l 1,1,2
 487 364 487 364 466.5 348.5 c 128,-1,3
 446 333 446 333 421 333 c 128,-1,4
 396 333 396 333 375 347.5 c 128,-1,5
 354 362 354 362 354 385 c 1,6,-1
 341 584 l 1,7,-1
 341 599 l 1,8,-1
 227 590 l 1,9,10
 140 590 140 590 140 655 c 0,11,12
 140 676 140 676 152.5 692 c 128,-1,13
 165 708 165 708 186 708 c 1,14,-1
 307 701 l 1,15,16
 333 701 333 701 354 705 c 1,17,18
 342 855 l 1,19,20
 342 968 342 968 408 968 c 0,21,22
 431 968 431 968 445.5 951 c 128,-1,23
 460 934 460 934 460 909 c 2,24,-1
 460 884 l 2,25,26
 460 701 460 701 487 701 c 1,27,-1
 606 709 l 1,28,29
 712 709 712 709 712 647 c 0,30,31
 712 623 712 623 695 607 c 128,-1,32
 678 591 678 591 654 591 c 1,33,-1
 533 602 l 1,34,35
 468 602 468 602 468 553 c 1,0,-1
EndSplineSet
EndChar

StartChar: comma
Encoding: 44 44 15
Width: 451
GlyphClass: 2
Flags: W
LayerCount: 2
Fore
SplineSet
232 -151 m 128,-1,1
 181 -202 181 -202 141.5 -202 c 128,-1,2
 102 -202 102 -202 102 -176.5 c 128,-1,3
 102 -151 102 -151 127 -130 c 1,4,5
 172 -78 172 -78 193 64 c 0,6,7
 211 185 211 185 273 185 c 0,8,9
 344 185 344 185 344 77 c 0,10,11
 344 30 344 30 313.5 -35 c 128,-1,0
 283 -100 283 -100 232 -151 c 128,-1,1
EndSplineSet
EndChar

StartChar: hyphen
Encoding: 45 45 16
Width: 731
GlyphClass: 2
Flags: W
LayerCount: 2
Fore
SplineSet
566 781.5 m 128,-1,1
 587 765 587 765 587 739.5 c 128,-1,2
 587 714 587 714 538.5 695.5 c 0,3,4
 490 678 490 678 419 670 c 0,5,6
 291 656 291 656 212 656 c 0,7,8
 186 656 186 656 165.5 673 c 128,-1,9
 145 690 145 690 145 715 c 128,-1,10
 145 740 145 740 193.5 758 c 128,-1,11
 242 776 242 776 312 784 c 0,12,13
 435 798 435 798 519 798 c 0,14,0
 545 798 545 798 566 781.5 c 128,-1,1
EndSplineSet
EndChar

StartChar: period
Encoding: 46 46 17
Width: 445
GlyphClass: 2
Flags: W
LayerCount: 2
Fore
SplineSet
168.5 -9.5 m 128,-1,1
 148 13 148 13 148 42.5 c 128,-1,2
 148 72 148 72 171 96 c 128,-1,3
 194 120 194 120 224 120 c 128,-1,4
 254 120 254 120 276 96 c 128,-1,5
 298 72 298 72 298 40.5 c 128,-1,6
 298 9 298 9 275 -11.5 c 128,-1,7
 252 -32 252 -32 220.5 -32 c 128,-1,0
 189 -32 189 -32 168.5 -9.5 c 128,-1,1
EndSplineSet
EndChar

StartChar: slash
Encoding: 47 47 18
Width: 512
GlyphClass: 2
Flags: W
LayerCount: 2
Fore
SplineSet
55 -54 m 0,0,1
 31 -54 31 -54 31 -9 c 0,2,3
 31 8 31 8 40.5 41 c 128,-1,4
 50 74 50 74 215 742.5 c 128,-1,5
 380 1411 380 1411 423 1553 c 0,6,7
 428 1567 428 1567 442.5 1567 c 128,-1,8
 457 1567 457 1567 468.5 1554.5 c 128,-1,9
 480 1542 480 1542 480 1528.5 c 128,-1,10
 480 1515 480 1515 458.5 1403 c 128,-1,11
 437 1291 437 1291 288 699 c 128,-1,12
 139 107 139 107 75 -31 c 1,13,14
 70 -54 70 -54 55 -54 c 0,0,1
EndSplineSet
EndChar

StartChar: zero
Encoding: 48 48 19
Width: 660
GlyphClass: 2
Flags: W
LayerCount: 2
Fore
SplineSet
204 990 m 1,0,-1
 225 790 l 1,1,2
 226 478 226 478 270 257 c 0,3,4
 302 100 302 100 365 100 c 0,5,6
 395 100 395 100 418 161 c 0,7,8
 442 222 442 222 452 309 c 0,9,10
 472 471 472 471 471.5 561.5 c 128,-1,11
 471 652 471 652 468 735 c 128,-1,12
 465 818 465 818 458 931 c 128,-1,13
 451 1044 451 1044 435 1139 c 128,-1,14
 419 1234 419 1234 396 1320 c 0,15,16
 347 1504 347 1504 249 1518 c 1,17,18
 217 1491 217 1491 206.5 1465 c 128,-1,19
 196 1439 196 1439 196 1395 c 2,20,-1
 204 990 l 1,0,-1
98 1222 m 0,21,22
 98 1473 98 1473 186 1537 c 0,23,24
 222 1563 222 1563 272 1563 c 0,25,26
 566 1563 566 1563 566 521 c 0,27,28
 566 7 566 7 346 7 c 0,29,30
 184 7 184 7 127 508 c 0,31,32
 98 762 98 762 98 1222 c 0,21,22
EndSplineSet
EndChar

StartChar: one
Encoding: 49 49 20
Width: 452
GlyphClass: 2
Flags: W
LayerCount: 2
Fore
SplineSet
241 -8 m 1,0,-1
 180 -9 l 2,1,2
 146 -9 146 -9 131 1.5 c 128,-1,3
 116 12 116 12 116 41 c 128,-1,4
 116 70 116 70 125.5 78 c 128,-1,5
 135 86 135 86 174.5 86 c 128,-1,6
 214 86 214 86 214 120 c 0,7,8
 214 321 214 321 183 719 c 128,-1,9
 152 1117 152 1117 152 1308 c 1,10,-1
 155 1383 l 1,11,12
 155 1479 155 1479 84 1479 c 1,13,-1
 37 1477 l 1,14,15
 -21 1477 -21 1477 -21 1521 c 0,16,17
 -21 1575 -21 1575 144 1575 c 0,18,19
 230 1575 230 1575 249 1541 c 1,20,21
 237 1485 237 1485 237 1438.5 c 128,-1,22
 237 1392 237 1392 252.5 1267 c 128,-1,23
 268 1142 268 1142 268 1030 c 128,-1,24
 268 918 268 918 290 594.5 c 128,-1,25
 312 271 312 271 312 109 c 2,26,-1
 312 96 l 1,27,28
 360 102 360 102 387 102 c 1,29,-1
 387 103 l 1,30,31
 474 103 474 103 474 52 c 0,32,33
 474 -8 474 -8 241 -8 c 1,0,-1
EndSplineSet
EndChar

StartChar: two
Encoding: 50 50 21
Width: 537
GlyphClass: 2
Flags: W
LayerCount: 2
Fore
SplineSet
425 4 m 1,0,-1
 113 -15 l 1,1,2
 84 -15 84 -15 61 2 c 128,-1,3
 38 19 38 19 38 47 c 2,4,-1
 38 55 l 1,5,6
 81 106 81 106 110 189.5 c 128,-1,7
 139 273 139 273 151 299 c 0,8,9
 268 558 268 558 325 774 c 128,-1,10
 382 990 382 990 382 1241 c 128,-1,11
 382 1492 382 1492 284 1500 c 1,12,13
 250 1482 250 1482 238 1402 c 0,14,15
 226 1327 226 1327 177 1327 c 128,-1,16
 128 1327 128 1327 128 1390 c 0,17,18
 128 1490 128 1490 186 1552 c 0,19,20
 218 1586 218 1586 260 1586 c 1,21,-1
 260 1587 l 1,22,23
 366 1587 366 1587 414 1521 c 0,24,25
 449 1472 449 1472 458.5 1433 c 128,-1,26
 468 1394 468 1394 471.5 1371 c 128,-1,27
 475 1348 475 1348 477 1312 c 0,28,29
 480 1258 480 1258 480 1155 c 128,-1,30
 480 1052 480 1052 444 887 c 128,-1,31
 408 722 408 722 365.5 607.5 c 128,-1,32
 323 493 323 493 259 332 c 128,-1,33
 195 171 195 171 167 86 c 1,34,35
 291 107 291 107 409 107 c 1,36,37
 452 76 452 76 452 51.5 c 128,-1,38
 452 27 452 27 425 4 c 1,0,-1
EndSplineSet
EndChar

StartChar: three
Encoding: 51 51 22
Width: 476
GlyphClass: 2
Flags: W
LayerCount: 2
Fore
SplineSet
222 847 m 0,0,1
 159 847 159 847 159 889 c 0,2,3
 159 921 159 921 204 969 c 0,4,5
 290 1062 290 1062 290 1150 c 0,6,7
 290 1229 290 1229 276 1313 c 0,8,9
 249 1477 249 1477 183 1477 c 0,10,11
 158 1477 158 1477 141.5 1458.5 c 128,-1,12
 125 1440 125 1440 118 1418.5 c 128,-1,13
 111 1397 111 1397 93.5 1378.5 c 128,-1,14
 76 1360 76 1360 50.5 1360 c 128,-1,15
 25 1360 25 1360 8 1376.5 c 128,-1,16
 -9 1393 -9 1393 -13 1416 c 1,17,18
 15 1485 15 1485 66.5 1529 c 128,-1,19
 118 1573 118 1573 177 1573 c 128,-1,20
 236 1573 236 1573 274 1542 c 128,-1,21
 312 1511 312 1511 333.5 1464 c 128,-1,22
 355 1417 355 1417 369 1354 c 0,23,24
 392 1250 392 1250 392 1172 c 128,-1,25
 392 1094 392 1094 382.5 1065 c 128,-1,26
 373 1036 373 1036 363.5 1020.5 c 128,-1,27
 354 1005 354 1005 331 972 c 128,-1,28
 308 939 308 939 300 927 c 1,29,30
 426 852 426 852 463 502 c 0,31,32
 471 426 471 426 471 371 c 128,-1,33
 471 316 471 316 469 280.5 c 128,-1,34
 467 245 467 245 460.5 197 c 128,-1,35
 454 149 454 149 439.5 114 c 0,36,37
 424 78 424 78 402 46 c 0,38,39
 356 -20 356 -20 259 -20 c 0,40,41
 182 -20 182 -20 145 11.5 c 128,-1,42
 108 43 108 43 108 69.5 c 128,-1,43
 108 96 108 96 113.5 103 c 128,-1,44
 119 110 119 110 139 110 c 128,-1,45
 159 110 159 110 170 98 c 0,46,47
 215 67 215 67 243 64 c 1,48,49
 368 64 368 64 368 294 c 0,50,51
 368 594 368 594 314 728 c 0,52,53
 287 794 287 794 243 849 c 1,54,55
 237 847 237 847 222 847 c 0,0,1
EndSplineSet
EndChar

StartChar: four
Encoding: 52 52 23
Width: 554
GlyphClass: 2
Flags: W
LayerCount: 2
Fore
SplineSet
269 587 m 1,0,-1
 288 1160 l 2,1,2
 288 1181 288 1181 306 1193.5 c 128,-1,3
 324 1206 324 1206 341 1206 c 1,4,-1
 373 1170 l 1,5,-1
 373 1072 l 2,6,7
 373 753 373 753 369 596 c 1,8,-1
 428 601 l 1,9,10
 489 601 489 601 489 557 c 0,11,12
 489 507 489 507 407 507 c 0,13,14
 374 507 374 507 374 489 c 0,15,16
 374 420 374 420 379.5 299 c 128,-1,17
 385 178 385 178 395 155 c 1,18,19
 391 131 391 131 391 111 c 128,-1,20
 391 91 391 91 400 76 c 1,21,-1
 400 39 l 2,22,23
 400 -38 400 -38 352 -38 c 0,24,25
 321 -38 321 -38 304 -6 c 128,-1,26
 287 26 287 26 287 59 c 2,27,-1
 287 66 l 1,28,29
 298 104 298 104 298 140 c 1,30,-1
 283 339 l 1,31,-1
 285 428 l 2,32,33
 285 463 285 463 281 491 c 1,34,-1
 169 480 l 1,35,-1
 169 479 l 1,36,37
 131 479 131 479 89 512 c 1,38,39
 89 558 89 558 98 591 c 1,40,41
 89 639 89 639 89 707.5 c 128,-1,42
 89 776 89 776 104.5 917 c 128,-1,43
 120 1058 120 1058 120 1124 c 2,44,-1
 120 1503 l 2,45,46
 120 1523 120 1523 127 1533 c 128,-1,47
 134 1543 134 1543 158 1543 c 128,-1,48
 182 1543 182 1543 201 1529 c 128,-1,49
 220 1515 220 1515 220 1492 c 1,50,-1
 211 1333 l 1,51,-1
 210 1296 l 2,52,53
 210 1275 210 1275 214 1259 c 1,54,-1
 214 1252 l 1,55,56
 220 1198 220 1198 220 1127 c 128,-1,57
 220 1056 220 1056 205.5 882.5 c 128,-1,58
 191 709 191 709 191 654 c 128,-1,59
 191 599 191 599 194 576 c 1,60,61
 229 577 229 577 269 587 c 1,0,-1
EndSplineSet
EndChar

StartChar: five
Encoding: 53 53 24
Width: 429
GlyphClass: 2
Flags: W
LayerCount: 2
Fore
SplineSet
260 -36 m 1,0,-1
 225 -37 l 1,1,2
 113 -37 113 -37 113 21 c 0,3,4
 113 44 113 44 132.5 55.5 c 128,-1,5
 152 67 152 67 179 67 c 128,-1,6
 206 67 206 67 229 50 c 1,7,8
 278 67 278 67 306.5 162 c 128,-1,9
 335 257 335 257 335 319.5 c 128,-1,10
 335 382 335 382 334.5 415.5 c 128,-1,11
 334 449 334 449 332 502 c 128,-1,12
 330 555 330 555 325.5 589 c 128,-1,13
 321 623 321 623 313 668 c 128,-1,14
 305 713 305 713 293.5 741.5 c 128,-1,15
 282 770 282 770 264 801.5 c 0,16,17
 246 832 246 832 224 850 c 0,18,19
 172 890 172 890 102 891 c 1,20,21
 53 891 53 891 39 930 c 0,22,23
 27 963 27 963 27 1008 c 1,24,-1
 38 1112 l 1,25,26
 38 1240 38 1240 -12 1540 c 1,27,-1
 23 1576 l 1,28,-1
 190 1576 l 2,29,30
 275 1576 275 1576 275 1524 c 2,31,-1
 275 1513 l 1,32,-1
 237 1482 l 1,33,-1
 186 1482 l 1,34,-1
 186 1488 l 1,35,-1
 99 1488 l 1,36,37
 104 1359 104 1359 139 1002 c 1,38,39
 144 1001 144 1001 178.5 998 c 0,40,41
 213 994 213 994 227 992 c 0,42,43
 278 983 278 983 305 965 c 0,44,45
 352 933 352 933 383 821 c 0,46,47
 433 640 433 640 433 434 c 0,48,49
 433 259 433 259 423 219 c 128,-1,50
 413 179 413 179 400.5 142 c 0,51,52
 388 104 388 104 370 78 c 0,53,54
 328 16 328 16 260 -36 c 1,0,-1
EndSplineSet
EndChar

StartChar: six
Encoding: 54 54 25
Width: 562
GlyphClass: 2
Flags: W
LayerCount: 2
Fore
SplineSet
95 880 m 2,0,1
 95 1586 95 1586 315 1586 c 0,2,3
 331 1586 331 1586 347 1573.5 c 128,-1,4
 363 1561 363 1561 363 1539.5 c 128,-1,5
 363 1518 363 1518 339 1499.5 c 128,-1,6
 315 1481 315 1481 285 1475 c 1,7,8
 259 1450 259 1450 238 1333 c 0,9,10
 205 1147 205 1147 196 949 c 1,11,12
 213 952 213 952 228 952 c 0,13,14
 430 952 430 952 466 447 c 0,15,16
 474 343 474 343 474 267.5 c 128,-1,17
 474 192 474 192 472 162.5 c 128,-1,18
 470 133 470 133 460.5 96.5 c 128,-1,19
 451 60 451 60 434 38 c 0,20,21
 394 -14 394 -14 309 -14 c 1,22,23
 116 -2 116 -2 95 597 c 1,24,-1
 95 880 l 2,0,1
325 73 m 0,25,26
 378 73 378 73 378 212 c 128,-1,27
 378 351 378 351 360 524 c 0,28,29
 324 865 324 865 240 882 c 1,30,31
 212 862 212 862 203.5 836 c 128,-1,32
 195 810 195 810 195 772.5 c 128,-1,33
 195 735 195 735 195.5 700.5 c 128,-1,34
 196 666 196 666 197.5 605 c 128,-1,35
 199 544 199 544 203 489.5 c 128,-1,36
 207 435 207 435 213 371.5 c 128,-1,37
 219 308 219 308 229 257.5 c 0,38,39
 239 208 239 208 252 164 c 0,40,41
 279 74 279 74 325 73 c 0,25,26
EndSplineSet
EndChar

StartChar: seven
Encoding: 55 55 26
Width: 467
GlyphClass: 2
Flags: W
LayerCount: 2
Fore
SplineSet
118 1489 m 1,0,1
 70 1512 70 1512 70 1549 c 0,2,3
 70 1582 70 1582 258 1582 c 2,4,-1
 296 1582 l 2,5,6
 351 1582 351 1582 372 1565.5 c 128,-1,7
 393 1549 393 1549 400 1523 c 1,8,9
 363 1341 363 1341 329 984 c 0,10,11
 267 332 267 332 193 119 c 1,12,13
 194 114 194 114 194 88 c 128,-1,14
 194 62 194 62 171.5 25.5 c 128,-1,15
 149 -11 149 -11 114 -11 c 1,16,-1
 75 24 l 1,17,18
 76 66 76 66 92 117 c 0,19,20
 177 376 177 376 233 776 c 128,-1,21
 289 1176 289 1176 296 1494 c 1,22,23
 264 1498 264 1498 239.5 1498 c 128,-1,24
 215 1498 215 1498 118 1489 c 1,0,1
EndSplineSet
EndChar

StartChar: eight
Encoding: 56 56 27
Width: 531
GlyphClass: 2
Flags: W
LayerCount: 2
Fore
SplineSet
156 542 m 128,-1,1
 204 771 204 771 204 846.5 c 128,-1,2
 204 922 204 922 182 997.5 c 128,-1,3
 160 1073 160 1073 134 1135 c 0,4,5
 64 1300 64 1300 63 1398 c 0,6,7
 63 1607 63 1607 205 1607 c 2,8,-1
 248 1607 l 1,9,10
 314 1567 314 1567 332.5 1537.5 c 128,-1,11
 351 1508 351 1508 359 1489.5 c 0,12,13
 366 1472 366 1472 370 1440 c 0,14,15
 376 1390 376 1390 376 1339 c 128,-1,16
 376 1288 376 1288 375 1263 c 128,-1,17
 374 1238 374 1238 370.5 1210.5 c 128,-1,18
 367 1183 367 1183 365 1162.5 c 128,-1,19
 363 1142 363 1142 357 1110 c 2,20,-1
 348 1062 l 2,21,22
 336 998 336 998 330 974 c 128,-1,23
 324 950 324 950 315 910 c 128,-1,24
 306 870 306 870 304 862 c 1,25,26
 374 699 374 699 420 493 c 128,-1,27
 466 287 466 287 466 119 c 0,28,29
 466 76 466 76 465 72 c 2,30,-1
 464 61 l 1,31,-1
 464 60 l 1,32,33
 401 -82 401 -82 270 -82 c 0,34,35
 224 -82 224 -82 190.5 -53 c 128,-1,36
 157 -24 157 -24 140 22 c 0,37,38
 108 108 108 108 108 210.5 c 128,-1,0
 108 313 108 313 156 542 c 128,-1,1
261 750 m 1,39,40
 203 559 203 559 203 190 c 2,41,-1
 203 188 l 2,42,43
 203 136 203 136 229 81 c 1,44,-1
 229 71 l 1,45,46
 231 50 231 50 242.5 28 c 128,-1,47
 254 6 254 6 272 6 c 0,48,49
 372 6 372 6 372 143 c 128,-1,50
 372 280 372 280 343 422 c 128,-1,51
 314 564 314 564 261 750 c 1,39,40
212 1515 m 1,52,-1
 191 1515 l 1,53,-1
 191 1516 l 1,54,55
 163 1485 163 1485 163 1415 c 128,-1,56
 163 1345 163 1345 189 1214.5 c 128,-1,57
 215 1084 215 1084 240 1007 c 1,58,59
 285 1166 285 1166 285 1312 c 0,60,61
 285 1355 285 1355 271 1435.5 c 128,-1,62
 257 1516 257 1516 234 1516 c 1,63,-1
 212 1515 l 1,52,-1
EndSplineSet
EndChar

StartChar: nine
Encoding: 57 57 28
Width: 563
GlyphClass: 2
Flags: W
LayerCount: 2
Fore
SplineSet
464 1420 m 1,0,-1
 440 237 l 1,1,-1
 426 90 l 1,2,-1
 427 49 l 2,3,4
 427 15 427 15 410.5 -9.5 c 128,-1,5
 394 -34 394 -34 359 -34 c 1,6,-1
 327 4 l 1,7,8
 359 100 359 100 359 686 c 1,9,-1
 355 931 l 1,10,11
 241 957 241 957 167.5 1042.5 c 128,-1,12
 94 1128 94 1128 94 1243 c 0,13,14
 94 1505 94 1505 206 1587 c 0,15,16
 243 1614 243 1614 292 1614 c 0,17,18
 392 1614 392 1614 428 1568 c 128,-1,19
 464 1522 464 1522 464 1420 c 1,0,-1
357 1009 m 1,20,21
 366 1165 366 1165 366 1427 c 0,22,23
 366 1474 366 1474 351.5 1500.5 c 128,-1,24
 337 1527 337 1527 301 1527 c 128,-1,25
 265 1527 265 1527 244 1492.5 c 128,-1,26
 223 1458 223 1458 213 1408 c 0,27,28
 194 1313 194 1313 194 1268 c 128,-1,29
 194 1223 194 1223 196 1202.5 c 128,-1,30
 198 1182 198 1182 200.5 1166 c 128,-1,31
 203 1150 203 1150 210 1135 c 128,-1,32
 217 1120 217 1120 221 1110 c 128,-1,33
 225 1100 225 1100 237 1088.5 c 128,-1,34
 249 1077 249 1077 254.5 1071.5 c 128,-1,35
 260 1066 260 1066 277 1055.5 c 128,-1,36
 294 1045 294 1045 300.5 1041 c 128,-1,37
 307 1037 307 1037 328 1025.5 c 128,-1,38
 349 1014 349 1014 357 1009 c 1,20,21
EndSplineSet
EndChar

StartChar: colon
Encoding: 58 58 29
Width: 443
GlyphClass: 2
Flags: W
LayerCount: 2
Fore
SplineSet
158.5 199.5 m 128,-1,1
 138 222 138 222 138 251.5 c 128,-1,2
 138 281 138 281 161 305 c 128,-1,3
 184 329 184 329 214 329 c 128,-1,4
 244 329 244 329 265.5 305 c 128,-1,5
 287 281 287 281 287 249.5 c 128,-1,6
 287 218 287 218 264 197.5 c 128,-1,7
 241 177 241 177 210 177 c 128,-1,0
 179 177 179 177 158.5 199.5 c 128,-1,1
179 973.5 m 128,-1,9
 159 996 159 996 159 1025 c 128,-1,10
 159 1054 159 1054 182 1078.5 c 128,-1,11
 205 1103 205 1103 234.5 1103 c 128,-1,12
 264 1103 264 1103 286 1079 c 128,-1,13
 308 1055 308 1055 308 1023.5 c 128,-1,14
 308 992 308 992 285 971.5 c 128,-1,15
 262 951 262 951 230.5 951 c 128,-1,8
 199 951 199 951 179 973.5 c 128,-1,9
EndSplineSet
EndChar

StartChar: semicolon
Encoding: 59 59 30
Width: 438
GlyphClass: 2
Flags: W
LayerCount: 2
Fore
SplineSet
219 23 m 128,-1,1
 175 -28 175 -28 139 -28 c 128,-1,2
 103 -28 103 -28 103 -2.5 c 128,-1,3
 103 23 103 23 128 44 c 1,4,5
 153 81 153 81 167 163 c 128,-1,6
 181 245 181 245 195.5 302 c 128,-1,7
 210 359 210 359 244 359 c 0,8,9
 315 359 315 359 315 251 c 0,10,11
 315 204 315 204 289 139 c 128,-1,0
 263 74 263 74 219 23 c 128,-1,1
199 974.5 m 128,-1,13
 179 997 179 997 179 1026 c 128,-1,14
 179 1055 179 1055 202 1079.5 c 128,-1,15
 225 1104 225 1104 254.5 1104 c 128,-1,16
 284 1104 284 1104 306 1080 c 128,-1,17
 328 1056 328 1056 328 1024.5 c 128,-1,18
 328 993 328 993 305 972.5 c 128,-1,19
 282 952 282 952 250.5 952 c 128,-1,12
 219 952 219 952 199 974.5 c 128,-1,13
EndSplineSet
EndChar

StartChar: less
Encoding: 60 60 31
Width: 524
GlyphClass: 2
Flags: W
LayerCount: 2
Fore
SplineSet
360 1447 m 1,0,-1
 367 1446 l 1,1,-1
 412 1411 l 1,2,3
 394 1277 394 1277 272 1037 c 0,4,5
 154 805 154 805 154 702 c 0,6,7
 154 686 154 686 293 397 c 128,-1,8
 432 108 432 108 465 49 c 1,9,-1
 491 49 l 1,10,11
 489 22 489 22 475.5 0 c 128,-1,12
 462 -22 462 -22 428 -22 c 128,-1,13
 394 -22 394 -22 343.5 39.5 c 128,-1,14
 293 101 293 101 246 198.5 c 128,-1,15
 199 296 199 296 160 390.5 c 128,-1,16
 121 485 121 485 85 578.5 c 128,-1,17
 49 672 49 672 37 698 c 1,18,19
 38 729 38 729 104.5 912.5 c 128,-1,20
 171 1096 171 1096 251 1271.5 c 128,-1,21
 331 1447 331 1447 360 1447 c 1,0,-1
EndSplineSet
EndChar

StartChar: equal
Encoding: 61 61 32
Width: 684
GlyphClass: 2
Flags: W
LayerCount: 2
Fore
SplineSet
258 770 m 1,0,-1
 180 767 l 1,1,2
 57 767 57 767 57 826 c 0,3,4
 57 847 57 847 69.5 859.5 c 128,-1,5
 82 872 82 872 103 872 c 2,6,-1
 470 872 l 2,7,8
 629 872 629 872 629 818 c 128,-1,9
 629 764 629 764 413 764 c 0,10,11
 321 764 321 764 267 770 c 1,12,-1
 258 770 l 1,0,-1
571 579 m 2,13,-1
 139 589 l 1,14,15
 57 589 57 589 57 634 c 0,16,17
 57 655 57 655 69.5 667.5 c 128,-1,18
 82 680 82 680 103 680 c 2,19,-1
 410 680 l 2,20,21
 619 680 619 680 619 626 c 0,22,23
 619 605 619 605 605.5 592 c 128,-1,24
 592 579 592 579 571 579 c 2,13,-1
EndSplineSet
EndChar

StartChar: greater
Encoding: 62 62 33
Width: 523
GlyphClass: 2
Flags: W
LayerCount: 2
Fore
SplineSet
126 -19 m 1,0,-1
 88 -23 l 1,1,2
 71 -23 71 -23 58 -10 c 128,-1,3
 45 3 45 3 45 33.5 c 128,-1,4
 45 64 45 64 126 223 c 128,-1,5
 207 382 207 382 288 532.5 c 128,-1,6
 369 683 369 683 369 702 c 0,7,8
 368 804 368 804 278 982 c 0,9,10
 240 1056 240 1056 204 1129 c 0,11,12
 114 1306 114 1306 112 1411 c 1,13,-1
 167 1446 l 1,14,-1
 167 1444 l 1,15,16
 207 1426 207 1426 285.5 1258 c 128,-1,17
 364 1090 364 1090 424.5 917 c 128,-1,18
 485 744 485 744 487 698 c 1,19,-1
 126 -19 l 1,0,-1
EndSplineSet
EndChar

StartChar: question
Encoding: 63 63 34
Width: 464
GlyphClass: 2
Flags: W
LayerCount: 2
Fore
SplineSet
286 70 m 0,0,1
 286 -8 286 -8 203 -8 c 0,2,3
 174 -8 174 -8 152.5 15.5 c 128,-1,4
 131 39 131 39 131 68 c 128,-1,5
 131 97 131 97 156 122.5 c 128,-1,6
 181 148 181 148 209.5 148 c 128,-1,7
 238 148 238 148 262 121.5 c 128,-1,8
 286 95 286 95 286 70 c 0,0,1
121 1203 m 0,9,10
 63 1204 63 1204 63 1336 c 0,11,12
 63 1408 63 1408 74 1447.5 c 128,-1,13
 85 1487 85 1487 118 1517 c 128,-1,14
 151 1547 151 1547 200 1547 c 128,-1,15
 249 1547 249 1547 282.5 1528.5 c 128,-1,16
 316 1510 316 1510 334 1483.5 c 0,17,18
 352 1458 352 1458 362 1416 c 0,19,20
 378 1355 378 1355 378 1255.5 c 128,-1,21
 378 1156 378 1156 358.5 1051 c 0,22,23
 340 946 340 946 316 867 c 0,24,25
 254 657 254 657 253 366 c 0,26,27
 253 267 253 267 254 229 c 1,28,29
 218 229 218 229 212.5 226 c 128,-1,30
 207 223 207 223 203 223 c 0,31,32
 165 223 165 223 153 269 c 1,33,34
 153 495 153 495 210.5 784 c 128,-1,35
 268 1073 268 1073 268 1260 c 128,-1,36
 268 1447 268 1447 207 1447 c 0,37,38
 168 1447 168 1447 168 1356 c 0,39,40
 168 1340 168 1340 182 1245 c 1,41,42
 182 1236 182 1236 157 1219.5 c 128,-1,43
 132 1203 132 1203 121 1203 c 0,9,10
EndSplineSet
EndChar

StartChar: at
Encoding: 64 64 35
Width: 1030
GlyphClass: 2
Flags: W
LayerCount: 2
Fore
SplineSet
430 -120 m 0,0,1
 15 -120 15 -120 15 956 c 0,2,3
 15 1252 15 1252 54 1386 c 0,4,5
 102 1550 102 1550 187 1622 c 0,6,7
 301 1718 301 1718 478 1719 c 0,8,9
 727 1718 727 1718 857 1464 c 0,10,11
 985 1213 985 1213 985 767 c 0,12,13
 985 642 985 642 974 593 c 128,-1,14
 963 544 963 544 950 510.5 c 128,-1,15
 937 477 937 477 919 456 c 0,16,17
 876 406 876 406 809 406 c 1,18,19
 759 406 759 406 706 519 c 1,20,21
 672 425 672 425 612.5 365.5 c 128,-1,22
 553 306 553 306 487 306 c 0,23,24
 378 306 378 306 326 406 c 0,25,26
 258 537 258 537 258 851 c 0,27,28
 258 1003 258 1003 265 1051 c 128,-1,29
 272 1099 272 1099 280 1139.5 c 128,-1,30
 288 1180 288 1180 299.5 1207.5 c 128,-1,31
 311 1235 311 1235 329 1264.5 c 0,32,33
 348 1294 348 1294 370 1311 c 0,34,35
 423 1351 423 1351 481.5 1351 c 128,-1,36
 540 1351 540 1351 579.5 1326.5 c 128,-1,37
 619 1302 619 1302 646 1264.5 c 128,-1,38
 673 1227 673 1227 695 1168.5 c 128,-1,39
 717 1110 717 1110 729.5 1054 c 128,-1,40
 742 998 742 998 752 924 c 128,-1,41
 762 850 762 850 767 795.5 c 128,-1,42
 772 741 772 741 778 670.5 c 128,-1,43
 784 600 784 600 788 565 c 1,44,-1
 788 556 l 1,45,-1
 817 510 l 1,46,47
 839 522 839 522 852 581 c 0,48,49
 870 663 870 663 870 757 c 128,-1,50
 870 851 870 851 866 922.5 c 128,-1,51
 862 994 862 994 850.5 1079.5 c 128,-1,52
 839 1165 839 1165 820.5 1238.5 c 128,-1,53
 802 1312 802 1312 771 1382 c 128,-1,54
 740 1452 740 1452 699 1502 c 0,55,56
 609 1612 609 1612 468 1612 c 0,57,58
 281 1612 281 1612 205 1468 c 0,59,60
 144 1352 144 1352 138 1161 c 0,61,62
 136 1115 136 1115 136 1050 c 2,63,-1
 136 930 l 2,64,65
 136 130 136 130 348 -6 c 0,66,67
 388 -32 388 -32 452 -31.5 c 128,-1,68
 516 -31 516 -31 584.5 -12.5 c 128,-1,69
 653 6 653 6 695 33 c 0,70,71
 738 60 738 60 770 86 c 0,72,73
 848 150 848 150 871 150 c 128,-1,74
 894 150 894 150 894 130 c 0,75,76
 894 106 894 106 864.5 66 c 128,-1,77
 835 26 835 26 781 -16.5 c 128,-1,78
 727 -59 727 -59 633.5 -89.5 c 128,-1,79
 540 -120 540 -120 430 -120 c 0,0,1
491 1246 m 1,80,81
 433 1246 433 1246 399 1120 c 128,-1,82
 365 994 365 994 365 824.5 c 128,-1,83
 365 655 365 655 401 532.5 c 128,-1,84
 437 410 437 410 503 410 c 0,85,86
 546 410 546 410 592 484 c 128,-1,87
 638 558 638 558 638 605 c 2,88,-1
 638 759 l 2,89,90
 638 881 638 881 617 1005 c 0,91,92
 551 1212 551 1212 491 1246 c 1,80,81
EndSplineSet
EndChar

StartChar: A
Encoding: 65 65 36
Width: 656
GlyphClass: 2
Flags: W
LayerCount: 2
Fore
SplineSet
527 1 m 0,0,1
 464 1 464 1 464 54 c 2,2,-1
 464 321 l 1,3,4
 435 341 435 341 359.5 355 c 128,-1,5
 284 369 284 369 225 373 c 1,6,7
 204 337 204 337 190.5 269 c 128,-1,8
 177 201 177 201 162.5 132 c 128,-1,9
 148 63 148 63 124 23 c 1,10,11
 44 23 44 23 34 64 c 1,12,13
 62 104 62 104 125 473 c 128,-1,14
 188 842 188 842 228.5 1050.5 c 128,-1,15
 269 1259 269 1259 316 1401 c 128,-1,16
 363 1543 363 1543 406 1543 c 128,-1,17
 449 1543 449 1543 472 1525 c 1,18,19
 472 1452 472 1452 512 1130 c 128,-1,20
 552 808 552 808 552 713.5 c 128,-1,21
 552 619 552 619 573.5 399.5 c 128,-1,22
 595 180 595 180 595 70 c 0,23,24
 595 1 595 1 527 1 c 0,0,1
408.5 1015.5 m 128,-1,26
 394 1180 394 1180 394 1214.5 c 128,-1,27
 394 1249 394 1249 395 1254 c 1,28,29
 363 1221 363 1221 302.5 887 c 128,-1,30
 242 553 242 553 238 464 c 1,31,32
 323 441 323 441 380.5 441 c 128,-1,33
 438 441 438 441 462 447 c 1,34,35
 459 488 459 488 441 669.5 c 128,-1,25
 423 851 423 851 408.5 1015.5 c 128,-1,26
EndSplineSet
EndChar

StartChar: B
Encoding: 66 66 37
Width: 576
GlyphClass: 2
Flags: W
LayerCount: 2
Fore
SplineSet
214 1421 m 0,0,1
 185 1421 185 1421 185 1347.5 c 128,-1,2
 185 1274 185 1274 189 1116.5 c 128,-1,3
 193 959 193 959 193 888 c 1,4,5
 246 900 246 900 284 976 c 0,6,7
 315 1040 315 1040 335 1099.5 c 128,-1,8
 355 1159 355 1159 361 1173 c 1,9,-1
 361 1246 l 2,10,11
 361 1306 361 1306 316.5 1363.5 c 128,-1,12
 272 1421 272 1421 214 1421 c 0,0,1
363 184 m 128,-1,14
 421 262 421 262 421 364 c 128,-1,15
 421 466 421 466 404 543.5 c 128,-1,16
 387 621 387 621 366.5 660.5 c 128,-1,17
 346 700 346 700 319 728 c 0,18,19
 286 762 286 762 265 769 c 1,20,-1
 192 769 l 1,21,22
 202 486 202 486 202 90 c 1,23,13
 305 106 305 106 363 184 c 128,-1,14
88 538 m 1,24,-1
 74 1370 l 1,25,-1
 74 1382 l 2,26,27
 74 1492 74 1492 108 1522 c 0,28,29
 125 1537 125 1537 151 1537 c 0,30,31
 297 1537 297 1537 379 1443 c 128,-1,32
 461 1349 461 1349 461 1201 c 0,33,34
 461 1108 461 1108 412 1008 c 128,-1,35
 363 908 363 908 295 859 c 1,36,37
 420 775 420 775 473.5 645.5 c 128,-1,38
 527 516 527 516 527 374 c 0,39,40
 527 299 527 299 489.5 220 c 128,-1,41
 452 141 452 141 414.5 94 c 128,-1,42
 377 47 377 47 316 15 c 128,-1,43
 255 -17 255 -17 182 -17 c 2,44,-1
 174 -17 l 2,45,46
 78 -17 78 -17 78 34 c 1,47,-1
 88 538 l 1,24,-1
EndSplineSet
EndChar

StartChar: C
Encoding: 67 67 38
Width: 649
GlyphClass: 2
Flags: W
LayerCount: 2
Fore
SplineSet
176 999 m 1,0,-1
 158 856 l 1,1,-1
 158 807 l 2,2,3
 158 569 158 569 168.5 492 c 128,-1,4
 179 415 179 415 190 354 c 128,-1,5
 201 293 201 293 218.5 250 c 128,-1,6
 236 207 236 207 260 169 c 0,7,8
 308 93 308 93 393 93 c 0,9,10
 428 93 428 93 480 129.5 c 128,-1,11
 532 166 532 166 559 166 c 128,-1,12
 586 166 586 166 617 135 c 1,13,14
 617 32 617 32 500 -12 c 0,15,16
 442 -33 442 -33 374 -33 c 128,-1,17
 306 -33 306 -33 258 -5.5 c 128,-1,18
 210 22 210 22 178 65.5 c 128,-1,19
 146 109 146 109 122 177 c 128,-1,20
 98 245 98 245 84.5 312.5 c 0,21,22
 72 380 72 380 64 468 c 0,23,24
 52 616 52 616 51 792 c 1,25,-1
 53 1037 l 2,26,27
 53 1154 53 1154 67 1226 c 1,28,29
 61 1259 61 1259 61 1290 c 0,30,31
 61 1416 61 1416 155 1490.5 c 128,-1,32
 249 1565 249 1565 387 1565 c 0,33,34
 436 1565 436 1565 483 1537.5 c 128,-1,35
 530 1510 530 1510 530 1465 c 0,36,37
 530 1443 530 1443 513 1431 c 128,-1,38
 496 1419 496 1419 455.5 1419 c 128,-1,39
 415 1419 415 1419 400 1444 c 1,40,-1
 400 1443 l 1,41,-1
 372 1443 l 1,42,-1
 372 1448 l 1,43,44
 253 1448 253 1448 210 1374 c 0,45,46
 170 1306 170 1306 170 1140 c 1,47,-1
 176 999 l 1,0,-1
EndSplineSet
EndChar

StartChar: D
Encoding: 68 68 39
Width: 653
GlyphClass: 2
Flags: W
LayerCount: 2
Fore
SplineSet
211 310 m 2,0,1
 211 114 l 1,2,3
 288 164 288 164 345 253.5 c 128,-1,4
 402 343 402 343 432 449 c 0,5,6
 488 652 488 652 488 854 c 0,7,8
 488 1086 488 1086 430 1220 c 0,9,10
 371 1358 371 1358 284 1402 c 0,11,12
 230 1430 230 1430 162 1429 c 1,13,-1
 162 1427 l 2,14,15
 162 1242 162 1242 186.5 870 c 128,-1,16
 211 498 211 498 211 310 c 2,0,1
588 754 m 1,17,-1
 593 711 l 1,18,19
 594 566 594 566 516 369 c 0,20,21
 428 144 428 144 308 50 c 0,22,23
 240 -4 240 -4 168 -5 c 0,24,25
 130 -5 130 -5 99 12.5 c 128,-1,26
 68 30 68 30 68 65 c 1,27,28
 113 112 113 112 113 306 c 0,29,30
 113 420 113 420 94 645 c 128,-1,31
 75 870 75 870 75 982 c 1,32,-1
 81 1206 l 1,33,34
 81 1260 81 1260 58.5 1351.5 c 128,-1,35
 36 1443 36 1443 36 1481 c 0,36,37
 36 1552 36 1552 193 1552 c 2,38,-1
 224 1552 l 2,39,40
 433 1552 433 1552 527 1318 c 0,41,42
 593 1155 593 1155 593 868 c 2,43,-1
 593 773 l 1,44,45
 588 764 588 764 588 754 c 1,17,-1
EndSplineSet
EndChar

StartChar: E
Encoding: 69 69 40
Width: 457
GlyphClass: 2
Flags: W
LayerCount: 2
Fore
SplineSet
293 750 m 2,0,-1
 242 752 l 1,1,2
 212 752 212 752 200 737 c 1,3,-1
 200 105 l 1,4,5
 305 111 305 111 314 111 c 0,6,7
 431 111 431 111 431 57 c 2,8,-1
 431 50 l 1,9,10
 417 22 417 22 383 7 c 128,-1,11
 349 -8 349 -8 323 -10 c 128,-1,12
 297 -12 297 -12 256 -12 c 2,13,-1
 192 -12 l 2,14,15
 116 -12 116 -12 98 18 c 0,16,17
 90 32 90 32 90 55 c 2,18,-1
 90 1245 l 2,19,20
 90 1280 90 1280 76 1349 c 128,-1,21
 62 1418 62 1418 62 1454 c 2,22,-1
 62 1461 l 1,23,24
 96 1517 96 1517 113 1533 c 1,25,-1
 265 1551 l 1,26,27
 296 1551 296 1551 327.5 1532.5 c 128,-1,28
 359 1514 359 1514 359 1484 c 0,29,30
 359 1423 359 1423 266 1423 c 1,31,-1
 207 1425 l 2,32,33
 192 1425 192 1425 185 1424 c 1,34,-1
 201 1086 l 1,35,36
 201 1045 201 1045 196 966.5 c 128,-1,37
 191 888 191 888 191 852 c 1,38,39
 202 854 202 854 221 859 c 0,40,41
 263 870 263 870 286.5 870 c 128,-1,42
 310 870 310 870 328.5 853 c 128,-1,43
 347 836 347 836 347 812 c 128,-1,44
 347 788 347 788 332 769 c 128,-1,45
 317 750 317 750 293 750 c 2,0,-1
EndSplineSet
EndChar

StartChar: F
Encoding: 70 70 41
Width: 391
GlyphClass: 2
Flags: W
LayerCount: 2
Fore
SplineSet
230 94 m 1,0,-1
 225 81 l 1,1,2
 229 69 229 69 229 49.5 c 128,-1,3
 229 30 229 30 210 14 c 128,-1,4
 191 -2 191 -2 160 -2 c 0,5,6
 101 -2 101 -2 101 129 c 0,7,8
 101 324 101 324 80.5 866 c 128,-1,9
 60 1408 60 1408 39 1440 c 1,10,11
 40 1546 40 1546 184 1553 c 0,12,13
 206 1554 206 1554 243.5 1554 c 128,-1,14
 281 1554 281 1554 302.5 1540 c 128,-1,15
 324 1526 324 1526 324 1483 c 128,-1,16
 324 1440 324 1440 267 1440 c 1,17,-1
 217 1442 l 1,18,19
 160 1442 160 1442 160 1419 c 0,20,21
 160 1324 160 1324 175 1140.5 c 128,-1,22
 190 957 190 957 191 869 c 1,23,24
 204 871 204 871 226 877 c 0,25,26
 278 891 278 891 303 891 c 128,-1,27
 328 891 328 891 344.5 871.5 c 128,-1,28
 361 852 361 852 361 828 c 0,29,30
 361 761 361 761 191 761 c 1,31,32
 191 650 191 650 210.5 428 c 128,-1,33
 230 206 230 206 230 94 c 1,0,-1
EndSplineSet
EndChar

StartChar: G
Encoding: 71 71 42
Width: 727
GlyphClass: 2
Flags: W
LayerCount: 2
Fore
SplineSet
525 371 m 1,0,-1
 445 363 l 1,1,2
 375 363 375 363 375 421 c 0,3,4
 375 471 375 471 507 486 c 0,5,6
 533 489 533 489 564 489 c 128,-1,7
 595 489 595 489 617 457 c 128,-1,8
 639 425 639 425 639 371.5 c 128,-1,9
 639 318 639 318 659.5 197 c 128,-1,10
 680 76 680 76 680 34 c 0,11,12
 680 -41 680 -41 629.5 -41 c 128,-1,13
 579 -41 579 -41 562 2 c 1,14,-1
 562 4 l 1,15,16
 550 -1 550 -1 517 -19 c 0,17,18
 455 -53 455 -53 394 -53 c 0,19,20
 350 -53 350 -53 306 -35 c 0,21,22
 212 2 212 2 162 90 c 0,23,24
 108 183 108 183 91 268 c 128,-1,25
 74 353 74 353 67.5 402 c 0,26,27
 61 452 61 452 57 516 c 0,28,29
 52 597 52 597 52 711 c 2,30,-1
 51 862 l 1,31,32
 51 1060 51 1060 64 1146 c 128,-1,33
 77 1232 77 1232 90.5 1287 c 128,-1,34
 104 1342 104 1342 122 1384.5 c 128,-1,35
 140 1427 140 1427 166.5 1467 c 0,36,37
 192 1508 192 1508 226 1534 c 0,38,39
 299 1592 299 1592 393 1591.5 c 128,-1,40
 487 1591 487 1591 487 1533 c 0,41,42
 487 1511 487 1511 471 1498 c 128,-1,43
 455 1485 455 1485 433 1485 c 1,44,-1
 374 1495 l 1,45,46
 297 1494 297 1494 253 1402 c 0,47,48
 206 1301 206 1301 193 1210 c 128,-1,49
 180 1119 180 1119 173.5 1063 c 0,50,51
 166 1008 166 1008 164 938 c 0,52,53
 160 841 160 841 161 744 c 2,54,-1
 160 617 l 1,55,56
 160 421 160 421 177.5 338 c 128,-1,57
 195 255 195 255 213.5 206 c 0,58,59
 232 156 232 156 258 124 c 0,60,61
 343 59 343 59 407 51 c 1,62,63
 498 51 498 51 558 137 c 1,64,65
 555 319 555 319 525 371 c 1,0,-1
EndSplineSet
EndChar

StartChar: H
Encoding: 72 72 43
Width: 560
GlyphClass: 2
Flags: W
LayerCount: 2
Fore
SplineSet
440 -31 m 0,0,1
 388 -31 388 -31 388 37 c 0,2,3
 388 427 388 427 370 759 c 1,4,5
 315 769 315 769 267 769 c 128,-1,6
 219 769 219 769 181 753 c 1,7,8
 181 639 181 639 198 408 c 128,-1,9
 215 177 215 177 215 59 c 0,10,11
 215 39 215 39 203 22 c 128,-1,12
 191 5 191 5 171 5 c 0,13,14
 115 4 115 4 89 356 c 0,15,16
 54 833 54 833 54 1510 c 0,17,18
 54 1547 54 1547 89 1547 c 0,19,20
 108 1547 108 1547 130 1536.5 c 128,-1,21
 152 1526 152 1526 161 1514 c 1,22,23
 154 1441 154 1441 154 1360 c 1,24,-1
 168 939 l 1,25,-1
 166 862 l 2,26,27
 166 833 166 833 170 809 c 1,28,-1
 369 824 l 1,29,-1
 361 1496 l 1,30,-1
 361 1550 l 1,31,32
 439 1550 439 1550 454 1480 c 0,33,34
 461 1446 461 1446 461 1307 c 128,-1,35
 461 1168 461 1168 480.5 717.5 c 128,-1,36
 500 267 500 267 500 43 c 0,37,38
 500 16 500 16 483 -7.5 c 128,-1,39
 466 -31 466 -31 440 -31 c 0,0,1
EndSplineSet
EndChar

StartChar: I
Encoding: 73 73 44
Width: 432
GlyphClass: 2
Flags: W
LayerCount: 2
Fore
SplineSet
301 1442 m 2,0,-1
 265 1443 l 2,1,2
 245 1443 245 1443 235.5 1434.5 c 128,-1,3
 226 1426 226 1426 226 1401 c 0,4,5
 226 1201 226 1201 251 802 c 128,-1,6
 276 403 276 403 276 203 c 2,7,-1
 276 124 l 1,8,9
 297 127 297 127 318 127 c 0,10,11
 403 127 403 127 403 55 c 2,12,-1
 403 43 l 1,13,-1
 352 8 l 1,14,-1
 213 3 l 1,15,16
 36 3 36 3 36 64 c 0,17,18
 36 113 36 113 98 113 c 1,19,-1
 141 110 l 1,20,21
 171 110 171 110 171 158 c 0,22,23
 171 316 171 316 152 631.5 c 128,-1,24
 133 947 133 947 133 1105 c 1,25,-1
 137 1314 l 1,26,27
 137 1380 137 1380 132 1428 c 1,28,29
 105 1419 105 1419 84 1419 c 0,30,31
 36 1419 36 1419 36 1468 c 0,32,33
 36 1493 36 1493 67 1511.5 c 128,-1,34
 98 1530 98 1530 144 1538 c 0,35,36
 230 1553 230 1553 271.5 1553 c 128,-1,37
 313 1553 313 1553 331 1536.5 c 128,-1,38
 349 1520 349 1520 349 1497.5 c 128,-1,39
 349 1475 349 1475 335.5 1458.5 c 128,-1,40
 322 1442 322 1442 301 1442 c 2,0,-1
EndSplineSet
EndChar

StartChar: J
Encoding: 74 74 45
Width: 419
GlyphClass: 2
Flags: W
LayerCount: 2
Fore
SplineSet
217 241 m 2,0,-1
 218 525 l 1,1,2
 218 1119 218 1119 164 1445 c 1,3,4
 157 1444 157 1444 137 1439 c 0,5,6
 97 1429 97 1429 75.5 1429 c 128,-1,7
 54 1429 54 1429 38.5 1444.5 c 128,-1,8
 23 1460 23 1460 23 1481 c 0,9,10
 23 1553 23 1553 268 1553 c 2,11,-1
 294 1553 l 2,12,13
 386 1553 386 1553 386 1498.5 c 128,-1,14
 386 1444 386 1444 301 1444 c 1,15,-1
 295 1445 l 1,16,-1
 267 1445 l 1,17,-1
 267 1429 l 2,18,19
 267 1376 267 1376 279 1270.5 c 128,-1,20
 291 1165 291 1165 291 1072 c 128,-1,21
 291 979 291 979 309.5 713.5 c 128,-1,22
 328 448 328 448 328 315 c 2,23,-1
 327 152 l 2,24,25
 327 31 327 31 276.5 -64.5 c 128,-1,26
 226 -160 226 -160 129 -194 c 1,27,28
 97 -194 97 -194 76 -178 c 128,-1,29
 55 -162 55 -162 55 -134 c 128,-1,30
 55 -106 55 -106 80.5 -83 c 128,-1,31
 106 -60 106 -60 135 -48 c 1,32,33
 163 -12 163 -12 190 68 c 128,-1,34
 217 148 217 148 217 241 c 2,0,-1
EndSplineSet
EndChar

StartChar: K
Encoding: 75 75 46
Width: 650
GlyphClass: 2
Flags: W
LayerCount: 2
Fore
SplineSet
97 660 m 2,0,-1
 100 1049 l 2,1,2
 100 1151 100 1151 85 1285 c 128,-1,3
 70 1419 70 1419 70 1460.5 c 128,-1,4
 70 1502 70 1502 86.5 1521.5 c 128,-1,5
 103 1541 103 1541 128 1541 c 0,6,7
 204 1541 204 1541 204 1375 c 0,8,9
 204 1374 204 1374 195 954 c 1,10,11
 202 971 202 971 234 1054 c 128,-1,12
 266 1137 266 1137 300.5 1221 c 0,13,14
 335 1304 335 1304 374 1394 c 0,15,16
 462 1596 462 1596 502 1596 c 0,17,18
 525 1596 525 1596 542.5 1580.5 c 128,-1,19
 560 1565 560 1565 560 1543.5 c 128,-1,20
 560 1522 560 1522 448.5 1288 c 128,-1,21
 337 1054 337 1054 323 991 c 1,22,-1
 323 955 l 1,23,24
 353 879 353 879 486.5 458 c 128,-1,25
 620 37 620 37 620 11.5 c 128,-1,26
 620 -14 620 -14 600 -31 c 128,-1,27
 580 -48 580 -48 555 -48 c 1,28,-1
 507 -40 l 1,29,30
 456 251 456 251 401 467.5 c 128,-1,31
 346 684 346 684 257 880 c 1,32,33
 196 771 196 771 193 748 c 0,34,35
 187 686 187 686 187 650 c 1,36,-1
 200 270 l 1,37,-1
 200 102 l 2,38,39
 200 -7 200 -7 130 -7 c 0,40,41
 70 -7 70 -7 70 96.5 c 128,-1,42
 70 200 70 200 83.5 384 c 128,-1,43
 97 568 97 568 97 660 c 2,0,-1
EndSplineSet
EndChar

StartChar: L
Encoding: 76 76 47
Width: 430
GlyphClass: 2
Flags: W
LayerCount: 2
Fore
SplineSet
191 775 m 1,0,-1
 193 710 l 1,1,-1
 193 701 l 1,2,3
 201 523 201 523 201 167 c 2,4,-1
 201 115 l 1,5,-1
 357 115 l 1,6,7
 401 85 401 85 401 58 c 128,-1,8
 401 31 401 31 386 13.5 c 128,-1,9
 371 -4 371 -4 355 -4 c 128,-1,10
 339 -4 339 -4 318 3 c 1,11,12
 301 -1 301 -1 279 -1 c 2,13,-1
 213 2 l 1,14,15
 192 -23 192 -23 160.5 -23 c 128,-1,16
 129 -23 129 -23 107.5 -3.5 c 128,-1,17
 86 16 86 16 86 42 c 1,18,-1
 99 132 l 1,19,20
 99 365 99 365 78.5 830.5 c 128,-1,21
 58 1296 58 1296 58 1529 c 0,22,23
 58 1548 58 1548 73 1559.5 c 128,-1,24
 88 1571 88 1571 110.5 1571 c 128,-1,25
 133 1571 133 1571 151.5 1554 c 128,-1,26
 170 1537 170 1537 170 1512 c 2,27,-1
 191 775 l 1,0,-1
EndSplineSet
EndChar

StartChar: M
Encoding: 77 77 48
Width: 824
GlyphClass: 2
Flags: W
LayerCount: 2
Fore
SplineSet
83 464 m 1,0,-1
 76 1257 l 1,1,2
 76 1390 76 1390 79 1522 c 1,3,-1
 136 1554 l 1,4,5
 197 1550 197 1550 275 1228 c 0,6,7
 338 965 338 965 377 755.5 c 128,-1,8
 416 546 416 546 420 528 c 1,9,10
 434 594 434 594 472 764 c 128,-1,11
 510 934 510 934 529 1028 c 0,12,13
 585 1303 585 1303 598 1517 c 1,14,-1
 598 1529 l 1,15,16
 602 1555 602 1555 623 1571 c 128,-1,17
 644 1587 644 1587 667 1587 c 128,-1,18
 690 1587 690 1587 704.5 1570.5 c 128,-1,19
 719 1554 719 1554 719 1535 c 0,20,21
 719 1290 719 1290 737.5 801 c 128,-1,22
 756 312 756 312 756 67 c 0,23,24
 756 18 756 18 730 -18 c 128,-1,25
 704 -54 704 -54 680 -54 c 0,26,27
 630 -54 630 -54 630 27 c 2,28,-1
 622 889 l 1,29,-1
 622 993 l 1,30,31
 608 914 608 914 559 716.5 c 128,-1,32
 510 519 510 519 496 414 c 1,33,-1
 496 401 l 1,34,35
 494 393 494 393 490 363 c 128,-1,36
 486 333 486 333 481.5 313.5 c 128,-1,37
 477 294 477 294 468 270 c 0,38,39
 449 222 449 222 405 222 c 1,40,41
 332 222 332 222 332 413 c 0,42,43
 332 602 332 602 240 942 c 0,44,45
 194 1112 194 1112 181 1172 c 1,46,47
 177 1008 177 1008 177 925 c 1,48,-1
 194 83 l 2,49,50
 194 39 194 39 163 6 c 1,51,52
 110 6 110 6 91.5 40 c 128,-1,53
 73 74 73 74 73 132 c 1,54,-1
 83 464 l 1,0,-1
EndSplineSet
EndChar

StartChar: N
Encoding: 78 78 49
Width: 737
GlyphClass: 2
Flags: W
LayerCount: 2
Fore
SplineSet
67 1073 m 1,0,-1
 81 1449 l 1,1,-1
 81 1462 l 2,2,3
 81 1564 81 1564 126 1564 c 0,4,5
 167 1564 167 1564 236 1374 c 0,6,7
 362 1029 362 1029 538 235 c 1,8,-1
 540 225 l 1,9,-1
 548 939 l 1,10,-1
 548 1545 l 1,11,12
 560 1596 560 1596 615 1596 c 128,-1,13
 670 1596 670 1596 670 1516 c 2,14,-1
 670 1504 l 1,15,16
 658 1479 658 1479 658 1444 c 2,17,-1
 645 687 l 1,18,-1
 645 61 l 2,19,20
 645 30 645 30 628 0 c 128,-1,21
 611 -30 611 -30 586 -30 c 0,22,23
 543 -30 543 -30 418 391.5 c 128,-1,24
 293 813 293 813 171 1298 c 1,25,-1
 171 626 l 2,26,27
 171 528 171 528 185.5 334 c 128,-1,28
 200 140 200 140 200 42 c 0,29,30
 200 23 200 23 177 10.5 c 128,-1,31
 154 -2 154 -2 118.5 -2 c 128,-1,32
 83 -2 83 -2 83 30 c 1,33,-1
 93 177 l 1,34,35
 93 283 93 283 80 521 c 128,-1,36
 67 759 67 759 67 812 c 2,37,-1
 67 1073 l 1,0,-1
EndSplineSet
EndChar

StartChar: O
Encoding: 79 79 50
Width: 650
GlyphClass: 2
Flags: W
LayerCount: 2
Fore
SplineSet
582 618 m 1,0,-1
 564 359 l 1,1,-1
 564 350 l 1,2,3
 551 293 551 293 551 227 c 128,-1,4
 551 161 551 161 528 99.5 c 128,-1,5
 505 38 505 38 458 -9.5 c 128,-1,6
 411 -57 411 -57 355 -57 c 128,-1,7
 299 -57 299 -57 253 -19 c 128,-1,8
 207 19 207 19 177 78.5 c 128,-1,9
 147 138 147 138 124 220.5 c 128,-1,10
 101 303 101 303 88.5 381.5 c 128,-1,11
 76 460 76 460 68 547 c 0,12,13
 56 680 56 680 56.5 753.5 c 128,-1,14
 57 827 57 827 56 879.5 c 128,-1,15
 55 932 55 932 54 974 c 0,16,17
 54 995 54 995 54 1020.5 c 128,-1,18
 54 1046 54 1046 54 1075 c 0,19,20
 55 1134 55 1134 57.5 1181 c 128,-1,21
 60 1228 60 1228 66.5 1282.5 c 128,-1,22
 73 1337 73 1337 83 1378.5 c 128,-1,23
 93 1420 93 1420 110 1460.5 c 0,24,25
 128 1501 128 1501 150 1527 c 0,26,27
 200 1585 200 1585 265 1585 c 128,-1,28
 330 1585 330 1585 376 1561.5 c 128,-1,29
 422 1538 422 1538 453.5 1486 c 128,-1,30
 485 1434 485 1434 508.5 1385 c 128,-1,31
 532 1336 532 1336 545.5 1248.5 c 128,-1,32
 559 1161 559 1161 567 1107 c 0,33,34
 575 1052 575 1052 578 950 c 0,35,36
 582 813 582 813 582 736 c 2,37,-1
 582 618 l 1,0,-1
349.5 1448.5 m 128,-1,39
 319 1477 319 1477 289 1477 c 128,-1,40
 259 1477 259 1477 239.5 1456 c 128,-1,41
 220 1435 220 1435 206.5 1396.5 c 128,-1,42
 193 1358 193 1358 182.5 1314 c 128,-1,43
 172 1270 172 1270 166.5 1212.5 c 128,-1,44
 161 1155 161 1155 157 1108.5 c 0,45,46
 154 1062 154 1062 152 1006 c 0,47,48
 150 913 150 913 149 861 c 2,49,-1
 149 852 l 2,50,51
 149 715 149 715 170 556.5 c 128,-1,52
 191 398 191 398 213.5 297 c 128,-1,53
 236 196 236 196 274 125.5 c 128,-1,54
 312 55 312 55 359 55 c 0,55,56
 400 55 400 55 428.5 132 c 0,57,58
 456 210 456 210 468 324 c 0,59,60
 488 528 488 528 488.5 610.5 c 128,-1,61
 489 693 489 693 488.5 731 c 128,-1,62
 488 769 488 769 485.5 841.5 c 128,-1,63
 483 914 483 914 477 977.5 c 128,-1,64
 471 1041 471 1041 461.5 1118 c 128,-1,65
 452 1195 452 1195 436.5 1255 c 128,-1,66
 421 1315 421 1315 400.5 1367.5 c 128,-1,38
 380 1420 380 1420 349.5 1448.5 c 128,-1,39
EndSplineSet
EndChar

StartChar: P
Encoding: 80 80 51
Width: 495
GlyphClass: 2
Flags: W
LayerCount: 2
Fore
SplineSet
86 58 m 2,0,-1
 96 789 l 1,1,2
 96 1271 96 1271 43 1520 c 1,3,4
 75 1566 75 1566 122 1566 c 0,5,6
 198 1566 198 1566 260.5 1532 c 128,-1,7
 323 1498 323 1498 362 1442 c 0,8,9
 443 1325 443 1325 443 1175 c 128,-1,10
 443 1025 443 1025 378 902.5 c 128,-1,11
 313 780 313 780 187 712 c 1,12,13
 203 74 l 1,14,15
 203 -11 203 -11 135 -11 c 0,16,17
 110 -11 110 -11 98 10.5 c 128,-1,18
 86 32 86 32 86 58 c 2,0,-1
182 811 m 1,19,20
 338 957 338 957 338 1158 c 2,21,-1
 338 1159 l 2,22,23
 338 1274 338 1274 310 1320 c 0,24,25
 296 1342 296 1342 287.5 1354.5 c 128,-1,26
 279 1367 279 1367 253 1388 c 0,27,28
 222 1413 222 1413 158 1459 c 1,29,30
 158 1351 158 1351 170 1135 c 128,-1,31
 182 919 182 919 182 811 c 1,19,20
EndSplineSet
EndChar

StartChar: Q
Encoding: 81 81 52
Width: 676
GlyphClass: 2
Flags: W
LayerCount: 2
Fore
SplineSet
481 831 m 1,0,1
 482 872 482 872 482 911 c 0,2,3
 482 1474 482 1474 273 1474 c 0,4,5
 236 1474 236 1474 210.5 1368.5 c 0,6,7
 184 1263 184 1263 174 1104 c 0,8,9
 156 839 156 839 156.5 724.5 c 128,-1,10
 157 610 157 610 159 565 c 128,-1,11
 161 520 161 520 167 450.5 c 128,-1,12
 173 381 173 381 186.5 322 c 128,-1,13
 200 263 200 263 219.5 207.5 c 128,-1,14
 239 152 239 152 272.5 118 c 128,-1,15
 306 84 306 84 348 80 c 1,16,-1
 348 82 l 1,17,18
 363 108 363 108 404 108 c 1,19,-1
 404 107 l 1,20,21
 481 178 481 178 481 327 c 2,22,-1
 481 831 l 1,0,1
64 1052 m 1,23,24
 64 1576 64 1576 290 1576 c 0,25,26
 404 1576 404 1576 470 1494 c 0,27,28
 534 1412 534 1412 560 1288 c 0,29,30
 588 1149 588 1149 590.5 1050 c 0,31,32
 592 951 592 951 594 883 c 0,33,34
 595 849 595 849 595 816 c 0,35,36
 594 784 594 784 594 752 c 0,37,38
 592 688 592 688 593 659 c 2,39,-1
 593 567 l 2,40,41
 593 394 593 394 571 289 c 128,-1,42
 549 184 549 184 467 70 c 1,43,44
 469 62 469 62 474.5 29 c 128,-1,45
 480 -4 480 -4 486 -34 c 128,-1,46
 492 -64 492 -64 502 -96 c 0,47,48
 523 -169 523 -169 554 -169 c 2,49,-1
 562 -169 l 2,50,51
 626 -169 626 -169 638 -185.5 c 128,-1,52
 650 -202 650 -202 650 -219 c 0,53,54
 650 -282 650 -282 559 -282 c 0,55,56
 524 -282 524 -282 474 -253 c 1,57,-1
 474 -252 l 1,58,59
 418 -226 418 -226 396 -161 c 0,60,61
 379 -110 379 -110 371.5 -54 c 128,-1,62
 364 2 364 2 360 20 c 1,63,-1
 276 20 l 1,64,65
 81 150 81 150 60 446 c 0,66,67
 56 502 56 502 56 574 c 1,68,-1
 66 908 l 1,69,-1
 64 1052 l 1,23,24
EndSplineSet
EndChar

StartChar: R
Encoding: 82 82 53
Width: 548
GlyphClass: 2
Flags: W
LayerCount: 2
Fore
SplineSet
78 60 m 1,0,-1
 86 1261 l 1,1,-1
 86 1513 l 2,2,3
 86 1537 86 1537 96 1547 c 128,-1,4
 106 1557 106 1557 148.5 1557 c 128,-1,5
 191 1557 191 1557 234.5 1536.5 c 128,-1,6
 278 1516 278 1516 307.5 1481.5 c 0,7,8
 337 1446 337 1446 358 1402 c 0,9,10
 398 1317 398 1317 398 1217 c 128,-1,11
 398 1117 398 1117 348 988 c 0,12,13
 342 974 342 974 324 929 c 128,-1,14
 306 884 306 884 303 876 c 1,15,16
 304 724 304 724 380 481 c 0,17,18
 406 399 406 399 454 256.5 c 128,-1,19
 502 114 502 114 514 76 c 1,20,-1
 514 71 l 2,21,22
 514 2 514 2 498 -9.5 c 128,-1,23
 482 -21 482 -21 464 -21 c 0,24,25
 426 -21 426 -21 390 34 c 1,26,-1
 390 41 l 1,27,28
 380 227 380 227 262 604 c 0,29,30
 208 776 208 776 187 859 c 1,31,-1
 187 52 l 2,32,33
 187 21 187 21 176 4 c 128,-1,34
 165 -13 165 -13 136 -13 c 128,-1,35
 107 -13 107 -13 92.5 3.5 c 128,-1,36
 78 20 78 20 78 44 c 2,37,-1
 78 60 l 1,0,-1
191 1463 m 1,38,-1
 180 1045 l 1,39,40
 180 982 180 982 182 951 c 1,41,42
 217 984 217 984 251 1030 c 1,43,-1
 283 1207 l 2,44,45
 286 1221 286 1221 286 1239 c 0,46,47
 286 1288 286 1288 266 1358 c 0,48,49
 238 1454 238 1454 191 1463 c 1,38,-1
EndSplineSet
EndChar

StartChar: S
Encoding: 83 83 54
Width: 523
GlyphClass: 2
Flags: W
LayerCount: 2
Fore
SplineSet
38 24 m 0,0,1
 38 79 38 79 84 79 c 0,2,3
 107 79 107 79 144.5 63.5 c 128,-1,4
 182 48 182 48 209.5 48 c 128,-1,5
 237 48 237 48 269 83 c 128,-1,6
 301 118 301 118 319 170 c 0,7,8
 356 276 356 276 356 361.5 c 128,-1,9
 356 447 356 447 326 545 c 128,-1,10
 296 643 296 643 253 729 c 128,-1,11
 210 815 210 815 166 901 c 0,12,13
 62 1106 62 1106 63 1275 c 0,14,15
 62 1435 62 1435 164 1526 c 0,16,17
 218 1574 218 1574 291 1574 c 0,18,19
 328 1574 328 1574 363 1553.5 c 128,-1,20
 398 1533 398 1533 412 1500 c 1,21,-1
 377 1456 l 1,22,23
 326 1456 326 1456 297 1476 c 1,24,25
 259 1472 259 1472 231 1440 c 0,26,27
 180 1381 180 1381 180 1294.5 c 128,-1,28
 180 1208 180 1208 202 1126 c 128,-1,29
 224 1044 224 1044 257 979 c 128,-1,30
 290 914 290 914 328.5 837.5 c 0,31,32
 367 762 367 762 400 692 c 0,33,34
 477 530 477 530 477 342 c 0,35,36
 478 210 478 210 410 88 c 0,37,38
 378 30 378 30 322 -7.5 c 128,-1,39
 266 -45 266 -45 197 -45 c 0,40,41
 123 -45 123 -45 80.5 -23 c 128,-1,42
 38 -1 38 -1 38 24 c 0,0,1
EndSplineSet
EndChar

StartChar: T
Encoding: 84 84 55
Width: 492
GlyphClass: 2
Flags: W
LayerCount: 2
Fore
SplineSet
321 1189 m 1,0,-1
 317 925 l 1,1,-1
 335 454 l 1,2,-1
 352 86 l 1,3,4
 352 -14 352 -14 293 -14 c 0,5,6
 259 -14 259 -14 243 18 c 128,-1,7
 227 50 227 50 227 89 c 1,8,-1
 243 416 l 1,9,10
 243 522 243 522 229 735 c 128,-1,11
 215 948 215 948 215 1054 c 1,12,-1
 218 1233 l 1,13,14
 218 1380 218 1380 199 1424 c 1,15,-1
 88 1413 l 1,16,17
 62 1413 62 1413 41.5 1428.5 c 128,-1,18
 21 1444 21 1444 21 1468.5 c 128,-1,19
 21 1493 21 1493 70 1510.5 c 0,20,21
 120 1528 120 1528 190 1536 c 0,22,23
 313 1550 313 1550 397 1550 c 0,24,25
 422 1550 422 1550 442.5 1533.5 c 128,-1,26
 463 1517 463 1517 463 1492 c 128,-1,27
 463 1467 463 1467 445 1452.5 c 128,-1,28
 427 1438 427 1438 401 1438 c 1,29,-1
 328 1442 l 2,30,31
 314 1442 314 1442 307 1441 c 1,32,33
 321 1323 321 1323 321 1189 c 1,0,-1
EndSplineSet
EndChar

StartChar: U
Encoding: 85 85 56
Width: 699
GlyphClass: 2
Flags: W
LayerCount: 2
Fore
SplineSet
52 1115 m 1,0,-1
 54 1435 l 1,1,2
 39 1452 39 1452 39 1477 c 128,-1,3
 39 1502 39 1502 56.5 1521 c 128,-1,4
 74 1540 74 1540 98 1540 c 0,5,6
 172 1540 172 1540 172 1394 c 1,7,-1
 191 682 l 1,8,9
 203 655 203 655 211.5 573 c 128,-1,10
 220 491 220 491 220 445.5 c 128,-1,11
 220 400 220 400 234.5 333.5 c 128,-1,12
 249 267 249 267 274.5 199 c 128,-1,13
 300 131 300 131 343.5 83 c 128,-1,14
 387 35 387 35 426 35 c 128,-1,15
 465 35 465 35 484 53.5 c 128,-1,16
 503 72 503 72 510 106 c 0,17,18
 521 160 521 160 521 219 c 2,19,-1
 521 619 l 2,20,21
 521 684 521 684 508 812 c 128,-1,22
 495 940 495 940 495 1005 c 2,23,-1
 495 1019 l 1,24,-1
 491 1138 l 1,25,-1
 476 1489 l 1,26,27
 476 1514 476 1514 501 1529.5 c 128,-1,28
 526 1545 526 1545 553 1545 c 1,29,-1
 603 1497 l 1,30,-1
 603 1463 l 1,31,-1
 588 1338 l 1,32,33
 588 1167 588 1167 606.5 823 c 128,-1,34
 625 479 625 479 625 357.5 c 128,-1,35
 625 236 625 236 621.5 195.5 c 128,-1,36
 618 155 618 155 606 109 c 128,-1,37
 594 63 594 63 573 33 c 0,38,39
 524 -37 524 -37 423 -37 c 0,40,41
 298 -38 298 -38 222 72 c 0,42,43
 142 188 142 188 110 350 c 0,44,45
 72 541 72 541 64 685 c 0,46,47
 52 902 52 902 52 1115 c 1,0,-1
EndSplineSet
EndChar

StartChar: V
Encoding: 86 86 57
Width: 620
GlyphClass: 2
Flags: W
LayerCount: 2
Fore
SplineSet
88 1563 m 0,0,1
 144 1563 144 1563 277 702 c 0,2,3
 329 365 329 365 334 339 c 1,4,5
 348 454 348 454 384 708 c 0,6,7
 460 1232 460 1232 459 1528 c 1,8,9
 491 1569 491 1569 534 1569 c 1,10,-1
 577 1546 l 1,11,12
 572 1511 572 1511 555 1347 c 128,-1,13
 538 1183 538 1183 523 1053 c 128,-1,14
 508 923 508 923 494 807.5 c 128,-1,15
 480 692 480 692 463.5 563.5 c 128,-1,16
 447 435 447 435 432 332.5 c 128,-1,17
 417 230 417 230 402 145 c 0,18,19
 370 -34 370 -34 350 -34 c 1,20,21
 321 -34 321 -34 302 -12 c 1,22,23
 252 194 252 194 156 787.5 c 128,-1,24
 60 1381 60 1381 31 1523 c 1,25,26
 43 1563 43 1563 88 1563 c 0,0,1
EndSplineSet
EndChar

StartChar: W
Encoding: 87 87 58
Width: 901
GlyphClass: 2
Flags: W
LayerCount: 2
Fore
SplineSet
697 43 m 0,0,1
 697 12 697 12 681.5 -8 c 128,-1,2
 666 -28 666 -28 636 -28 c 0,3,4
 562 -28 562 -28 450 759 c 0,5,6
 434 875 434 875 430 893 c 1,7,8
 392 620 392 620 372 421.5 c 128,-1,9
 352 223 352 223 352 28 c 0,10,11
 352 6 352 6 333.5 -11.5 c 128,-1,12
 315 -29 315 -29 293 -29 c 0,13,14
 218 -29 218 -29 218 127 c 0,15,16
 218 223 218 223 133.5 828.5 c 128,-1,17
 49 1434 49 1434 26 1491 c 1,18,19
 52 1540 52 1540 99 1540 c 128,-1,20
 146 1540 146 1540 184.5 1327 c 128,-1,21
 223 1114 223 1114 250.5 810.5 c 128,-1,22
 278 507 278 507 279 503 c 1,23,24
 282 531 282 531 299.5 675.5 c 128,-1,25
 317 820 317 820 327 908 c 0,26,27
 357 1174 357 1174 357 1286 c 2,28,-1
 357 1325 l 2,29,30
 357 1347 357 1347 373.5 1367.5 c 128,-1,31
 390 1388 390 1388 411 1388 c 0,32,33
 484 1388 484 1388 484 1328 c 2,34,-1
 484 1297 l 2,35,36
 484 1099 484 1099 576 724 c 0,37,38
 616 560 616 560 633 461 c 1,39,40
 644 574 644 574 673 788 c 0,41,42
 736 1254 736 1254 736 1506 c 0,43,44
 736 1551 736 1551 751 1571.5 c 128,-1,45
 766 1592 766 1592 800 1592 c 128,-1,46
 834 1592 834 1592 853.5 1576 c 128,-1,47
 873 1560 873 1560 873 1535 c 128,-1,48
 873 1510 873 1510 852 1489 c 1,49,50
 852 1191 852 1191 774.5 766.5 c 128,-1,51
 697 342 697 342 697 43 c 0,0,1
EndSplineSet
EndChar

StartChar: X
Encoding: 88 88 59
Width: 520
GlyphClass: 2
Flags: W
LayerCount: 2
Fore
SplineSet
410 24 m 0,0,1
 350 24 350 24 350 73 c 0,2,3
 350 179 350 179 332 262 c 128,-1,4
 314 345 314 345 293.5 427.5 c 128,-1,5
 273 510 273 510 267 538 c 1,6,7
 262 517 262 517 250 444 c 128,-1,8
 238 371 238 371 224.5 299.5 c 0,9,10
 210 228 210 228 192 154 c 0,11,12
 151 -12 151 -12 93 -13 c 1,13,14
 73 -13 73 -13 55.5 0 c 128,-1,15
 38 13 38 13 38 33 c 0,16,17
 38 111 38 111 81 263 c 128,-1,18
 124 415 124 415 167 572.5 c 128,-1,19
 210 730 210 730 210 812 c 128,-1,20
 210 894 210 894 189.5 986.5 c 0,21,22
 168 1080 168 1080 144 1152 c 0,23,24
 78 1346 78 1346 79 1473 c 2,25,-1
 79 1478 l 1,26,27
 98 1520 98 1520 127.5 1520 c 128,-1,28
 157 1520 157 1520 177.5 1485 c 128,-1,29
 198 1450 198 1450 214 1390.5 c 128,-1,30
 230 1331 230 1331 241 1278.5 c 128,-1,31
 252 1226 252 1226 262.5 1163 c 128,-1,32
 273 1100 273 1100 276 1087 c 1,33,34
 280 1097 280 1097 302 1229 c 0,35,36
 357 1550 357 1550 418 1550 c 1,37,38
 441 1550 441 1550 460 1538 c 128,-1,39
 479 1526 479 1526 479 1490.5 c 128,-1,40
 479 1455 479 1455 402.5 1160.5 c 128,-1,41
 326 866 326 866 326 796 c 0,42,43
 326 772 326 772 378 516 c 128,-1,44
 430 260 430 260 432 248 c 1,45,-1
 432 236 l 1,46,47
 434 211 434 211 450 160 c 128,-1,48
 466 109 466 109 466 83.5 c 128,-1,49
 466 58 466 58 449 41 c 128,-1,50
 432 24 432 24 410 24 c 0,0,1
EndSplineSet
EndChar

StartChar: Y
Encoding: 89 89 60
Width: 453
GlyphClass: 2
Flags: W
LayerCount: 2
Fore
SplineSet
212 25 m 2,0,-1
 222 421 l 1,1,2
 222 481 222 481 202.5 598.5 c 128,-1,3
 183 716 183 716 183 787.5 c 128,-1,4
 183 859 183 859 158.5 961.5 c 128,-1,5
 134 1064 134 1064 104 1146 c 0,6,7
 25 1361 25 1361 25 1513 c 0,8,9
 25 1528 25 1528 42.5 1538.5 c 128,-1,10
 60 1549 60 1549 79 1549 c 128,-1,11
 98 1549 98 1549 119.5 1502 c 128,-1,12
 141 1455 141 1455 159 1382 c 128,-1,13
 177 1309 177 1309 192.5 1236 c 128,-1,14
 208 1163 208 1163 221 1094.5 c 128,-1,15
 234 1026 234 1026 240 1006 c 1,16,17
 244 1024 244 1024 249.5 1091.5 c 128,-1,18
 255 1159 255 1159 262.5 1230 c 0,19,20
 270 1302 270 1302 282 1374 c 0,21,22
 309 1539 309 1539 363.5 1539 c 128,-1,23
 418 1539 418 1539 418 1517 c 0,24,25
 418 1402 418 1402 369 1174 c 128,-1,26
 320 946 320 946 320 828 c 1,27,-1
 314 757 l 1,28,-1
 314 726 l 1,29,-1
 325 183 l 1,30,-1
 332 81 l 1,31,-1
 332 35 l 2,32,33
 332 8 332 8 311.5 -8.5 c 128,-1,34
 291 -25 291 -25 267 -25 c 128,-1,35
 243 -25 243 -25 227.5 -10.5 c 128,-1,36
 212 4 212 4 212 25 c 2,0,-1
EndSplineSet
EndChar

StartChar: Z
Encoding: 90 90 61
Width: 429
GlyphClass: 2
Flags: W
LayerCount: 2
Fore
SplineSet
139 1543 m 1,0,-1
 332 1564 l 1,1,2
 356 1564 356 1564 372 1546.5 c 128,-1,3
 388 1529 388 1529 388 1505 c 0,4,5
 388 969 388 969 161 85 c 1,6,-1
 269 93 l 1,7,8
 377 93 377 93 377 30 c 2,9,-1
 377 21 l 1,10,-1
 345 -11 l 1,11,-1
 92 -19 l 1,12,13
 53 -19 53 -19 34 31 c 1,14,15
 81 106 81 106 139.5 420.5 c 128,-1,16
 198 735 198 735 235.5 1028 c 128,-1,17
 273 1321 273 1321 281 1451 c 1,18,19
 211 1441 211 1441 164 1441 c 0,20,21
 53 1441 53 1441 53 1506 c 2,22,-1
 53 1515 l 1,23,-1
 81 1549 l 1,24,-1
 81 1550 l 1,25,26
 108 1543 108 1543 139 1543 c 1,0,-1
EndSplineSet
EndChar

StartChar: bracketleft
Encoding: 91 91 62
Width: 467
GlyphClass: 2
Flags: W
LayerCount: 2
Fore
SplineSet
385 1465 m 1,0,-1
 270 1478 l 1,1,2
 232 1478 232 1478 232 1458 c 0,3,4
 232 1220 232 1220 192 746.5 c 128,-1,5
 152 273 152 273 152 48 c 2,6,-1
 152 6 l 1,7,-1
 173 6 l 2,8,9
 355 6 355 6 355 -68 c 0,10,11
 355 -112 355 -112 289 -112 c 0,12,13
 42 -112 42 -112 42 -35 c 0,14,15
 42 49 42 49 63.5 217.5 c 128,-1,16
 85 386 85 386 85 512.5 c 128,-1,17
 85 639 85 639 111.5 975 c 128,-1,18
 138 1311 138 1311 138 1480 c 1,19,20
 136 1519 l 1,21,22
 136 1542 136 1542 144 1554.5 c 128,-1,23
 152 1567 152 1567 177 1577 c 1,24,-1
 255 1577 l 2,25,26
 373 1576 373 1576 419 1546 c 0,27,28
 441 1532 441 1532 441 1511 c 128,-1,29
 441 1490 441 1490 423.5 1477.5 c 128,-1,30
 406 1465 406 1465 385 1465 c 1,0,-1
EndSplineSet
EndChar

StartChar: backslash
Encoding: 92 92 63
Width: 511
GlyphClass: 2
Flags: W
LayerCount: 2
Fore
SplineSet
433 310.5 m 128,-1,1
 477 71 477 71 477 34.5 c 128,-1,2
 477 -2 477 -2 431 -30 c 1,3,-1
 431 -31 l 1,4,5
 397 -31 397 -31 352 89 c 128,-1,6
 307 209 307 209 263.5 397.5 c 128,-1,7
 220 586 220 586 184 763.5 c 128,-1,8
 148 941 148 941 116 1112 c 128,-1,9
 84 1283 84 1283 78.5 1308 c 0,10,11
 74 1333 74 1333 62 1372 c 0,12,13
 36 1458 36 1458 36 1492.5 c 128,-1,14
 36 1527 36 1527 52.5 1541 c 128,-1,15
 69 1555 69 1555 91 1555 c 0,16,17
 132 1555 132 1555 201 1331 c 128,-1,18
 270 1107 270 1107 329.5 828.5 c 128,-1,0
 389 550 389 550 433 310.5 c 128,-1,1
EndSplineSet
EndChar

StartChar: bracketright
Encoding: 93 93 64
Width: 472
GlyphClass: 2
Flags: W
LayerCount: 2
Fore
SplineSet
225 1577 m 1,0,-1
 267 1578 l 2,1,2
 307 1578 307 1578 321.5 1560.5 c 128,-1,3
 336 1543 336 1543 336 1430.5 c 128,-1,4
 336 1318 336 1318 364 995 c 128,-1,5
 392 672 392 672 392 545 c 128,-1,6
 392 418 392 418 412.5 237 c 128,-1,7
 433 56 433 56 433 -35 c 0,8,9
 433 -112 433 -112 185 -112 c 0,10,11
 118 -112 118 -112 118 -68 c 0,12,13
 118 6 118 6 300 6 c 2,14,-1
 321 6 l 1,15,-1
 321 48 l 1,16,17
 315 252 315 252 277.5 726.5 c 128,-1,18
 240 1201 240 1201 240 1458 c 2,19,-1
 240 1476 l 1,20,-1
 106 1465 l 1,21,22
 32 1465 32 1465 32 1511 c 0,23,24
 32 1577 32 1577 225 1577 c 1,0,-1
EndSplineSet
EndChar

StartChar: asciicircum
Encoding: 94 94 65
Width: 280
GlyphClass: 2
Flags: W
LayerCount: 2
Fore
SplineSet
94.5 1530.5 m 128,-1,1
 73 1546 73 1546 73 1576 c 128,-1,2
 73 1606 73 1606 89.5 1631 c 128,-1,3
 106 1656 106 1656 136 1656 c 128,-1,4
 166 1656 166 1656 188 1634.5 c 128,-1,5
 210 1613 210 1613 210 1584 c 128,-1,6
 210 1555 210 1555 192 1535 c 128,-1,7
 174 1515 174 1515 145 1515 c 128,-1,0
 116 1515 116 1515 94.5 1530.5 c 128,-1,1
EndSplineSet
EndChar

StartChar: underscore
Encoding: 95 95 66
Width: 844
GlyphClass: 2
Flags: W
LayerCount: 2
Fore
SplineSet
703 0 m 1,0,-1
 800 2 l 1,1,2
 850 2 850 2 850 -36 c 0,3,4
 850 -53 850 -53 834 -67.5 c 128,-1,5
 818 -82 818 -82 775.5 -82 c 128,-1,6
 733 -82 733 -82 705 -84 c 1,7,-1
 73 -94 l 2,8,9
 41 -94 41 -94 17.5 -80 c 128,-1,10
 -6 -66 -6 -66 -6 -47.5 c 128,-1,11
 -6 -29 -6 -29 8.5 -14.5 c 128,-1,12
 23 0 23 0 44 0 c 2,13,-1
 703 0 l 1,0,-1
EndSplineSet
EndChar

StartChar: grave
Encoding: 96 96 67
Width: 506
GlyphClass: 2
Flags: W
LayerCount: 2
Fore
SplineSet
69.5 1723.5 m 128,-1,1
 91 1752 91 1752 113 1752 c 128,-1,2
 135 1752 135 1752 288 1668 c 128,-1,3
 441 1584 441 1584 441 1557 c 0,4,5
 441 1543 441 1543 416.5 1543 c 128,-1,6
 392 1543 392 1543 220 1598.5 c 128,-1,7
 48 1654 48 1654 48 1672 c 0,8,0
 48 1695 48 1695 69.5 1723.5 c 128,-1,1
EndSplineSet
EndChar

StartChar: a
Encoding: 97 97 68
Width: 621
GlyphClass: 2
Flags: W
LayerCount: 2
Fore
SplineSet
411 375 m 1,0,1
 405 405 405 405 405 479.5 c 128,-1,2
 405 554 405 554 396.5 664.5 c 128,-1,3
 388 775 388 775 372 921.5 c 128,-1,4
 356 1068 356 1068 350 1134 c 1,5,6
 257 619 257 619 230 408 c 1,7,8
 265 385 265 385 411 375 c 1,0,1
518 416 m 1,9,-1
 540 290 l 1,10,11
 540 265 540 265 559.5 168 c 128,-1,12
 579 71 579 71 579 41 c 2,13,-1
 579 39 l 2,14,15
 579 -6 579 -6 545 -19 c 1,16,17
 502 -19 502 -19 478 -5 c 128,-1,18
 454 9 454 9 454 49 c 0,19,20
 454 136 454 136 424 302 c 1,21,-1
 222 332 l 1,22,23
 203 264 203 264 193 183 c 128,-1,24
 183 102 183 102 174 65 c 0,25,26
 156 -11 156 -11 107 -11 c 0,27,28
 83 -11 83 -11 62.5 4.5 c 128,-1,29
 42 20 42 20 42 44 c 1,30,-1
 47 62 l 1,31,32
 185 595 185 595 252 1100 c 0,33,34
 254 1114 254 1114 258 1182 c 0,35,36
 268 1332 268 1332 296 1373 c 1,37,-1
 365 1373 l 2,38,39
 393 1373 393 1373 414 1360 c 128,-1,40
 435 1347 435 1347 435 1321 c 0,41,42
 435 1165 435 1165 476.5 858 c 128,-1,43
 518 551 518 551 518 416 c 1,9,-1
EndSplineSet
EndChar

StartChar: b
Encoding: 98 98 69
Width: 491
GlyphClass: 2
Flags: W
LayerCount: 2
Fore
SplineSet
194 1068 m 2,0,1
 194 763 l 1,2,3
 302 766 302 766 302 1022 c 128,-1,4
 302 1278 302 1278 218 1288 c 1,5,6
 194 1236 194 1236 194 1068 c 2,0,1
181 186 m 1,7,-1
 183 176 l 1,8,-1
 183 84 l 1,9,10
 252 100 252 100 286.5 165.5 c 128,-1,11
 321 231 321 231 321 287.5 c 128,-1,12
 321 344 321 344 319.5 377 c 128,-1,13
 318 410 318 410 310.5 458 c 0,14,15
 302 506 302 506 290 542 c 0,16,17
 260 630 260 630 197 643 c 1,18,19
 188 511 188 511 188 333 c 1,20,-1
 181 186 l 1,7,-1
94 1173 m 1,21,-1
 83 1279 l 1,22,-1
 83 1290 l 2,23,24
 83 1333 83 1333 96.5 1358 c 128,-1,25
 110 1383 110 1383 165.5 1383 c 128,-1,26
 221 1383 221 1383 274 1354 c 128,-1,27
 327 1325 327 1325 358 1274 c 0,28,29
 419 1174 419 1174 419 1046 c 128,-1,30
 419 918 419 918 400 843.5 c 128,-1,31
 381 769 381 769 336 705 c 1,32,33
 416 628 416 628 428 452 c 0,34,35
 430 412 430 412 430.5 356 c 128,-1,36
 431 300 431 300 421 246 c 128,-1,37
 411 192 411 192 388 143 c 0,38,39
 364 94 364 94 330 58 c 0,40,41
 255 -20 255 -20 129 -20 c 0,42,43
 86 -20 86 -20 74 18 c 0,44,45
 66 47 66 47 65 88 c 1,46,-1
 85 524 l 1,47,-1
 94 1173 l 1,21,-1
EndSplineSet
EndChar

StartChar: c
Encoding: 99 99 70
Width: 505
GlyphClass: 2
Flags: W
LayerCount: 2
Fore
SplineSet
47 495 m 1,0,-1
 46 615 l 1,1,-1
 46 664 l 2,2,3
 46 966 46 966 76 1084 c 0,4,5
 112 1230 112 1230 176 1286 c 0,6,7
 263 1364 263 1364 396 1364 c 0,8,9
 428 1364 428 1364 443.5 1349 c 128,-1,10
 459 1334 459 1334 459 1313 c 128,-1,11
 459 1292 459 1292 446.5 1275.5 c 128,-1,12
 434 1259 434 1259 415 1258 c 1,13,-1
 319 1258 l 2,14,15
 277 1258 277 1258 246.5 1204.5 c 0,16,17
 216 1150 216 1150 202 1072 c 0,18,19
 176 924 176 924 177 827 c 2,20,-1
 177 817 l 1,21,-1
 168 422 l 1,22,23
 168 297 168 297 181.5 249 c 128,-1,24
 195 201 195 201 209.5 171.5 c 128,-1,25
 224 142 224 142 244 123 c 0,26,27
 290 79 290 79 362 79 c 0,28,29
 386 79 386 79 406 97 c 1,30,31
 430 97 430 97 449 86 c 128,-1,32
 468 75 468 75 468 52 c 0,33,34
 468 -29 468 -29 355 -29 c 0,35,36
 309 -29 309 -29 258.5 -15.5 c 128,-1,37
 208 -2 208 -2 183 14 c 0,38,39
 47 102 47 102 47 495 c 1,0,-1
EndSplineSet
EndChar

StartChar: d
Encoding: 100 100 71
Width: 610
GlyphClass: 2
Flags: W
LayerCount: 2
Fore
SplineSet
73 256 m 1,0,-1
 79 901 l 2,1,2
 79 967 79 967 67 1102.5 c 128,-1,3
 55 1238 55 1238 55 1275 c 128,-1,4
 55 1312 55 1312 78 1332.5 c 128,-1,5
 101 1353 101 1353 127 1353 c 0,6,7
 338 1353 338 1353 470 1106 c 0,8,9
 546 965 546 965 546 808 c 1,10,-1
 542 705 l 1,11,-1
 542 592 l 2,12,13
 542 386 542 386 523.5 317 c 128,-1,14
 505 248 505 248 485 202 c 128,-1,15
 465 156 465 156 437 120 c 0,16,17
 372 38 372 38 273 -12 c 1,18,-1
 125 -12 l 2,19,20
 73 -12 73 -12 73 256 c 1,0,-1
216 141 m 2,21,-1
 216 92 l 1,22,23
 394 92 394 92 430 452 c 0,24,25
 438 535 438 535 438 612 c 0,26,27
 438 1230 438 1230 200 1258 c 1,28,29
 185 1177 185 1177 185 1035.5 c 128,-1,30
 185 894 185 894 200.5 593 c 128,-1,31
 216 292 216 292 216 141 c 2,21,-1
EndSplineSet
EndChar

StartChar: e
Encoding: 101 101 72
Width: 455
GlyphClass: 2
Flags: W
LayerCount: 2
Fore
SplineSet
86 1034 m 1,0,-1
 75 1207 l 1,1,2
 75 1352 75 1352 161 1352 c 0,3,4
 216 1352 216 1352 311 1326.5 c 128,-1,5
 406 1301 406 1301 406 1261 c 0,6,7
 406 1219 406 1219 346 1197 c 1,8,9
 251 1229 251 1229 191 1236 c 1,10,11
 194 1192 194 1192 194 1148 c 1,12,-1
 185 854 l 2,13,14
 185 852 185 852 191 822 c 1,15,-1
 264 825 l 1,16,17
 363 825 363 825 363 769 c 0,18,19
 363 747 363 747 345 730.5 c 128,-1,20
 327 714 327 714 299.5 714 c 128,-1,21
 272 714 272 714 240 718 c 1,22,-1
 188 718 l 1,23,24
 194 640 194 640 194 563 c 1,25,26
 185 192 l 1,27,28
 185 77 185 77 189 77 c 2,29,-1
 340 82 l 1,30,31
 418 82 418 82 418 32 c 0,32,33
 418 1 418 1 391 -13 c 128,-1,34
 364 -27 364 -27 330 -27 c 2,35,-1
 157 -27 l 2,36,37
 130 -27 130 -27 108 -8.5 c 128,-1,38
 86 10 86 10 85 36 c 1,39,-1
 85 90 l 1,40,-1
 72 436 l 1,41,-1
 86 1034 l 1,0,-1
EndSplineSet
EndChar

StartChar: f
Encoding: 102 102 73
Width: 483
GlyphClass: 2
Flags: W
LayerCount: 2
Fore
SplineSet
220 1219 m 1,0,-1
 201 808 l 1,1,-1
 201 753 l 1,2,-1
 239 754 l 1,3,4
 338 754 338 754 338 700 c 0,5,6
 338 673 338 673 316 656.5 c 128,-1,7
 294 640 294 640 258.5 640 c 128,-1,8
 223 640 223 640 185 652 c 1,9,-1
 185 72 l 2,10,11
 185 -18 185 -18 132 -18 c 0,12,13
 100 -18 100 -18 59 13 c 1,14,15
 76 196 76 196 84.5 533.5 c 128,-1,16
 93 871 93 871 99 975 c 1,17,-1
 99 1025 l 1,18,19
 107 1174 107 1174 107 1303 c 0,20,21
 107 1332 107 1332 131.5 1348 c 128,-1,22
 156 1364 156 1364 186.5 1364 c 128,-1,23
 217 1364 217 1364 252.5 1361.5 c 0,24,25
 288 1360 288 1360 339 1352 c 0,26,27
 455 1335 455 1335 455 1281 c 0,28,29
 455 1223 455 1223 351 1223 c 1,30,31
 310 1243 310 1243 244 1243 c 2,32,-1
 220 1243 l 1,33,-1
 220 1219 l 1,0,-1
EndSplineSet
EndChar

StartChar: g
Encoding: 103 103 74
Width: 638
GlyphClass: 2
Flags: W
LayerCount: 2
Fore
SplineSet
563 411 m 1,0,-1
 573 194 l 1,1,2
 573 93 573 93 502.5 38.5 c 128,-1,3
 432 -16 432 -16 338 -16 c 0,4,5
 196 -16 196 -16 132 90 c 0,6,7
 86 165 86 165 74 231.5 c 128,-1,8
 62 298 62 298 57 334 c 128,-1,9
 52 370 52 370 50 431 c 0,10,11
 46 516 46 516 46 568 c 2,12,-1
 46 656 l 2,13,14
 46 945 46 945 63 1021.5 c 128,-1,15
 80 1098 80 1098 102 1164 c 128,-1,16
 124 1230 124 1230 156 1266 c 0,17,18
 233 1354 233 1354 334 1354 c 128,-1,19
 435 1354 435 1354 435 1302 c 0,20,21
 435 1278 435 1278 415 1262.5 c 128,-1,22
 395 1247 395 1247 370 1247 c 1,23,-1
 327 1252 l 1,24,25
 256 1252 256 1252 220 1112 c 0,26,27
 168 912 168 912 168 629 c 0,28,29
 168 436 168 436 180.5 363.5 c 128,-1,30
 193 291 193 291 207.5 242 c 0,31,32
 222 192 222 192 242 162 c 0,33,34
 289 91 289 91 363 91 c 0,35,36
 462 91 462 91 462 417 c 2,37,-1
 462 511 l 1,38,39
 447 519 447 519 414 519 c 2,40,-1
 374 518 l 1,41,42
 303 518 303 518 303 565 c 0,43,44
 303 594 303 594 323.5 609 c 128,-1,45
 344 624 344 624 373 624 c 1,46,-1
 373 623 l 1,47,-1
 401 623 l 2,48,49
 585 623 585 623 585 560 c 1,50,-1
 563 411 l 1,0,-1
EndSplineSet
EndChar

StartChar: h
Encoding: 104 104 75
Width: 571
GlyphClass: 2
Flags: W
LayerCount: 2
Fore
SplineSet
191 1233 m 1,0,-1
 183 722 l 1,1,2
 220 712 220 712 295 712 c 2,3,-1
 369 712 l 1,4,5
 374 721 374 721 374 778 c 128,-1,6
 374 835 374 835 360.5 1028.5 c 128,-1,7
 347 1222 347 1222 347 1320 c 0,8,9
 347 1343 347 1343 365 1358.5 c 128,-1,10
 383 1374 383 1374 399 1374 c 128,-1,11
 415 1374 415 1374 425 1371 c 128,-1,12
 435 1368 435 1368 447 1363 c 128,-1,13
 459 1358 459 1358 466 1356 c 1,14,15
 466 1090 466 1090 485.5 578.5 c 128,-1,16
 505 67 505 67 505 50 c 128,-1,17
 505 33 505 33 483.5 16.5 c 128,-1,18
 462 0 462 0 435.5 0 c 128,-1,19
 409 0 409 0 393 39 c 128,-1,20
 377 78 377 78 371.5 154.5 c 128,-1,21
 366 231 366 231 364 287 c 0,22,23
 363 311 363 311 364 342 c 0,24,25
 364 384 364 384 365 438 c 0,26,27
 367 533 367 533 367 548 c 2,28,-1
 367 556 l 1,29,-1
 370 615 l 1,30,-1
 358 634 l 1,31,-1
 358 636 l 1,32,33
 341 632 341 632 321 632 c 1,34,-1
 189 651 l 1,35,-1
 189 416 l 1,36,-1
 201 79 l 1,37,38
 201 50 201 50 186 27.5 c 128,-1,39
 171 5 171 5 143 5 c 0,40,41
 102 5 102 5 86.5 79.5 c 128,-1,42
 71 154 71 154 71 283 c 1,43,-1
 77 595 l 1,44,45
 77 692 77 692 74 702 c 1,46,-1
 74 712 l 1,47,48
 82 819 82 819 82 832 c 2,49,-1
 68 1294 l 2,50,51
 68 1318 68 1318 85 1336.5 c 128,-1,52
 102 1355 102 1355 126 1355 c 0,53,54
 191 1355 191 1355 191 1233 c 1,0,-1
EndSplineSet
EndChar

StartChar: i
Encoding: 105 105 76
Width: 499
GlyphClass: 2
Flags: W
LayerCount: 2
Fore
SplineSet
286 681 m 1,0,-1
 296 246 l 1,1,-1
 296 185 l 1,2,-1
 295 128 l 1,3,-1
 322 128 l 1,4,5
 381 130 l 1,6,7
 465 130 465 130 465 79 c 0,8,9
 465 53 465 53 444.5 34.5 c 128,-1,10
 424 16 424 16 397 16 c 2,11,-1
 307 16 l 2,12,13
 214 16 214 16 188 20 c 1,14,15
 172 18 172 18 163 18 c 0,16,17
 90 18 90 18 90 64 c 0,18,19
 90 83 90 83 102 100 c 128,-1,20
 114 117 114 117 126 118 c 1,21,-1
 184 118 l 1,22,-1
 188 145 l 1,23,-1
 174 580 l 1,24,-1
 185 1036 l 1,25,26
 185 1153 185 1153 175 1256 c 1,27,-1
 136 1256 l 1,28,-1
 89 1254 l 1,29,30
 59 1254 59 1254 42 1265.5 c 128,-1,31
 25 1277 25 1277 25 1309 c 0,32,33
 25 1356 25 1356 126 1356 c 2,34,-1
 370 1356 l 2,35,36
 453 1356 453 1356 453 1313 c 0,37,38
 453 1294 453 1294 435 1278 c 128,-1,39
 417 1262 417 1262 394 1262 c 2,40,-1
 289 1262 l 1,41,42
 297 1178 297 1178 297 1072 c 1,43,-1
 286 681 l 1,0,-1
EndSplineSet
EndChar

StartChar: j
Encoding: 106 106 77
Width: 520
GlyphClass: 2
Flags: W
LayerCount: 2
Fore
SplineSet
331 1245 m 1,0,-1
 352 382 l 1,1,-1
 352 164 l 2,2,3
 352 62 352 62 335.5 16.5 c 128,-1,4
 319 -29 319 -29 304.5 -59 c 128,-1,5
 290 -89 290 -89 266 -112 c 128,-1,6
 242 -135 242 -135 212 -154 c 0,7,8
 149 -193 149 -193 41 -193 c 0,9,10
 17 -193 17 -193 17 -168 c 1,11,-1
 19 -134 l 2,12,13
 19 -122 19 -122 48 -112 c 0,14,15
 154 -75 154 -75 181 -46 c 0,16,17
 240 18 240 18 240 187 c 1,18,-1
 217 1233 l 1,19,-1
 217 1242 l 1,20,21
 139 1242 139 1242 105.5 1255.5 c 128,-1,22
 72 1269 72 1269 66 1276 c 128,-1,23
 60 1283 60 1283 60 1297.5 c 128,-1,24
 60 1312 60 1312 83 1325.5 c 128,-1,25
 106 1339 106 1339 157.5 1339 c 128,-1,26
 209 1339 209 1339 350.5 1326.5 c 128,-1,27
 492 1314 492 1314 492 1292.5 c 128,-1,28
 492 1271 492 1271 475.5 1258 c 128,-1,29
 459 1245 459 1245 436 1245 c 2,30,-1
 331 1245 l 1,0,-1
EndSplineSet
EndChar

StartChar: k
Encoding: 107 107 78
Width: 637
GlyphClass: 2
Flags: W
LayerCount: 2
Fore
SplineSet
352 919 m 1,0,-1
 348 797 l 1,1,2
 348 709 348 709 418.5 468 c 128,-1,3
 489 227 489 227 536 149 c 0,4,5
 542 140 542 140 562.5 112 c 128,-1,6
 583 84 583 84 592.5 63 c 128,-1,7
 602 42 602 42 602 19 c 128,-1,8
 602 -4 602 -4 584.5 -19.5 c 128,-1,9
 567 -35 567 -35 544 -35 c 0,10,11
 496 -35 496 -35 444 66.5 c 128,-1,12
 392 168 392 168 352 315 c 0,13,14
 283 566 283 566 250 752 c 1,15,16
 176 605 176 605 176 396 c 2,17,-1
 176 17 l 2,18,19
 176 -31 176 -31 134 -31 c 0,20,21
 103 -31 103 -31 84.5 -13.5 c 128,-1,22
 66 4 66 4 66 34 c 2,23,-1
 66 656 l 2,24,25
 66 767 66 767 85.5 987.5 c 128,-1,26
 105 1208 105 1208 105 1318 c 1,27,28
 123 1357 123 1357 157.5 1357 c 128,-1,29
 192 1357 192 1357 210.5 1338.5 c 128,-1,30
 229 1320 229 1320 229 1294 c 2,31,-1
 229 1288 l 1,32,33
 202 1241 202 1241 202 915 c 2,34,-1
 202 842 l 1,35,36
 205 847 205 847 277 992 c 0,37,38
 452 1344 452 1344 493 1344 c 0,39,40
 523 1344 523 1344 547.5 1330 c 128,-1,41
 572 1316 572 1316 572 1289 c 0,42,43
 572 1287 572 1287 523 1207 c 0,44,45
 372 960 372 960 352 919 c 1,0,-1
EndSplineSet
EndChar

StartChar: l
Encoding: 108 108 79
Width: 467
GlyphClass: 2
Flags: W
LayerCount: 2
Fore
SplineSet
190 1148 m 1,0,-1
 196 656 l 1,1,2
 184 628 184 628 184 586 c 2,3,-1
 184 545 l 1,4,-1
 176 219 l 1,5,6
 176 78 176 78 245 78 c 1,7,-1
 330 81 l 1,8,9
 440 81 440 81 440 21 c 0,10,11
 440 -1 440 -1 421 -15.5 c 128,-1,12
 402 -30 402 -30 378 -33 c 1,13,14
 303 -9 303 -9 195 -9 c 1,15,16
 162 -28 162 -28 131.5 -28 c 128,-1,17
 101 -28 101 -28 84 -7 c 128,-1,18
 67 14 67 14 67 39 c 0,19,20
 67 191 67 191 80 496.5 c 128,-1,21
 93 802 93 802 93 954 c 2,22,-1
 93 969 l 1,23,24
 81 1097 81 1097 81 1161 c 0,25,26
 81 1355 81 1355 152 1355 c 0,27,28
 173 1355 173 1355 188.5 1340 c 128,-1,29
 204 1325 204 1325 204 1304 c 1,30,-1
 190 1148 l 1,0,-1
EndSplineSet
EndChar

StartChar: m
Encoding: 109 109 80
Width: 1013
GlyphClass: 2
Flags: W
LayerCount: 2
Fore
SplineSet
824 21 m 2,0,-1
 825 283 l 2,1,2
 825 374 825 374 810 550 c 128,-1,3
 795 726 795 726 795 787 c 128,-1,4
 795 848 795 848 799 932.5 c 128,-1,5
 803 1017 803 1017 803 1059 c 1,6,7
 794 1032 794 1032 734 776 c 0,8,9
 578 114 578 114 511 114 c 1,10,11
 471 114 471 114 448.5 138 c 128,-1,12
 426 162 426 162 426 202 c 0,13,14
 426 299 426 299 349.5 601.5 c 128,-1,15
 273 904 273 904 220 1065 c 1,16,17
 181 343 181 343 181 89 c 1,18,19
 184 28 l 1,20,21
 184 -5 184 -5 170 -22.5 c 128,-1,22
 156 -40 156 -40 126 -40 c 128,-1,23
 96 -40 96 -40 77 -25.5 c 128,-1,24
 58 -11 58 -11 58 9 c 0,25,26
 58 218 58 218 89.5 635 c 128,-1,27
 121 1052 121 1052 121 1261 c 1,28,29
 109 1280 109 1280 109 1303.5 c 128,-1,30
 109 1327 109 1327 134 1339 c 128,-1,31
 159 1351 159 1351 188 1351 c 0,32,33
 232 1351 232 1351 362 939.5 c 128,-1,34
 492 528 492 528 522 370 c 1,35,36
 531 400 531 400 559.5 521.5 c 128,-1,37
 588 643 588 643 620.5 774.5 c 0,38,39
 652 906 652 906 690 1040 c 0,40,41
 776 1348 776 1348 836 1348 c 0,42,43
 863 1348 863 1348 887 1333 c 128,-1,44
 911 1318 911 1318 911 1292 c 0,45,46
 911 1144 911 1144 924 850 c 128,-1,47
 937 556 937 556 937 423 c 1,48,-1
 932 207 l 1,49,-1
 932 206 l 2,50,51
 932 183 932 183 944 60 c 2,52,-1
 948 20 l 1,53,54
 957 -2 957 -2 957 -26.5 c 128,-1,55
 957 -51 957 -51 938 -79 c 128,-1,56
 919 -107 919 -107 888 -107 c 0,57,58
 824 -107 824 -107 824 21 c 2,0,-1
EndSplineSet
EndChar

StartChar: n
Encoding: 110 110 81
Width: 827
GlyphClass: 2
Flags: W
LayerCount: 2
Fore
SplineSet
64 829 m 1,0,-1
 76 1211 l 1,1,2
 76 1306 76 1306 151 1362 c 1,3,-1
 151 1349 l 1,4,5
 159 1354 159 1354 166 1354 c 0,6,7
 214 1354 214 1354 286 1188.5 c 128,-1,8
 358 1023 358 1023 416 825 c 128,-1,9
 474 627 474 627 531.5 425.5 c 128,-1,10
 589 224 589 224 603 189 c 1,11,12
 644 618 644 618 644 1228 c 1,13,-1
 641 1283 l 1,14,15
 641 1344 641 1344 692 1344 c 0,16,17
 721 1344 721 1344 735.5 1320 c 128,-1,18
 750 1296 750 1296 750 1264 c 2,19,-1
 750 1109 l 1,20,21
 748 868 748 868 728.5 465.5 c 128,-1,22
 709 63 709 63 676 11 c 1,23,24
 620 -6 620 -6 598.5 -6 c 128,-1,25
 577 -6 577 -6 565.5 8.5 c 128,-1,26
 554 23 554 23 547 53 c 128,-1,27
 540 83 540 83 535 93 c 1,28,-1
 536 102 l 1,29,30
 536 178 536 178 389 585 c 128,-1,31
 242 992 242 992 176 1145 c 1,32,-1
 176 114 l 1,33,34
 178 110 178 110 184 100 c 0,35,36
 197 78 197 78 197 59 c 128,-1,37
 197 40 197 40 178.5 21 c 128,-1,38
 160 2 160 2 135 2 c 0,39,40
 68 2 68 2 68 127 c 2,41,-1
 64 829 l 1,0,-1
EndSplineSet
EndChar

StartChar: o
Encoding: 111 111 82
Width: 651
GlyphClass: 2
Flags: W
LayerCount: 2
Fore
SplineSet
51 626 m 1,0,-1
 53 704 l 2,1,2
 53 714 53 714 50 714 c 1,3,-1
 50 751 l 2,4,5
 50 1073 50 1073 87 1209 c 0,6,7
 118 1324 118 1324 147 1351 c 128,-1,8
 176 1378 176 1378 204 1378 c 0,9,10
 442 1378 442 1378 532 1138 c 0,11,12
 584 1000 584 1000 584 798 c 2,13,-1
 584 783 l 1,14,-1
 588 551 l 1,15,16
 588 -38 588 -38 315 -38 c 0,17,18
 202 -38 202 -38 142 87 c 0,19,20
 85 207 85 207 72 323 c 0,21,22
 51 498 51 498 51 626 c 1,0,-1
172 906 m 1,23,-1
 162 717 l 1,24,25
 162 420 162 420 210 199 c 0,26,27
 261 70 261 70 307 47 c 1,28,29
 344 47 344 47 374 77 c 128,-1,30
 404 107 404 107 421.5 157.5 c 128,-1,31
 439 208 439 208 451 263.5 c 0,32,33
 462 319 462 319 468 382 c 0,34,35
 478 491 478 491 478 568 c 128,-1,36
 478 645 478 645 464.5 804 c 128,-1,37
 451 963 451 963 451 1041 c 2,38,-1
 451 1077 l 1,39,40
 449 1152 449 1152 402 1210.5 c 128,-1,41
 355 1269 355 1269 282 1269 c 0,42,43
 212 1269 212 1269 189 1190 c 0,44,45
 170 1124 170 1124 170 1027 c 1,46,-1
 172 906 l 1,23,-1
EndSplineSet
EndChar

StartChar: p
Encoding: 112 112 83
Width: 483
GlyphClass: 2
Flags: W
LayerCount: 2
Fore
SplineSet
84 885 m 1,0,-1
 87 1080 l 1,1,2
 87 1205 87 1205 71 1270 c 1,3,4
 85 1342 85 1342 126 1342 c 2,5,-1
 216 1342 l 2,6,7
 334 1342 334 1342 382 1244 c 0,8,9
 424 1157 424 1157 424 1044 c 0,10,11
 424 901 424 901 417 868.5 c 128,-1,12
 410 836 410 836 402 807 c 128,-1,13
 394 778 394 778 382.5 760 c 128,-1,14
 371 742 371 742 353 720.5 c 128,-1,15
 335 699 335 699 312 684 c 0,16,17
 261 651 261 651 189 628 c 1,18,-1
 189 409 l 1,19,-1
 205 21 l 1,20,21
 205 -4 205 -4 184 -21.5 c 128,-1,22
 163 -39 163 -39 136 -39 c 1,23,-1
 93 -14 l 1,24,25
 68 99 68 99 68 287 c 1,26,-1
 76 652 l 1,27,28
 64 679 64 679 64 702 c 2,29,-1
 64 709 l 1,30,31
 84 749 84 749 84 885 c 1,0,-1
186 1115 m 1,32,-1
 190 716 l 1,33,-1
 190 713 l 1,34,35
 312 729 312 729 312 1059 c 0,36,37
 312 1156 312 1156 288 1191 c 0,38,39
 262 1228 262 1228 208 1228 c 1,40,41
 208 1231 208 1231 186 1231 c 1,42,-1
 186 1115 l 1,32,-1
EndSplineSet
EndChar

StartChar: q
Encoding: 113 113 84
Width: 644
GlyphClass: 2
Flags: W
LayerCount: 2
Fore
SplineSet
502 -434 m 1,0,1
 502 -432 l 1,2,3
 387 -432 387 -432 344 -385 c 1,4,5
 344 -332 344 -332 339.5 -298.5 c 128,-1,6
 335 -265 335 -265 333 -247.5 c 128,-1,7
 331 -230 331 -230 325.5 -198.5 c 128,-1,8
 320 -167 320 -167 317.5 -155 c 128,-1,9
 315 -143 315 -143 308 -107 c 128,-1,10
 301 -71 301 -71 299 -62 c 1,11,12
 174 -36 174 -36 116 80 c 0,13,14
 78 158 78 158 68 229 c 128,-1,15
 58 300 58 300 54.5 342.5 c 0,16,17
 51 386 51 386 50 446 c 0,18,19
 49 486 49 486 49 518 c 0,20,21
 50 534 50 534 50 548 c 0,22,23
 50 590 50 590 51 653.5 c 128,-1,24
 52 717 52 717 52 760 c 128,-1,25
 52 803 52 803 54.5 852.5 c 128,-1,26
 57 902 57 902 64 978.5 c 128,-1,27
 71 1055 71 1055 87 1118.5 c 128,-1,28
 103 1182 103 1182 127 1241.5 c 128,-1,29
 151 1301 151 1301 191.5 1335 c 128,-1,30
 232 1369 232 1369 283 1369 c 1,31,32
 299 1362 299 1362 330.5 1354.5 c 128,-1,33
 362 1347 362 1347 392.5 1334.5 c 128,-1,34
 423 1322 423 1322 458.5 1288 c 128,-1,35
 494 1254 494 1254 515.5 1207.5 c 128,-1,36
 537 1161 537 1161 551.5 1114.5 c 128,-1,37
 566 1068 566 1068 572 1010 c 0,38,39
 582 912 582 912 582 838.5 c 128,-1,40
 582 765 582 765 581.5 726.5 c 128,-1,41
 581 688 581 688 579 615 c 128,-1,42
 577 542 577 542 571.5 481.5 c 128,-1,43
 566 421 566 421 558 345.5 c 128,-1,44
 550 270 550 270 536 210.5 c 128,-1,45
 522 151 522 151 504 95 c 0,46,47
 466 -21 466 -21 399 -49 c 1,48,49
 399 -116 399 -116 424 -207.5 c 128,-1,50
 449 -299 449 -299 455 -326 c 1,51,52
 550 -326 550 -326 550 -384 c 0,53,54
 550 -405 550 -405 536.5 -419.5 c 128,-1,55
 523 -434 523 -434 502 -434 c 1,0,1
271 1288 m 0,56,57
 237 1288 237 1288 211 1210.5 c 0,58,59
 186 1134 186 1134 174 1024 c 0,60,61
 152 810 152 810 151.5 737 c 128,-1,62
 151 664 151 664 151.5 637 c 128,-1,63
 152 610 152 610 153.5 546 c 128,-1,64
 155 482 155 482 159 431 c 128,-1,65
 163 380 163 380 169 313 c 128,-1,66
 175 246 175 246 186 196 c 128,-1,67
 197 146 197 146 211 100 c 0,68,69
 240 6 240 6 293 6 c 1,70,71
 322 18 322 18 353 18 c 0,72,73
 389 18 389 18 431 225 c 128,-1,74
 473 432 473 432 473 511 c 2,75,-1
 473 869 l 2,76,77
 473 1288 473 1288 271 1288 c 0,56,57
EndSplineSet
EndChar

StartChar: r
Encoding: 114 114 85
Width: 504
GlyphClass: 2
Flags: W
LayerCount: 2
Fore
SplineSet
174 1289 m 1,0,-1
 167 1260 l 1,1,2
 167 1176 167 1176 171 1017.5 c 128,-1,3
 175 859 175 859 175 787 c 1,4,5
 223 812 223 812 252.5 917.5 c 128,-1,6
 282 1023 282 1023 282 1079 c 128,-1,7
 282 1135 282 1135 279 1161.5 c 128,-1,8
 276 1188 276 1188 266 1220 c 0,9,10
 246 1286 246 1286 174 1289 c 1,0,-1
166 686 m 1,11,-1
 164 464 l 1,12,13
 164 193 164 193 203 37 c 1,14,-1
 180 -18 l 1,15,-1
 123 -18 l 1,16,-1
 96 12 l 1,17,18
 98 104 98 104 98 218.5 c 128,-1,19
 98 333 98 333 80.5 708 c 128,-1,20
 63 1083 63 1083 63 1268 c 0,21,22
 63 1365 63 1365 131 1365 c 0,23,24
 238 1365 238 1365 311 1309 c 128,-1,25
 384 1253 384 1253 384 1149 c 2,26,-1
 384 1005 l 2,27,28
 384 946 384 946 362 897.5 c 128,-1,29
 340 849 340 849 311 795.5 c 128,-1,30
 282 742 282 742 279 736 c 1,31,32
 290 686 290 686 318 540 c 0,33,34
 378 221 378 221 451 81 c 0,35,36
 472 41 472 41 472 18.5 c 128,-1,37
 472 -4 472 -4 459.5 -19.5 c 128,-1,38
 447 -35 447 -35 426 -35 c 0,39,40
 383 -35 383 -35 343.5 63.5 c 128,-1,41
 304 162 304 162 280 282 c 0,42,43
 207 649 207 649 191 686 c 1,44,-1
 166 686 l 1,11,-1
EndSplineSet
EndChar

StartChar: s
Encoding: 115 115 86
Width: 445
GlyphClass: 2
Flags: W
LayerCount: 2
Fore
SplineSet
72 86 m 1,0,-1
 157 71 l 1,1,2
 196 71 196 71 225 105 c 128,-1,3
 254 139 254 139 268 190 c 0,4,5
 295 288 295 288 295 363.5 c 128,-1,6
 295 439 295 439 270 513 c 128,-1,7
 245 587 245 587 208.5 650.5 c 128,-1,8
 172 714 172 714 136 780 c 0,9,10
 50 936 50 936 50 1086 c 0,11,12
 50 1178 50 1178 81 1249 c 0,13,14
 139 1381 139 1381 235 1381 c 0,15,16
 271 1381 271 1381 303.5 1358 c 128,-1,17
 336 1335 336 1335 336 1308 c 0,18,19
 336 1261 336 1261 286 1261 c 0,20,21
 264 1261 264 1261 243 1273 c 1,22,23
 178 1270 178 1270 155 1128 c 0,24,25
 150 1097 150 1097 150 1055.5 c 128,-1,26
 150 1014 150 1014 168 953 c 128,-1,27
 186 892 186 892 213.5 844.5 c 128,-1,28
 241 797 241 797 272.5 739.5 c 128,-1,29
 304 682 304 682 332 628 c 0,30,31
 396 503 396 503 395 342 c 0,32,33
 396 218 396 218 338 105 c 0,34,35
 310 49 310 49 258.5 13.5 c 128,-1,36
 207 -22 207 -22 141 -23 c 1,37,-1
 141 -28 l 1,38,39
 57 -16 57 -16 49 51 c 1,40,-1
 72 86 l 1,0,-1
EndSplineSet
EndChar

StartChar: t
Encoding: 116 116 87
Width: 493
GlyphClass: 2
Flags: W
LayerCount: 2
Fore
SplineSet
257 33 m 1,0,-1
 253 190 l 2,1,2
 253 191 253 191 256 260 c 1,3,4
 248 286 248 286 223.5 722 c 128,-1,5
 199 1158 199 1158 197 1255 c 1,6,7
 193 1255 193 1255 189 1255 c 0,8,9
 23 1258 23 1258 23 1316 c 0,10,11
 23 1335 23 1335 45 1347.5 c 128,-1,12
 67 1360 67 1360 88 1360 c 1,13,14
 366 1341 l 1,15,-1
 399 1342 l 1,16,17
 463 1342 463 1342 463 1293 c 0,18,19
 463 1268 463 1268 442 1252.5 c 128,-1,20
 421 1237 421 1237 395 1237 c 1,21,-1
 301 1251 l 1,22,-1
 297 1230 l 1,23,24
 297 1036 297 1036 331 649 c 128,-1,25
 365 262 365 262 365 67 c 0,26,27
 365 43 365 43 343 24.5 c 128,-1,28
 321 6 321 6 295 6 c 1,29,-1
 257 33 l 1,0,-1
EndSplineSet
EndChar

StartChar: u
Encoding: 117 117 88
Width: 641
GlyphClass: 2
Flags: W
LayerCount: 2
Fore
SplineSet
560 913 m 1,0,-1
 562 878 l 1,1,2
 562 -31 562 -31 298 -31 c 0,3,4
 196 -32 196 -32 147 52 c 0,5,6
 96 138 96 138 85 223 c 0,7,8
 68 354 68 354 65.5 523.5 c 128,-1,9
 63 693 63 693 63 1013 c 1,10,-1
 54 1306 l 1,11,12
 73 1349 73 1349 97.5 1349 c 128,-1,13
 122 1349 122 1349 141 1311.5 c 128,-1,14
 160 1274 160 1274 160 1232 c 2,15,-1
 160 675 l 2,16,17
 160 602 160 602 174.5 458 c 128,-1,18
 189 314 189 314 189 241 c 0,19,20
 189 91 189 91 319 91 c 0,21,22
 465 91 465 91 465 1192 c 2,23,-1
 465 1307 l 1,24,-1
 464 1341 l 2,25,26
 464 1365 464 1365 475 1377 c 128,-1,27
 486 1389 486 1389 513.5 1389 c 128,-1,28
 541 1389 541 1389 555 1380.5 c 0,29,30
 568 1372 568 1372 574 1356 c 0,31,32
 582 1331 582 1331 583 1290 c 1,33,-1
 569 1084 l 1,34,-1
 560 913 l 1,0,-1
EndSplineSet
EndChar

StartChar: v
Encoding: 118 118 89
Width: 666
GlyphClass: 2
Flags: W
LayerCount: 2
Fore
SplineSet
343 247 m 1,0,1
 388 473 388 473 453.5 900 c 128,-1,2
 519 1327 519 1327 531 1396 c 1,3,-1
 577 1396 l 2,4,5
 595 1396 595 1396 609.5 1383 c 128,-1,6
 624 1370 624 1370 624 1351 c 0,7,8
 624 1236 624 1236 575 1061.5 c 128,-1,9
 526 887 526 887 517.5 836.5 c 128,-1,10
 509 786 509 786 500 673 c 128,-1,11
 491 560 491 560 479 451 c 128,-1,12
 467 342 467 342 447 229 c 128,-1,13
 427 116 427 116 390.5 46 c 128,-1,14
 354 -24 354 -24 304 -24 c 1,15,-1
 266 7 l 1,16,17
 266 256 266 256 218.5 515 c 128,-1,18
 171 774 171 774 125.5 950 c 128,-1,19
 80 1126 80 1126 64 1173 c 0,20,21
 28 1284 28 1284 28 1311 c 128,-1,22
 28 1338 28 1338 43.5 1352 c 128,-1,23
 59 1366 59 1366 78 1366 c 0,24,25
 135 1366 135 1366 187 1170 c 0,26,27
 239 973 239 973 265 801.5 c 128,-1,28
 291 630 291 630 304 539 c 128,-1,29
 317 448 317 448 328.5 356.5 c 128,-1,30
 340 265 340 265 343 247 c 1,0,1
EndSplineSet
EndChar

StartChar: w
Encoding: 119 119 90
Width: 802
GlyphClass: 2
Flags: W
LayerCount: 2
Fore
SplineSet
634 1327 m 0,0,1
 634 1377 634 1377 691.5 1377 c 128,-1,2
 749 1377 749 1377 749 1329 c 0,3,4
 749 1264 749 1264 744 1245 c 1,5,-1
 744 1234 l 1,6,7
 716 1149 716 1149 716 1046 c 2,8,-1
 716 896 l 2,9,10
 716 768 716 768 684.5 510.5 c 128,-1,11
 653 253 653 253 653 139 c 0,12,13
 653 -69 653 -69 574 -69 c 0,14,15
 515 -69 515 -69 515 18.5 c 128,-1,16
 515 106 515 106 509 195 c 128,-1,17
 503 284 503 284 489.5 391 c 128,-1,18
 476 498 476 498 466 567.5 c 128,-1,19
 456 637 456 637 436 766.5 c 128,-1,20
 416 896 416 896 409 942 c 1,21,22
 402 874 402 874 402 805 c 128,-1,23
 402 736 402 736 386.5 544.5 c 128,-1,24
 371 353 371 353 332.5 155 c 128,-1,25
 294 -43 294 -43 245 -43 c 0,26,27
 166 -42 166 -42 126 386 c 0,28,29
 108 570 108 570 94 756 c 0,30,31
 58 1232 58 1232 31 1293 c 1,32,33
 48 1329 48 1329 90 1329 c 0,34,35
 156 1329 156 1329 156 1180.5 c 128,-1,36
 156 1032 156 1032 199 727.5 c 128,-1,37
 242 423 242 423 247 283 c 1,38,39
 334 876 334 876 334 1186 c 1,40,-1
 389 1210 l 1,41,42
 414 1210 414 1210 432 1197 c 128,-1,43
 450 1184 450 1184 450 1160 c 2,44,-1
 450 1143 l 1,45,46
 508 946 508 946 542 572 c 0,47,48
 558 401 558 401 572 307 c 1,49,50
 610 591 610 591 610 984 c 0,51,52
 610 1036 610 1036 625.5 1138 c 128,-1,53
 641 1240 641 1240 641 1292 c 1,54,55
 634 1310 634 1310 634 1327 c 0,0,1
EndSplineSet
EndChar

StartChar: x
Encoding: 120 120 91
Width: 471
GlyphClass: 2
Flags: W
LayerCount: 2
Fore
SplineSet
268 1158 m 2,0,-1
 267 1225 l 2,1,2
 267 1279 267 1279 285 1310.5 c 128,-1,3
 303 1342 303 1342 359 1357 c 1,4,-1
 397 1309 l 1,5,6
 366 1262 366 1262 364 1218 c 128,-1,7
 362 1174 362 1174 362 1133 c 2,8,-1
 362 1109 l 1,9,10
 338 1044 338 1044 311 881 c 128,-1,11
 284 718 284 718 284 645.5 c 128,-1,12
 284 573 284 573 321 450.5 c 128,-1,13
 358 328 358 328 395 215.5 c 128,-1,14
 432 103 432 103 432 67.5 c 128,-1,15
 432 32 432 32 415.5 17.5 c 128,-1,16
 399 3 399 3 379.5 3 c 128,-1,17
 360 3 360 3 343.5 22 c 128,-1,18
 327 41 327 41 314 74.5 c 128,-1,19
 301 108 301 108 289.5 146.5 c 128,-1,20
 278 185 278 185 269 230.5 c 128,-1,21
 260 276 260 276 253 312 c 128,-1,22
 246 348 246 348 240 384 c 128,-1,23
 234 420 234 420 231 433 c 1,24,25
 226 403 226 403 212.5 280 c 128,-1,26
 199 157 199 157 179 93 c 1,27,28
 180 86 180 86 180 69 c 0,29,30
 180 -7 180 -7 127 -7 c 0,31,32
 104 -7 104 -7 84.5 5.5 c 128,-1,33
 65 18 65 18 65 40 c 0,34,35
 65 129 65 129 94 239.5 c 128,-1,36
 123 350 123 350 152 460.5 c 128,-1,37
 181 571 181 571 181 644.5 c 128,-1,38
 181 718 181 718 129.5 951.5 c 128,-1,39
 78 1185 78 1185 54 1219 c 1,40,-1
 54 1241 l 1,41,42
 35 1260 35 1260 35 1286 c 0,43,44
 35 1334 35 1334 96 1334 c 0,45,46
 138 1334 138 1334 172 1202 c 0,47,48
 202 1086 202 1086 216.5 997 c 128,-1,49
 231 908 231 908 234 894 c 1,50,51
 236 907 236 907 243 944.5 c 128,-1,52
 250 982 250 982 253 1000.5 c 128,-1,53
 256 1019 256 1019 260 1050 c 0,54,55
 268 1112 268 1112 268 1158 c 2,0,-1
EndSplineSet
EndChar

StartChar: y
Encoding: 121 121 92
Width: 513
GlyphClass: 2
Flags: W
LayerCount: 2
Fore
SplineSet
355 109 m 2,0,1
 355 -28 355 -28 288 -28 c 0,2,3
 251 -28 251 -28 231 17 c 1,4,5
 254 62 254 62 254 364 c 0,6,7
 254 419 254 419 243 520 c 128,-1,8
 232 621 232 621 230 664 c 1,9,-1
 230 717 l 1,10,11
 226 726 226 726 166 879 c 0,12,13
 30 1222 30 1222 30 1288 c 2,14,-1
 30 1299 l 1,15,-1
 76 1333 l 1,16,17
 139 1332 139 1332 226 1016 c 0,18,19
 264 878 264 878 264 877 c 1,20,21
 272 900 272 900 296 1030 c 0,22,23
 357 1362 357 1362 424 1362 c 0,24,25
 443 1362 443 1362 458.5 1350 c 128,-1,26
 474 1338 474 1338 474 1319 c 0,27,28
 474 1217 474 1217 415.5 1022.5 c 128,-1,29
 357 828 357 828 355 726 c 1,30,-1
 355 109 l 2,0,1
EndSplineSet
EndChar

StartChar: z
Encoding: 122 122 93
Width: 493
GlyphClass: 2
Flags: W
LayerCount: 2
Fore
SplineSet
290 12 m 1,0,-1
 169 18 l 2,1,2
 156 18 156 18 133 7 c 128,-1,3
 110 -4 110 -4 92.5 -4 c 128,-1,4
 75 -4 75 -4 58 9.5 c 128,-1,5
 41 23 41 23 41 57 c 0,6,7
 41 240 41 240 179 695 c 128,-1,8
 317 1150 317 1150 344 1256 c 1,9,-1
 177 1244 l 1,10,11
 155 1244 155 1244 139.5 1261.5 c 128,-1,12
 124 1279 124 1279 124 1301 c 0,13,14
 124 1359 124 1359 349 1359 c 0,15,16
 450 1359 450 1359 450 1302 c 0,17,18
 450 1230 450 1230 405.5 1106.5 c 128,-1,19
 361 983 361 983 353 933 c 0,20,21
 327 770 327 770 246 458 c 128,-1,22
 165 146 165 146 157 105 c 1,23,-1
 192 105 l 1,24,-1
 278 111 l 1,25,-1
 278 112 l 1,26,27
 361 112 361 112 361 62 c 0,28,29
 361 37 361 37 339 24.5 c 128,-1,30
 317 12 317 12 290 12 c 1,0,-1
EndSplineSet
EndChar

StartChar: braceleft
Encoding: 123 123 94
Width: 649
GlyphClass: 2
Flags: W
LayerCount: 2
Fore
SplineSet
428 39 m 1,0,-1
 549 62 l 1,1,2
 557 62 557 62 561.5 44.5 c 128,-1,3
 566 27 566 27 566 9.5 c 128,-1,4
 566 -8 566 -8 542 -24 c 0,5,6
 504 -48 504 -48 443 -48 c 0,7,8
 327 -48 327 -48 283.5 14.5 c 128,-1,9
 240 77 240 77 240 198 c 2,10,-1
 240 621 l 2,11,12
 240 707 240 707 190 717 c 0,13,14
 170 722 170 722 150 722 c 0,15,16
 101 723 101 723 101 766 c 0,17,18
 101 814 101 814 150 816 c 0,19,20
 170 818 170 818 190 822 c 0,21,22
 240 833 240 833 240 916 c 1,23,-1
 230 1130 l 1,24,25
 230 1204 230 1204 243 1226 c 1,26,27
 238 1256 238 1256 238 1280 c 0,28,29
 238 1374 238 1374 291 1434.5 c 128,-1,30
 344 1495 344 1495 443 1495 c 0,31,32
 508 1495 508 1495 547 1475.5 c 128,-1,33
 586 1456 586 1456 586 1434.5 c 128,-1,34
 586 1413 586 1413 568.5 1401 c 128,-1,35
 551 1389 551 1389 529 1389 c 1,36,-1
 428 1408 l 1,37,38
 330 1408 330 1408 330 1157 c 1,39,-1
 338 947 l 1,40,41
 338 815 338 815 302 768 c 1,42,43
 336 726 336 726 336 622 c 2,44,-1
 336 182 l 2,45,46
 336 39 336 39 428 39 c 1,0,-1
EndSplineSet
EndChar

StartChar: bar
Encoding: 124 124 95
Width: 467
GlyphClass: 2
Flags: W
LayerCount: 2
Fore
SplineSet
242 1533 m 2,0,-1
 246 379 l 1,1,-1
 246 -29 l 2,2,3
 246 -50 246 -50 230.5 -65 c 128,-1,4
 215 -80 215 -80 194 -80 c 0,5,6
 143 -80 143 -80 143 114 c 1,7,-1
 129 1510 l 2,8,9
 129 1584 129 1584 200 1584 c 0,10,11
 218 1584 218 1584 230 1568 c 128,-1,12
 242 1552 242 1552 242 1533 c 2,0,-1
EndSplineSet
EndChar

StartChar: braceright
Encoding: 125 125 96
Width: 649
GlyphClass: 2
Flags: W
LayerCount: 2
Fore
SplineSet
259 1408 m 1,0,-1
 138 1385 l 1,1,2
 130 1385 130 1385 125.5 1402.5 c 128,-1,3
 121 1420 121 1420 121 1437.5 c 0,4,5
 121 1454 121 1454 145 1470 c 0,6,7
 183 1494 183 1494 244 1495 c 0,8,9
 358 1495 358 1495 401.5 1432 c 128,-1,10
 445 1369 445 1369 446 1249 c 2,11,-1
 447 876 l 2,12,13
 447 790 447 790 493 780 c 0,14,15
 512 776 512 776 530 774 c 0,16,17
 576 772 576 772 576 731 c 0,18,19
 576 683 576 683 530 681 c 0,20,21
 510 680 510 680 492 676 c 0,22,23
 446 666 446 666 447 581 c 1,24,-1
 455 330 l 1,25,26
 455 239 455 239 444 221 c 1,27,28
 448 196 448 196 448 166 c 0,29,30
 448 72 448 72 395.5 12 c 128,-1,31
 343 -48 343 -48 244 -48 c 0,32,33
 179 -48 179 -48 140 -28.5 c 128,-1,34
 101 -9 101 -9 101 12.5 c 128,-1,35
 101 34 101 34 118.5 46 c 128,-1,36
 136 58 136 58 158 58 c 1,37,-1
 259 39 l 1,38,39
 357 39 357 39 357 289 c 1,40,-1
 347 534 l 1,41,42
 347 681 347 681 385 729 c 1,43,44
 348 776 348 776 348 875 c 1,45,-1
 358 1127 l 1,46,47
 358 1408 358 1408 259 1408 c 1,0,-1
EndSplineSet
EndChar

StartChar: asciitilde
Encoding: 126 126 97
Width: 675
GlyphClass: 2
Flags: W
LayerCount: 2
Fore
SplineSet
558 1210 m 128,-1,1
 569 1223 569 1223 595.5 1223 c 128,-1,2
 622 1223 622 1223 639 1207 c 128,-1,3
 656 1191 656 1191 656 1170 c 0,4,5
 656 1117 656 1117 616.5 1077.5 c 128,-1,6
 577 1038 577 1038 524 1038 c 0,7,8
 334 1038 334 1038 253 1080 c 0,9,10
 168 1124 168 1124 136 1125 c 1,11,12
 107 1114 107 1114 112 1086 c 0,13,14
 117 1058 117 1058 83 1046 c 1,15,16
 52 1046 52 1046 30.5 1061 c 128,-1,17
 9 1076 9 1076 9 1115 c 128,-1,18
 9 1154 9 1154 49 1189 c 128,-1,19
 89 1224 89 1224 148.5 1224 c 128,-1,20
 208 1224 208 1224 334 1182.5 c 128,-1,21
 460 1141 460 1141 490 1141 c 128,-1,22
 520 1141 520 1141 530.5 1154 c 128,-1,23
 541 1167 541 1167 544 1182 c 128,-1,0
 547 1197 547 1197 558 1210 c 128,-1,1
EndSplineSet
EndChar

StartChar: cent
Encoding: 162 162 99
Width: 613
GlyphClass: 2
Flags: W
LayerCount: 2
Fore
SplineSet
218 1125 m 1,0,1
 153 1030 153 1030 153 790 c 0,2,3
 153 445 153 445 276 424 c 1,4,5
 274 840 274 840 218 1125 c 1,0,1
369 222 m 1,6,-1
 383 28 l 1,7,8
 383 8 383 8 368.5 -6 c 128,-1,9
 354 -20 354 -20 335 -20 c 2,10,-1
 326 -20 l 1,11,-1
 288 15 l 1,12,13
 292 38 292 38 292 63 c 128,-1,14
 292 88 292 88 288 134 c 128,-1,15
 284 180 284 180 284 203 c 1,16,-1
 281 202 l 1,17,-1
 289 313 l 1,18,19
 201 346 201 346 165.5 382 c 128,-1,20
 130 418 130 418 112.5 441 c 128,-1,21
 95 464 95 464 84.5 498 c 128,-1,22
 74 532 74 532 67.5 557.5 c 128,-1,23
 61 583 61 583 58 626 c 0,24,25
 54 683 54 683 54 756 c 128,-1,26
 54 829 54 829 55 864 c 128,-1,27
 56 899 56 899 61 951.5 c 128,-1,28
 66 1004 66 1004 76.5 1042.5 c 0,29,30
 86 1080 86 1080 104 1122 c 0,31,32
 139 1204 139 1204 217 1254 c 1,33,34
 206 1358 206 1358 206 1368 c 0,35,36
 206 1456 206 1456 258 1456 c 2,37,-1
 265 1456 l 1,38,-1
 295 1436 l 1,39,40
 290 1399 290 1399 290 1365.5 c 128,-1,41
 290 1332 290 1332 300 1254 c 1,42,43
 309 1251 309 1251 333.5 1244.5 c 128,-1,44
 358 1238 358 1238 373 1233.5 c 128,-1,45
 388 1229 388 1229 410.5 1219.5 c 128,-1,46
 433 1210 433 1210 447 1200 c 0,47,48
 480 1176 480 1176 484 1140 c 1,49,-1
 482 1140 l 1,50,-1
 482 1135 l 2,51,52
 482 1118 482 1118 469.5 1101 c 128,-1,53
 457 1084 457 1084 437.5 1084 c 128,-1,54
 418 1084 418 1084 399.5 1100.5 c 128,-1,55
 381 1117 381 1117 372 1140 c 1,56,-1
 314 1169 l 1,57,-1
 309 1169 l 1,58,59
 311 1051 311 1051 340.5 804 c 128,-1,60
 370 557 370 557 370 428 c 1,61,-1
 368 403 l 2,62,63
 368 399 368 399 370 391 c 1,64,65
 425 393 425 393 453 423 c 0,66,67
 488 460 488 460 522 511 c 1,68,69
 581 511 581 511 581 451 c 0,70,71
 581 398 581 398 508.5 352 c 128,-1,72
 436 306 436 306 377 301 c 1,73,74
 369 249 369 249 369 222 c 1,6,-1
EndSplineSet
EndChar

StartChar: sterling
Encoding: 163 163 100
Width: 712
GlyphClass: 2
Flags: W
LayerCount: 2
Fore
SplineSet
542 125 m 1,0,-1
 652 146 l 1,1,2
 675 146 675 146 691 131 c 128,-1,3
 707 116 707 116 707 91.5 c 128,-1,4
 707 67 707 67 668.5 47 c 128,-1,5
 630 27 630 27 563.5 27 c 128,-1,6
 497 27 497 27 406 45.5 c 128,-1,7
 315 64 315 64 278 68 c 1,8,-1
 278 71 l 1,9,10
 253 70 253 70 190.5 45 c 128,-1,11
 128 20 128 20 94 2 c 1,12,-1
 94 6 l 1,13,14
 72 8 72 8 54 20 c 128,-1,15
 36 32 36 32 36 58 c 128,-1,16
 36 84 36 84 57.5 102 c 128,-1,17
 79 120 79 120 115 133.5 c 128,-1,18
 151 147 151 147 165 158 c 0,19,20
 196 182 196 182 211.5 253 c 128,-1,21
 227 324 227 324 227 393 c 128,-1,22
 227 462 227 462 211.5 542.5 c 128,-1,23
 196 623 196 623 163 738.5 c 128,-1,24
 130 854 130 854 120 894 c 1,25,26
 26 894 26 894 26 918 c 2,27,-1
 26 924 l 2,28,29
 26 936 26 936 29 944 c 0,30,31
 38 966 38 966 103 966 c 1,32,33
 102 1008 102 1008 90 1099 c 128,-1,34
 78 1190 78 1190 78 1232 c 128,-1,35
 78 1274 78 1274 81 1315 c 128,-1,36
 84 1356 84 1356 95.5 1415.5 c 128,-1,37
 107 1475 107 1475 126 1520.5 c 128,-1,38
 145 1566 145 1566 180.5 1599 c 128,-1,39
 216 1632 216 1632 263 1632 c 2,40,-1
 288 1632 l 2,41,42
 325 1632 325 1632 365.5 1589.5 c 128,-1,43
 406 1547 406 1547 430.5 1493 c 128,-1,44
 455 1439 455 1439 455 1410.5 c 128,-1,45
 455 1382 455 1382 449 1370.5 c 128,-1,46
 443 1359 443 1359 418 1359 c 128,-1,47
 393 1359 393 1359 374.5 1377 c 128,-1,48
 356 1395 356 1395 348 1421 c 128,-1,49
 340 1447 340 1447 333 1473 c 0,50,51
 316 1535 316 1535 269 1535 c 0,52,53
 205 1536 205 1536 182 1342 c 0,54,55
 177 1300 177 1300 177 1270 c 2,56,-1
 177 1243 l 2,57,58
 177 1067 177 1067 196 976 c 1,59,-1
 401 979 l 2,60,61
 421 979 421 979 437 964 c 128,-1,62
 453 949 453 949 453 935.5 c 128,-1,63
 453 922 453 922 443.5 918.5 c 128,-1,64
 434 915 434 915 410 912.5 c 128,-1,65
 386 910 386 910 363 908.5 c 128,-1,66
 340 907 340 907 295 904.5 c 128,-1,67
 250 902 250 902 217 900 c 1,68,69
 228 838 228 838 257 736 c 0,70,71
 324 500 324 500 324 378 c 0,72,73
 324 314 324 314 302 247 c 128,-1,74
 280 180 280 180 277 169 c 1,75,76
 316 166 316 166 404.5 145.5 c 128,-1,77
 493 125 493 125 542 125 c 1,0,-1
EndSplineSet
EndChar

StartChar: currency
Encoding: 164 164 101
Width: 895
GlyphClass: 2
Flags: W
LayerCount: 2
Fore
SplineSet
268 1172 m 1,0,1
 358 1285 358 1285 398 1285 c 0,2,3
 514 1285 514 1285 620 1216 c 1,4,5
 628 1226 628 1226 650 1267 c 0,6,7
 696 1351 696 1351 749 1351 c 2,8,-1
 759 1351 l 1,9,-1
 802 1304 l 1,10,11
 799 1262 799 1262 730 1178 c 0,12,13
 707 1150 707 1150 707 1141 c 0,14,15
 707 1081 707 1081 752 959.5 c 128,-1,16
 797 838 797 838 797 773 c 128,-1,17
 797 708 797 708 763.5 584.5 c 128,-1,18
 730 461 730 461 730 396 c 0,19,20
 730 366 730 366 768.5 322 c 128,-1,21
 807 278 807 278 807 252 c 128,-1,22
 807 226 807 226 792.5 210.5 c 128,-1,23
 778 195 778 195 753 195 c 128,-1,24
 728 195 728 195 705.5 209 c 128,-1,25
 683 223 683 223 679 248 c 1,26,-1
 654 293 l 1,27,28
 555 205 555 205 415 205 c 0,29,30
 320 205 320 205 233 290 c 1,31,32
 232 288 232 288 223 267 c 0,33,34
 195 201 195 201 147 201 c 0,35,36
 116 201 116 201 99.5 222.5 c 128,-1,37
 83 244 83 244 83 268.5 c 128,-1,38
 83 293 83 293 99.5 314.5 c 128,-1,39
 116 336 116 336 139 358.5 c 128,-1,40
 162 381 162 381 169 392 c 1,41,42
 137 452 137 452 137 567 c 0,43,44
 137 971 137 971 209 1078 c 1,45,46
 203 1090 203 1090 157.5 1135.5 c 128,-1,47
 112 1181 112 1181 112 1204.5 c 128,-1,48
 112 1228 112 1228 126.5 1241.5 c 128,-1,49
 141 1255 141 1255 154.5 1255 c 128,-1,50
 168 1255 168 1255 175.5 1253.5 c 128,-1,51
 183 1252 183 1252 188.5 1250 c 128,-1,52
 194 1248 194 1248 201 1243.5 c 128,-1,53
 208 1239 208 1239 212.5 1236.5 c 128,-1,54
 217 1234 217 1234 223.5 1227 c 128,-1,55
 230 1220 230 1220 233 1217 c 128,-1,56
 236 1214 236 1214 242.5 1206 c 128,-1,57
 249 1198 249 1198 251 1195 c 128,-1,58
 253 1192 253 1192 260 1183 c 128,-1,59
 267 1174 267 1174 268 1172 c 1,0,1
301 421 m 1,60,61
 301 305 301 305 451 305 c 0,62,63
 505 305 505 305 547 341.5 c 128,-1,64
 589 378 589 378 613 431 c 0,65,66
 636 484 636 484 652 552 c 0,67,68
 678 665 678 665 678 751 c 128,-1,69
 678 837 678 837 659.5 939 c 128,-1,70
 641 1041 641 1041 617 1071 c 1,71,72
 596 1075 596 1075 581.5 1092.5 c 128,-1,73
 567 1110 567 1110 565 1132 c 1,74,75
 520 1181 520 1181 442 1181 c 0,76,77
 425 1181 425 1181 387.5 1150.5 c 128,-1,78
 350 1120 350 1120 335 1100 c 1,79,-1
 350 1086 l 1,80,81
 350 1009 350 1009 303 1009 c 0,82,83
 286 1009 286 1009 266.5 886.5 c 128,-1,84
 247 764 247 764 247 696 c 1,85,-1
 250 696 l 1,86,87
 252 678 252 678 252 669 c 2,88,-1
 247 585 l 1,89,90
 247 468 247 468 301 421 c 1,60,61
EndSplineSet
EndChar

StartChar: yen
Encoding: 165 165 102
Width: 876
GlyphClass: 2
Flags: W
LayerCount: 2
Fore
SplineSet
163 1056 m 1,0,-1
 321 1052 l 1,1,2
 375 1052 375 1052 423 1059 c 1,3,-1
 423 1071 l 1,4,5
 334 1158 334 1158 258 1324 c 0,6,7
 226 1392 226 1392 194 1460 c 0,8,9
 118 1617 118 1617 18 1705 c 1,10,-1
 18 1764 l 1,11,-1
 21 1759 l 1,12,13
 55 1774 55 1774 71 1774 c 0,14,15
 105 1774 105 1774 168.5 1695 c 128,-1,16
 232 1616 232 1616 286.5 1525 c 128,-1,17
 341 1434 341 1434 400.5 1330 c 128,-1,18
 460 1226 460 1226 472 1207 c 1,19,20
 481 1230 481 1230 513 1342.5 c 128,-1,21
 545 1455 545 1455 576 1557 c 128,-1,22
 607 1659 607 1659 649.5 1745.5 c 128,-1,23
 692 1832 692 1832 725 1832 c 0,24,25
 748 1832 748 1832 765.5 1816.5 c 128,-1,26
 783 1801 783 1801 783 1778 c 1,27,28
 781 1769 781 1769 743.5 1660.5 c 128,-1,29
 706 1552 706 1552 688 1502 c 0,30,31
 637 1356 637 1356 619 1282 c 128,-1,32
 601 1208 601 1208 577 1149.5 c 128,-1,33
 553 1091 553 1091 545 1059 c 1,34,-1
 570 1056 l 1,35,-1
 725 1066 l 1,36,37
 852 1066 852 1066 852 1005 c 0,38,39
 852 948 852 948 739 948 c 2,40,-1
 730 948 l 1,41,-1
 539 950 l 1,42,-1
 539 887 l 1,43,-1
 687 895 l 1,44,45
 847 895 847 895 847 820 c 0,46,47
 847 798 847 798 828.5 782 c 128,-1,48
 810 766 810 766 787 766 c 2,49,-1
 679 766 l 1,50,-1
 700 776 l 1,51,-1
 534 776 l 1,52,53
 534 672 534 672 518.5 461 c 128,-1,54
 503 250 503 250 503 142 c 1,55,-1
 504 94 l 2,56,57
 504 48 504 48 490 20 c 128,-1,58
 476 -8 476 -8 444 -8 c 0,59,60
 370 -8 370 -8 370 40 c 2,61,-1
 370 45 l 1,62,63
 388 89 388 89 400.5 364 c 128,-1,64
 413 639 413 639 413 773 c 1,65,-1
 406 773 l 1,66,-1
 216 762 l 1,67,-1
 202 762 l 1,68,-1
 171 763 l 1,69,70
 135 783 135 783 117 823 c 1,71,-1
 133 875 l 1,72,73
 268 875 268 875 422 883 c 1,74,75
 424 907 424 907 424 954 c 1,76,-1
 423 958 l 1,77,78
 270 948 l 1,79,80
 138 948 138 948 138 1010 c 2,81,-1
 138 1017 l 1,82,-1
 163 1056 l 1,0,-1
EndSplineSet
EndChar

StartChar: brokenbar
Encoding: 166 166 103
Width: 325
GlyphClass: 2
Flags: W
LayerCount: 2
Fore
SplineSet
220 1393 m 1,0,-1
 218 1285 l 1,1,-1
 215 877 l 2,2,3
 215 856 215 856 199.5 841 c 128,-1,4
 184 826 184 826 163 826 c 0,5,6
 112 826 112 826 112 1020 c 1,7,-1
 104 1510 l 1,8,9
 104 1584 104 1584 175 1584 c 0,10,11
 220 1584 220 1584 220 1393 c 1,0,-1
157 695 m 0,12,13
 218 695 218 695 218 621 c 2,14,-1
 220 -16 l 2,15,16
 220 -80 220 -80 169 -80 c 0,17,18
 148 -80 148 -80 132.5 -65 c 128,-1,19
 117 -50 117 -50 117 -29 c 2,20,-1
 114 339 l 1,21,-1
 115 644 l 2,22,23
 115 663 115 663 127 679 c 128,-1,24
 139 695 139 695 157 695 c 0,12,13
EndSplineSet
EndChar

StartChar: section
Encoding: 167 167 104
Width: 520
GlyphClass: 2
Flags: W
LayerCount: 2
Fore
SplineSet
323.5 746.5 m 128,-1,1
 307 783 307 783 302.5 793.5 c 128,-1,2
 298 804 298 804 284 828.5 c 128,-1,3
 270 853 270 853 265.5 860 c 128,-1,4
 261 867 261 867 244 894 c 128,-1,5
 227 921 227 921 224 925 c 1,6,7
 180 870 180 870 180 810.5 c 128,-1,8
 180 751 180 751 198.5 703.5 c 128,-1,9
 217 656 217 656 236.5 626.5 c 128,-1,10
 256 597 256 597 291 549 c 1,11,12
 340 591 340 591 340 650.5 c 128,-1,0
 340 710 340 710 323.5 746.5 c 128,-1,1
415 795.5 m 128,-1,14
 440 719 440 719 440 620.5 c 128,-1,15
 440 522 440 522 351 465 c 1,16,17
 425 349 425 349 425 246 c 0,18,19
 426 116 426 116 342 40 c 0,20,21
 298 0 298 0 251 0.5 c 128,-1,22
 204 1 204 1 171.5 24 c 128,-1,23
 139 47 139 47 139 74 c 0,24,25
 139 121 139 121 189 121 c 0,26,27
 211 121 211 121 232 109 c 1,28,29
 274 110 274 110 299.5 160 c 128,-1,30
 325 210 325 210 325 256.5 c 128,-1,31
 325 303 325 303 307 349 c 128,-1,32
 289 395 289 395 261.5 431.5 c 128,-1,33
 234 468 234 468 202.5 512.5 c 0,34,35
 172 556 172 556 144 598 c 0,36,37
 80 694 80 694 80 820 c 0,38,39
 80 878 80 878 103.5 931.5 c 128,-1,40
 127 985 127 985 171 1018 c 1,41,42
 113 1138 113 1138 113 1275 c 0,43,44
 113 1443 113 1443 280 1443 c 0,45,46
 310 1443 310 1443 345.5 1430 c 128,-1,47
 381 1417 381 1417 381 1393 c 128,-1,48
 381 1369 381 1369 362 1360.5 c 128,-1,49
 343 1352 343 1352 315.5 1351.5 c 128,-1,50
 288 1351 288 1351 260.5 1349 c 128,-1,51
 233 1347 233 1347 214 1329.5 c 128,-1,52
 195 1312 195 1312 195 1263 c 128,-1,53
 195 1214 195 1214 220 1152.5 c 128,-1,54
 245 1091 245 1091 281.5 1038 c 128,-1,55
 318 985 318 985 354 928.5 c 128,-1,13
 390 872 390 872 415 795.5 c 128,-1,14
EndSplineSet
EndChar

StartChar: dieresis
Encoding: 168 168 105
Width: 631
GlyphClass: 2
Flags: W
LayerCount: 2
Fore
SplineSet
220.5 975 m 128,-1,1
 195 954 195 954 165.5 954 c 128,-1,2
 136 954 136 954 120.5 973 c 128,-1,3
 105 992 105 992 105 1022 c 128,-1,4
 105 1052 105 1052 125 1073.5 c 128,-1,5
 145 1095 145 1095 174.5 1095 c 128,-1,6
 204 1095 204 1095 225 1075 c 128,-1,7
 246 1055 246 1055 246 1025.5 c 128,-1,0
 246 996 246 996 220.5 975 c 128,-1,1
404 975 m 128,-1,9
 385 996 385 996 385 1024 c 128,-1,10
 385 1052 385 1052 407 1075 c 128,-1,11
 429 1098 429 1098 457 1098 c 128,-1,12
 485 1098 485 1098 505.5 1075.5 c 128,-1,13
 526 1053 526 1053 526 1023.5 c 128,-1,14
 526 994 526 994 503 974 c 128,-1,15
 480 954 480 954 451.5 954 c 128,-1,8
 423 954 423 954 404 975 c 128,-1,9
EndSplineSet
EndChar

StartChar: copyright
Encoding: 169 169 106
Width: 1207
GlyphClass: 2
Flags: W
LayerCount: 2
Fore
SplineSet
144 329 m 0,0,1
 123 426 123 426 110.5 648.5 c 128,-1,2
 98 871 98 871 98 932.5 c 128,-1,3
 98 994 98 994 101.5 1063.5 c 128,-1,4
 105 1133 105 1133 117 1223.5 c 128,-1,5
 129 1314 129 1314 148 1393 c 128,-1,6
 167 1472 167 1472 201.5 1551 c 128,-1,7
 236 1630 236 1630 280 1686 c 0,8,9
 380 1812 380 1812 539 1812 c 0,10,11
 634 1812 634 1812 715.5 1771.5 c 128,-1,12
 797 1731 797 1731 854.5 1664 c 128,-1,13
 912 1597 912 1597 958 1506 c 128,-1,14
 1004 1415 1004 1415 1032 1319 c 128,-1,15
 1060 1223 1060 1223 1078 1118 c 0,16,17
 1110 934 1110 934 1110.5 804.5 c 128,-1,18
 1111 675 1111 675 1105.5 602 c 128,-1,19
 1100 529 1100 529 1084.5 448.5 c 128,-1,20
 1069 368 1069 368 1044 302 c 128,-1,21
 1019 236 1019 236 978.5 175 c 128,-1,22
 938 114 938 114 884 72 c 0,23,24
 767 -20 767 -20 595 -20 c 129,-1,25
 423 -20 423 -20 321 42 c 0,26,27
 188 122 188 122 144 329 c 0,0,1
973 483 m 1,28,-1
 997 589 l 1,29,-1
 997 894 l 2,30,31
 997 953 997 953 979.5 1026 c 128,-1,32
 962 1099 962 1099 948.5 1170 c 128,-1,33
 935 1241 935 1241 908.5 1326.5 c 128,-1,34
 882 1412 882 1412 824 1504 c 0,35,36
 762 1604 762 1604 644 1684 c 0,37,38
 602 1712 602 1712 546 1712.5 c 129,-1,39
 490 1713 490 1713 431.5 1672 c 128,-1,40
 373 1631 373 1631 336.5 1560.5 c 128,-1,41
 300 1490 300 1490 274.5 1410 c 128,-1,42
 249 1330 249 1330 237 1237 c 0,43,44
 215 1067 215 1067 215 940 c 1,45,-1
 216 940 l 1,46,47
 216 899 216 899 225.5 745 c 128,-1,48
 235 591 235 591 238.5 538 c 128,-1,49
 242 485 242 485 246.5 440 c 128,-1,50
 251 395 251 395 271.5 312 c 128,-1,51
 292 229 292 229 323.5 189 c 128,-1,52
 355 149 355 149 416 115 c 128,-1,53
 477 81 477 81 566.5 81 c 128,-1,54
 656 81 656 81 727 107.5 c 128,-1,55
 798 134 798 134 846 187 c 0,56,57
 933 284 933 284 976 464 c 1,58,59
 973 473 973 473 973 483 c 1,28,-1
441 911 m 1,60,-1
 440 911 l 1,61,62
 431 874 431 874 431 809 c 2,63,-1
 431 758 l 2,64,65
 431 455 431 455 532 365 c 0,66,67
 569 332 569 332 610 332 c 128,-1,68
 651 332 651 332 678.5 349 c 128,-1,69
 706 366 706 366 721 386 c 0,70,71
 761 440 761 440 794 440 c 0,72,73
 854 440 854 440 854 372 c 0,74,75
 854 332 854 332 812 296 c 0,76,77
 729 226 729 226 628 225 c 0,78,79
 575 225 575 225 513 255 c 128,-1,80
 451 285 451 285 436 291 c 1,81,82
 353 449 353 449 332 538.5 c 128,-1,83
 311 628 311 628 311 813 c 2,84,-1
 311 825 l 2,85,86
 311 999 311 999 319 1066 c 128,-1,87
 327 1133 327 1133 337 1189 c 128,-1,88
 347 1245 347 1245 360.5 1285.5 c 128,-1,89
 374 1326 374 1326 396 1368.5 c 128,-1,90
 418 1411 418 1411 446 1438 c 0,91,92
 508 1499 508 1499 590 1499 c 128,-1,93
 672 1499 672 1499 753.5 1425.5 c 128,-1,94
 835 1352 835 1352 835 1275 c 0,95,96
 835 1254 835 1254 820.5 1238.5 c 128,-1,97
 806 1223 806 1223 781.5 1223 c 128,-1,98
 757 1223 757 1223 736.5 1240 c 128,-1,99
 716 1257 716 1257 703 1281 c 128,-1,100
 690 1305 690 1305 678 1329 c 0,101,102
 648 1387 648 1387 607.5 1387 c 128,-1,103
 567 1387 567 1387 538.5 1358.5 c 128,-1,104
 510 1330 510 1330 494.5 1290.5 c 128,-1,105
 479 1251 479 1251 467 1192 c 128,-1,106
 455 1133 455 1133 451 1089.5 c 128,-1,107
 447 1046 447 1046 443 990.5 c 128,-1,108
 439 935 439 935 437 921 c 1,109,-1
 441 911 l 1,60,-1
EndSplineSet
EndChar

StartChar: ordfeminine
Encoding: 170 170 107
Width: 621
GlyphClass: 2
Flags: W
LayerCount: 2
Fore
SplineSet
475 76 m 1,0,-1
 93 66 l 2,1,2
 61 66 61 66 37.5 80 c 128,-1,3
 14 94 14 94 14 112.5 c 128,-1,4
 14 131 14 131 28.5 145.5 c 128,-1,5
 43 160 43 160 64 160 c 2,6,-1
 570 160 l 2,7,8
 620 160 620 160 620 124 c 0,9,10
 620 107 620 107 604 92.5 c 128,-1,11
 588 78 588 78 545.5 78 c 128,-1,12
 503 78 503 78 475 76 c 1,0,-1
451 645 m 1,13,14
 440 702 440 702 418 891 c 128,-1,15
 396 1080 396 1080 380 1184 c 1,16,17
 291 806 291 806 270 678 c 1,18,19
 305 655 305 655 451 645 c 1,13,14
619 311 m 2,20,-1
 619 309 l 2,21,22
 619 264 619 264 585 251 c 1,23,24
 542 251 542 251 518 265 c 128,-1,25
 494 279 494 279 494 319 c 0,26,27
 494 406 494 406 464 572 c 1,28,-1
 262 602 l 1,29,30
 243 534 243 534 233 453 c 128,-1,31
 223 372 223 372 214 335 c 0,32,33
 196 259 196 259 147 259 c 0,34,35
 123 259 123 259 102.5 274.5 c 128,-1,36
 82 290 82 290 82 314 c 0,37,38
 82 468 82 468 154 706 c 0,39,40
 234 973 234 973 252 1100 c 0,41,42
 254 1114 254 1114 258 1182 c 0,43,44
 268 1332 268 1332 296 1373 c 1,45,-1
 365 1373 l 2,46,47
 411 1373 411 1373 460 1225 c 0,48,49
 508 1078 508 1078 542 886 c 0,50,51
 618 448 618 448 619 311 c 2,20,-1
EndSplineSet
EndChar

StartChar: guillemotleft
Encoding: 171 171 108
Width: 681
GlyphClass: 2
Flags: W
LayerCount: 2
Fore
SplineSet
573 1447 m 1,0,-1
 580 1446 l 1,1,-1
 625 1411 l 1,2,3
 608 1277 608 1277 486 1037 c 0,4,5
 368 805 368 805 367 702 c 0,6,7
 367 687 367 687 504.5 410 c 128,-1,8
 642 133 642 133 678 69 c 1,9,-1
 704 49 l 1,10,11
 702 22 702 22 688.5 0 c 128,-1,12
 675 -22 675 -22 648.5 -22 c 128,-1,13
 622 -22 622 -22 610 -18 c 0,14,15
 578 -8 578 -8 250 698 c 1,16,17
 252 754 252 754 356 980 c 128,-1,18
 460 1206 460 1206 467.5 1232.5 c 128,-1,19
 475 1259 475 1259 482 1288.5 c 128,-1,20
 489 1318 489 1318 496 1340 c 0,21,22
 502 1362 502 1362 514 1390 c 0,23,24
 538 1448 538 1448 573 1447 c 1,0,-1
307 1485 m 1,25,-1
 326 1489 l 1,26,27
 350 1489 350 1489 369.5 1476 c 128,-1,28
 389 1463 389 1463 390 1440 c 1,29,30
 343 1332 343 1332 250.5 1075 c 128,-1,31
 158 818 158 818 96 687 c 1,32,33
 116 587 116 587 287 305 c 0,34,35
 453 31 453 31 453 -13 c 0,36,37
 453 -35 453 -35 432.5 -47 c 128,-1,38
 412 -59 412 -59 390 -59 c 128,-1,39
 368 -59 368 -59 268 110.5 c 128,-1,40
 168 280 168 280 76.5 467 c 128,-1,41
 -15 654 -15 654 -15 687 c 128,-1,42
 -15 720 -15 720 40.5 860 c 128,-1,43
 96 1000 96 1000 165.5 1166.5 c 128,-1,44
 235 1333 235 1333 246 1361 c 1,45,46
 249 1388 249 1388 268 1425 c 128,-1,47
 287 1462 287 1462 307 1483 c 1,48,-1
 307 1485 l 1,25,-1
EndSplineSet
EndChar

StartChar: logicalnot
Encoding: 172 172 109
Width: 467
GlyphClass: 2
Flags: W
LayerCount: 2
Fore
SplineSet
591 733 m 1,0,-1
 30 711 l 2,1,2
 9 711 9 711 -6 726.5 c 128,-1,3
 -21 742 -21 742 -21 763 c 0,4,5
 -21 835 -21 835 197 835 c 1,6,-1
 380 828 l 1,7,-1
 715 848 l 1,8,9
 740 848 740 848 761 831 c 128,-1,10
 782 814 782 814 782 783.5 c 128,-1,11
 782 753 782 753 763 720 c 1,12,13
 763 612 763 612 787 537 c 1,14,15
 784 513 784 513 769.5 494 c 128,-1,16
 755 475 755 475 733 475 c 0,17,18
 670 475 670 475 670 592 c 1,19,-1
 672 659 l 1,20,21
 672 700 672 700 667 727 c 1,22,-1
 591 733 l 1,0,-1
EndSplineSet
EndChar

StartChar: uni00AD
Encoding: 173 173 110
Width: 646
GlyphClass: 2
Flags: W
LayerCount: 2
Fore
SplineSet
523 781.5 m 128,-1,1
 544 765 544 765 544 739.5 c 128,-1,2
 544 714 544 714 495.5 695.5 c 0,3,4
 447 678 447 678 376 670 c 0,5,6
 248 656 248 656 169 656 c 0,7,8
 143 656 143 656 122.5 673 c 128,-1,9
 102 690 102 690 102 715 c 128,-1,10
 102 740 102 740 150.5 758 c 0,11,12
 200 776 200 776 270 784 c 0,13,14
 393 798 393 798 476 798 c 0,15,0
 502 798 502 798 523 781.5 c 128,-1,1
EndSplineSet
EndChar

StartChar: registered
Encoding: 174 174 111
Width: 1216
GlyphClass: 2
Flags: W
LayerCount: 2
Fore
SplineSet
778 -165.5 m 128,-1,1
 713 -190 713 -190 633.5 -190 c 128,-1,2
 554 -190 554 -190 485.5 -170 c 128,-1,3
 417 -150 417 -150 366.5 -117 c 128,-1,4
 316 -84 316 -84 275 -32.5 c 128,-1,5
 234 19 234 19 207 73 c 128,-1,6
 180 127 180 127 160 198.5 c 128,-1,7
 140 270 140 270 129 333.5 c 0,8,9
 118 398 118 398 112 478 c 0,10,11
 102 596 102 596 102 757 c 2,12,-1
 102 917 l 2,13,14
 102 1180 102 1180 121 1299 c 128,-1,15
 140 1418 140 1418 160 1496.5 c 128,-1,16
 180 1575 180 1575 207 1636.5 c 128,-1,17
 234 1698 234 1698 274.5 1756 c 128,-1,18
 315 1814 315 1814 365 1852 c 0,19,20
 476 1938 476 1938 632 1938 c 0,21,22
 720 1938 720 1938 802 1886 c 128,-1,23
 884 1834 884 1834 942 1755 c 1,24,25
 985 1729 985 1729 1020.5 1600 c 0,26,27
 1056 1470 1056 1470 1075 1310 c 0,28,29
 1114 981 1114 981 1114 855 c 128,-1,30
 1114 729 1114 729 1113.5 683 c 128,-1,31
 1113 637 1113 637 1108.5 547 c 128,-1,32
 1104 457 1104 457 1096 397.5 c 128,-1,33
 1088 338 1088 338 1071.5 254 c 128,-1,34
 1055 170 1055 170 1032 113.5 c 128,-1,35
 1009 57 1009 57 972 -5.5 c 128,-1,36
 935 -68 935 -68 889 -104.5 c 128,-1,0
 843 -141 843 -141 778 -165.5 c 128,-1,1
1000 706 m 2,37,-1
 1001 866 l 1,38,39
 1001 1119 1001 1119 977 1306.5 c 128,-1,40
 953 1494 953 1494 874 1655 c 0,41,42
 849 1705 849 1705 772.5 1768.5 c 128,-1,43
 696 1832 696 1832 647 1832 c 0,44,45
 222 1832 222 1832 222 954 c 0,46,47
 222 181 222 181 362 27 c 0,48,49
 383 4 383 4 427.5 -25 c 128,-1,50
 472 -54 472 -54 485 -64 c 1,51,-1
 545 -76 l 1,52,-1
 564 -84 l 1,53,54
 760 -81 760 -81 862 55 c 0,55,56
 925 140 925 140 948 226 c 128,-1,57
 971 312 971 312 979.5 363.5 c 0,58,59
 988 414 988 414 993 482 c 0,60,61
 1000 576 1000 576 1000 706 c 2,37,-1
424 208 m 2,62,-1
 425 256 l 1,63,64
 425 423 425 423 407.5 529.5 c 128,-1,65
 390 636 390 636 390 676 c 2,66,-1
 390 1075 l 2,67,68
 390 1138 390 1138 377.5 1264 c 128,-1,69
 365 1390 365 1390 365 1454 c 0,70,71
 365 1559 365 1559 418 1597 c 128,-1,72
 471 1635 471 1635 556 1635 c 128,-1,73
 641 1635 641 1635 685 1612 c 128,-1,74
 729 1589 729 1589 753.5 1554 c 128,-1,75
 778 1519 778 1519 793 1468 c 0,76,77
 817 1386 817 1386 817 1293.5 c 128,-1,78
 817 1201 817 1201 803.5 1148.5 c 128,-1,79
 790 1096 790 1096 770 1067.5 c 128,-1,80
 750 1039 750 1039 730.5 1021 c 128,-1,81
 711 1003 711 1003 695 990.5 c 128,-1,82
 679 978 679 978 676 969 c 1,83,84
 679 900 679 900 858 314 c 1,85,-1
 865 314 l 1,86,87
 865 292 865 292 880 255.5 c 128,-1,88
 895 219 895 219 895 200 c 128,-1,89
 895 181 895 181 875 162 c 128,-1,90
 855 143 855 143 838 143 c 0,91,92
 796 143 796 143 750.5 249 c 128,-1,93
 705 355 705 355 674.5 483 c 128,-1,94
 644 611 644 611 612.5 746.5 c 128,-1,95
 581 882 581 882 568 914 c 1,96,-1
 513 891 l 1,97,98
 508 811 508 811 508 754.5 c 128,-1,99
 508 698 508 698 530.5 503 c 128,-1,100
 553 308 553 308 553 210 c 0,101,102
 553 143 553 143 497 143 c 0,103,104
 469 143 469 143 446.5 161.5 c 128,-1,105
 424 180 424 180 424 208 c 2,62,-1
479 1407 m 1,106,-1
 487 1263 l 1,107,108
 487 1090 487 1090 510 1000 c 1,109,110
 695 1075 695 1075 695 1272 c 2,111,-1
 695 1280 l 2,112,113
 695 1389 695 1389 684 1422 c 128,-1,114
 673 1455 673 1455 662 1478 c 0,115,116
 640 1525 640 1525 582 1525 c 128,-1,117
 524 1525 524 1525 501.5 1494.5 c 128,-1,118
 479 1464 479 1464 479 1407 c 1,106,-1
EndSplineSet
EndChar

StartChar: macron
Encoding: 175 175 112
Width: 651
GlyphClass: 2
Flags: W
LayerCount: 2
Fore
SplineSet
194 800 m 1,0,-1
 338 804 l 1,1,2
 546 804 546 804 546 749 c 0,3,4
 546 704 546 704 480 704 c 1,5,-1
 332 700 l 1,6,7
 104 700 104 700 104 756 c 0,8,9
 104 800 104 800 194 800 c 1,0,-1
EndSplineSet
EndChar

StartChar: degree
Encoding: 176 176 113
Width: 728
GlyphClass: 2
Flags: W
LayerCount: 2
Fore
SplineSet
165 902.5 m 128,-1,1
 229 970 229 970 333 970 c 0,2,3
 520 970 520 970 592 854 c 0,4,5
 628 797 628 797 627.5 750.5 c 128,-1,6
 627 704 627 704 620.5 670 c 128,-1,7
 614 636 614 636 594 593.5 c 0,8,9
 574 552 574 552 544 518 c 0,10,11
 472 438 472 438 334 438 c 1,12,13
 266 438 266 438 217.5 467 c 128,-1,14
 169 496 169 496 145 543 c 0,15,16
 101 629 101 629 101 732 c 128,-1,0
 101 835 101 835 165 902.5 c 128,-1,1
343 901 m 128,-1,18
 282 901 282 901 243 863 c 0,19,20
 178 800 178 800 178 665 c 0,21,22
 178 617 178 617 228.5 566 c 128,-1,23
 279 515 279 515 336.5 515 c 128,-1,24
 394 515 394 515 434.5 531.5 c 128,-1,25
 475 548 475 548 497.5 572.5 c 128,-1,26
 520 597 520 597 534 628 c 0,27,28
 558 680 558 680 558.5 718 c 128,-1,29
 559 756 559 756 549 783 c 128,-1,30
 539 810 539 810 517 838 c 128,-1,31
 495 866 495 866 449.5 883.5 c 128,-1,17
 404 901 404 901 343 901 c 128,-1,18
EndSplineSet
EndChar

StartChar: plusminus
Encoding: 177 177 114
Width: 773
GlyphClass: 2
Flags: W
LayerCount: 2
Fore
SplineSet
614 145 m 1,0,-1
 182 135 l 1,1,2
 100 135 100 135 100 200 c 0,3,4
 100 221 100 221 112.5 233.5 c 128,-1,5
 125 246 125 246 146 246 c 2,6,-1
 448 246 l 1,7,-1
 574 253 l 1,8,9
 672 253 672 253 672 192 c 0,10,11
 672 145 672 145 614 145 c 1,0,-1
428 553 m 1,12,-1
 448 389 l 1,13,14
 448 364 448 364 427 348.5 c 128,-1,15
 406 333 406 333 381 333 c 128,-1,16
 356 333 356 333 335 347.5 c 128,-1,17
 314 362 314 362 314 385 c 2,18,-1
 320 584 l 1,19,-1
 302 599 l 1,20,-1
 188 590 l 1,21,22
 100 590 100 590 100 655 c 0,23,24
 100 676 100 676 112.5 692 c 128,-1,25
 125 708 125 708 146 708 c 1,26,-1
 268 701 l 1,27,28
 293 701 293 701 314 705 c 1,29,-1
 302 855 l 1,30,31
 302 968 302 968 368 968 c 0,32,33
 392 968 392 968 410 950.5 c 128,-1,34
 428 933 428 933 428 909 c 2,35,-1
 428 904 l 1,36,-1
 420 884 l 1,37,38
 420 701 420 701 448 701 c 1,39,-1
 566 709 l 1,40,41
 672 709 672 709 672 647 c 0,42,43
 672 623 672 623 655 607 c 128,-1,44
 638 591 638 591 614 591 c 1,45,-1
 494 602 l 1,46,47
 428 602 428 602 428 553 c 1,12,-1
EndSplineSet
EndChar

StartChar: acute
Encoding: 180 180 117
Width: 453
GlyphClass: 2
Flags: W
LayerCount: 2
Fore
SplineSet
41 1318 m 128,-1,1
 41 1329 41 1329 69.5 1355.5 c 128,-1,2
 98 1382 98 1382 198.5 1468 c 128,-1,3
 299 1554 299 1554 320 1573 c 1,4,5
 332 1577 332 1577 347 1577 c 128,-1,6
 362 1577 362 1577 383 1551.5 c 128,-1,7
 404 1526 404 1526 404 1502 c 128,-1,8
 404 1478 404 1478 389 1468 c 0,9,10
 311 1411 311 1411 91 1295 c 0,11,12
 83 1291 83 1291 72 1291 c 128,-1,13
 61 1291 61 1291 51 1299 c 128,-1,0
 41 1307 41 1307 41 1318 c 128,-1,1
EndSplineSet
EndChar

StartChar: uni00B5
Encoding: 181 181 118
AltUni2: 0003bc.ffffffff.0
Width: 641
GlyphClass: 2
Flags: W
LayerCount: 2
Fore
SplineSet
465 1307 m 1,0,-1
 464 1341 l 2,1,2
 464 1365 464 1365 475 1377 c 128,-1,3
 486 1389 486 1389 513.5 1389 c 0,4,5
 541 1388 541 1388 555 1380 c 0,6,7
 568 1372 568 1372 574 1356 c 0,8,9
 582 1331 582 1331 583 1290 c 1,10,-1
 569 1084 l 1,11,-1
 560 913 l 1,12,-1
 562 878 l 2,13,14
 562 869 562 869 557 846 c 128,-1,15
 552 823 552 823 547 730 c 128,-1,16
 542 637 542 637 540 543 c 128,-1,17
 538 449 538 449 524.5 343 c 128,-1,18
 511 237 511 237 488.5 156.5 c 128,-1,19
 466 76 466 76 417 22.5 c 128,-1,20
 368 -31 368 -31 299 -31 c 128,-1,21
 230 -31 230 -31 182 11 c 1,22,23
 186 -107 186 -107 186 -166 c 0,24,25
 186 -248 186 -248 121 -248 c 0,26,27
 100 -248 100 -248 87.5 -235.5 c 128,-1,28
 75 -223 75 -223 75 -202 c 2,29,-1
 75 99 l 1,30,-1
 68 475 l 1,31,-1
 68 484 l 1,32,-1
 79 1013 l 1,33,34
 79 1190 79 1190 54 1306 c 1,35,-1
 76 1355 l 1,36,37
 160 1355 160 1355 160 1232 c 2,38,-1
 160 675 l 2,39,40
 160 602 160 602 174.5 458 c 128,-1,41
 189 314 189 314 189 241 c 0,42,43
 189 31 189 31 319 31 c 0,44,45
 351 31 351 31 376 100.5 c 128,-1,46
 401 170 401 170 414 267 c 0,47,48
 439 454 439 454 439 559 c 1,49,50
 465 1021 465 1021 465 1307 c 1,0,-1
EndSplineSet
EndChar

StartChar: paragraph
Encoding: 182 182 119
Width: 887
GlyphClass: 2
Flags: W
LayerCount: 2
Fore
SplineSet
506 1200 m 1,0,-1
 486 1697 l 1,1,-1
 488 1740 l 1,2,3
 461 1748 461 1748 406 1748 c 0,4,5
 300 1748 300 1748 224.5 1655 c 128,-1,6
 149 1562 149 1562 149 1454 c 1,7,-1
 148 1455 l 1,8,9
 148 1266 148 1266 287 1220 c 0,10,11
 361 1196 361 1196 491 1196 c 1,12,-1
 506 1200 l 1,0,-1
803 1738 m 2,13,-1
 780 1739 l 1,14,-1
 794 1142 l 1,15,-1
 782 265 l 1,16,-1
 794 36 l 1,17,18
 794 12 794 12 777 -4 c 128,-1,19
 760 -20 760 -20 736 -20 c 0,20,21
 661 -20 661 -20 661 103 c 1,22,-1
 680 1177 l 1,23,-1
 665 1623 l 1,24,-1
 668 1689 l 1,25,26
 668 1769 668 1769 606 1769 c 0,27,28
 597 1769 597 1769 597 1669.5 c 128,-1,29
 597 1570 597 1570 610.5 1334 c 128,-1,30
 624 1098 624 1098 624 962.5 c 128,-1,31
 624 827 624 827 605 522 c 128,-1,32
 586 217 586 217 586 64 c 0,33,34
 586 28 586 28 573.5 10 c 128,-1,35
 561 -8 561 -8 530.5 -8 c 128,-1,36
 500 -8 500 -8 482.5 10.5 c 128,-1,37
 465 29 465 29 465 56 c 0,38,39
 465 208 465 208 486.5 510 c 128,-1,40
 508 812 508 812 508 964 c 1,41,-1
 504 1098 l 1,42,43
 289 1098 289 1098 179 1154 c 0,44,45
 134 1176 134 1176 98 1220 c 0,46,47
 56 1269 56 1269 44 1349 c 0,48,49
 40 1372 40 1372 36 1384 c 1,50,51
 36 1566 36 1566 92 1660 c 0,52,53
 151 1759 151 1759 257.5 1799 c 128,-1,54
 364 1839 364 1839 531 1854 c 1,55,56
 553 1876 553 1876 581 1876 c 128,-1,57
 609 1876 609 1876 638.5 1868 c 128,-1,58
 668 1860 668 1860 673 1859 c 1,59,-1
 672 1858 l 1,60,-1
 728 1865 l 1,61,-1
 737 1854 l 1,62,63
 815 1849 815 1849 846 1820 c 0,64,65
 860 1807 860 1807 860 1787.5 c 128,-1,66
 860 1768 860 1768 843 1753 c 128,-1,67
 826 1738 826 1738 803 1738 c 2,13,-1
EndSplineSet
EndChar

StartChar: periodcentered
Encoding: 183 183 120
Width: 295
GlyphClass: 2
Flags: W
LayerCount: 2
Fore
SplineSet
94.5 655.5 m 128,-1,1
 74 678 74 678 74 707.5 c 128,-1,2
 74 737 74 737 97 761 c 128,-1,3
 120 785 120 785 150 785 c 128,-1,4
 180 785 180 785 202 761 c 128,-1,5
 224 737 224 737 224 705.5 c 128,-1,6
 224 674 224 674 201 653.5 c 128,-1,7
 178 633 178 633 146.5 633 c 128,-1,0
 115 633 115 633 94.5 655.5 c 128,-1,1
EndSplineSet
EndChar

StartChar: cedilla
Encoding: 184 184 121
Width: 404
GlyphClass: 2
Flags: W
LayerCount: 2
Fore
SplineSet
82 -207 m 1,0,-1
 91 -41 l 1,1,2
 91 -2 91 -2 97 18 c 1,3,-1
 153 18 l 1,4,5
 143 -33 143 -33 140 -91 c 1,6,7
 249 -106 249 -106 299 -169 c 128,-1,8
 349 -232 349 -232 349 -305 c 128,-1,9
 349 -378 349 -378 296 -431 c 128,-1,10
 243 -484 243 -484 189 -484 c 128,-1,11
 135 -484 135 -484 96.5 -469 c 128,-1,12
 58 -454 58 -454 58 -430.5 c 128,-1,13
 58 -407 58 -407 72 -394 c 128,-1,14
 86 -381 86 -381 102.5 -381 c 128,-1,15
 119 -381 119 -381 145 -392 c 128,-1,16
 171 -403 171 -403 196.5 -403 c 128,-1,17
 222 -403 222 -403 242 -374.5 c 128,-1,18
 262 -346 262 -346 262 -308.5 c 128,-1,19
 262 -271 262 -271 235.5 -245 c 128,-1,20
 209 -219 209 -219 147 -219 c 128,-1,21
 85 -219 85 -219 82 -207 c 1,0,-1
EndSplineSet
EndChar

StartChar: ordmasculine
Encoding: 186 186 123
Width: 621
GlyphClass: 2
Flags: W
LayerCount: 2
Fore
SplineSet
51 736 m 1,0,-1
 49 880 l 1,1,2
 49 1378 49 1378 204 1378 c 0,3,4
 442 1378 442 1378 532 1184 c 0,5,6
 584 1072 584 1072 584 908 c 2,7,-1
 584 893 l 1,8,-1
 588 661 l 1,9,10
 588 269 588 269 315 269 c 0,11,12
 202 269 202 269 142 357 c 0,13,14
 85 442 85 442 72 523 c 0,15,16
 51 645 51 645 51 736 c 1,0,-1
478 674 m 2,17,-1
 479 808 l 1,18,19
 479 1026 479 1026 448 1117 c 0,20,21
 412 1219 412 1219 358 1250 c 0,22,23
 324 1269 324 1269 285.5 1269 c 128,-1,24
 247 1269 247 1269 223.5 1251 c 0,25,26
 200 1234 200 1234 189 1200 c 0,27,28
 170 1142 170 1142 170 1057 c 1,29,-1
 172 1016 l 1,30,-1
 162 827 l 1,31,32
 162 536 162 536 240 424 c 0,33,34
 268 384 268 384 303.5 384 c 128,-1,35
 339 384 339 384 365.5 397 c 128,-1,36
 392 410 392 410 409.5 430.5 c 128,-1,37
 427 451 427 451 440 479 c 128,-1,38
 453 507 453 507 460 533.5 c 0,39,40
 468 560 468 560 472 590 c 0,41,42
 478 632 478 632 478 674 c 2,17,-1
564 78 m 2,43,-1
 93 66 l 2,44,45
 61 66 61 66 37.5 80 c 128,-1,46
 14 94 14 94 14 112.5 c 128,-1,47
 14 131 14 131 28.5 145.5 c 128,-1,48
 43 160 43 160 64 160 c 2,49,-1
 570 160 l 2,50,51
 620 160 620 160 620 124 c 0,52,53
 620 107 620 107 604 92.5 c 128,-1,54
 588 78 588 78 564 78 c 2,43,-1
EndSplineSet
EndChar

StartChar: guillemotright
Encoding: 187 187 124
Width: 682
GlyphClass: 2
Flags: W
LayerCount: 2
Fore
SplineSet
70 -19 m 1,0,-1
 32 -23 l 1,1,2
 7 -23 7 -23 -7 -0.5 c 128,-1,3
 -21 22 -21 22 -22 49 c 1,4,-1
 3 69 l 1,5,6
 43 144 43 144 178 416 c 128,-1,7
 313 688 313 688 313 702 c 0,8,9
 312 804 312 804 222 982 c 0,10,11
 184 1056 184 1056 148 1129 c 0,12,13
 58 1306 58 1306 56 1411 c 1,14,-1
 101 1446 l 1,15,-1
 111 1444 l 1,16,17
 153 1424 153 1424 171 1382 c 0,18,19
 187 1343 187 1343 195 1306 c 128,-1,20
 203 1269 203 1269 212 1237 c 128,-1,21
 221 1205 221 1205 325 981 c 128,-1,22
 429 757 429 757 431 698 c 1,23,-1
 74 -19 l 1,24,-1
 70 -19 l 1,0,-1
357 1490 m 1,25,-1
 372 1486 l 1,26,-1
 375 1486 l 1,27,-1
 375 1484 l 1,28,-1
 376 1485 l 1,29,30
 397 1464 397 1464 415.5 1428 c 128,-1,31
 434 1392 434 1392 438 1363 c 1,32,33
 448 1337 448 1337 518 1169 c 0,34,35
 698 737 698 737 698 697.5 c 128,-1,36
 698 658 698 658 606.5 470.5 c 128,-1,37
 515 283 515 283 415.5 113.5 c 128,-1,38
 316 -56 316 -56 293.5 -56 c 128,-1,39
 271 -56 271 -56 250.5 -44 c 128,-1,40
 230 -32 230 -32 230 -8 c 128,-1,41
 230 16 230 16 281.5 110 c 128,-1,42
 333 204 333 204 396 308 c 0,43,44
 568 593 568 593 588 689 c 1,45,46
 528 815 528 815 477 984 c 0,47,48
 385 1293 385 1293 292 1433 c 1,49,50
 294 1458 294 1458 312.5 1474 c 128,-1,51
 331 1490 331 1490 357 1490 c 1,25,-1
EndSplineSet
EndChar

StartChar: AE
Encoding: 198 198 135
Width: 879
GlyphClass: 2
Flags: W
LayerCount: 2
Fore
SplineSet
453 706 m 1,0,1
 454 756 454 756 457.5 912 c 128,-1,2
 461 1068 461 1068 461 1154 c 128,-1,3
 461 1240 461 1240 459 1283 c 1,4,5
 346 906 346 906 300 688 c 1,6,7
 397 694 397 694 453 706 c 1,0,1
555 82 m 1,8,-1
 782 103 l 1,9,10
 807 103 807 103 828.5 89.5 c 128,-1,11
 850 76 850 76 850 53 c 0,12,13
 850 -12 850 -12 606 -12 c 2,14,-1
 574 -12 l 2,15,16
 558 -12 558 -12 532 -26.5 c 128,-1,17
 506 -41 506 -41 493 -43 c 1,18,-1
 448 2 l 1,19,-1
 450 3 l 1,20,21
 467 179 467 179 467 253 c 1,22,-1
 457 633 l 1,23,24
 442 632 442 632 413.5 630.5 c 0,25,26
 385 630 385 630 367 628 c 0,27,28
 315 624 315 624 280 611 c 1,29,-1
 179 226 l 2,30,31
 177 217 177 217 168.5 172 c 128,-1,32
 160 127 160 127 152 94 c 128,-1,33
 144 61 144 61 125.5 31 c 128,-1,34
 107 1 107 1 87.5 1 c 128,-1,35
 68 1 68 1 56 16 c 128,-1,36
 44 31 44 31 44 48 c 0,37,38
 44 280 44 280 396 1380 c 1,39,40
 396 1396 396 1396 406 1421 c 128,-1,41
 416 1446 416 1446 424 1467.5 c 128,-1,42
 432 1489 432 1489 439.5 1498 c 0,43,44
 447 1506 447 1506 458 1520 c 0,45,46
 477 1544 477 1544 512 1544 c 1,47,-1
 670 1554 l 1,48,49
 757 1554 757 1554 757 1498 c 2,50,-1
 757 1492 l 1,51,-1
 736 1450 l 1,52,53
 633 1450 633 1450 542 1440 c 1,54,-1
 556 1166 l 1,55,-1
 550 716 l 1,56,57
 570 718 570 718 620 726.5 c 128,-1,58
 670 735 670 735 698 735 c 2,59,-1
 708 735 l 1,60,-1
 750 687 l 1,61,62
 750 621 750 621 637 621 c 2,63,-1
 628 621 l 1,64,-1
 549 622 l 1,65,-1
 555 82 l 1,8,-1
EndSplineSet
EndChar

StartChar: Eth
Encoding: 208 208 145
Width: 810
GlyphClass: 2
Flags: W
LayerCount: 2
Fore
SplineSet
588 754 m 1,0,-1
 593 711 l 1,1,2
 594 566 594 566 516 369 c 0,3,4
 428 144 428 144 308 50 c 0,5,6
 240 -4 240 -4 168 -5 c 0,7,8
 130 -5 130 -5 99 12.5 c 128,-1,9
 68 30 68 30 68 65 c 1,10,11
 113 112 113 112 113 306 c 0,12,13
 113 427 113 427 99 589.5 c 128,-1,14
 85 752 85 752 82 802 c 1,15,16
 40 795 40 795 12 795 c 128,-1,17
 -16 795 -16 795 -30 812.5 c 128,-1,18
 -44 830 -44 830 -44 854 c 128,-1,19
 -44 878 -44 878 -22 892 c 0,20,21
 11 914 11 914 76 914 c 1,22,23
 75 937 75 937 75 982 c 1,24,-1
 81 1206 l 1,25,26
 81 1260 81 1260 58.5 1351.5 c 128,-1,27
 36 1443 36 1443 36 1481 c 0,28,29
 36 1552 36 1552 193 1552 c 2,30,-1
 224 1552 l 2,31,32
 433 1552 433 1552 527 1318 c 0,33,34
 593 1155 593 1155 593 868 c 2,35,-1
 593 773 l 1,36,37
 588 764 588 764 588 754 c 1,0,-1
190 814 m 1,38,39
 211 493 211 493 211 310 c 2,40,-1
 211 114 l 1,41,42
 288 164 288 164 345 253.5 c 128,-1,43
 402 343 402 343 432 449 c 0,44,45
 488 652 488 652 488 854 c 0,46,47
 488 1086 488 1086 430 1220 c 0,48,49
 371 1358 371 1358 284 1402 c 0,50,51
 230 1430 230 1430 162 1429 c 1,52,-1
 162 1427 l 2,53,54
 162 1243 162 1243 183 924 c 1,55,56
 309 940 309 940 342.5 940 c 128,-1,57
 376 940 376 940 394 915 c 128,-1,58
 412 890 412 890 414 860 c 1,59,-1
 380 819 l 1,60,61
 269 819 269 819 190 814 c 1,38,39
EndSplineSet
EndChar

StartChar: multiply
Encoding: 215 215 152
Width: 684
GlyphClass: 2
Flags: W
LayerCount: 2
Fore
SplineSet
479 412 m 1,0,1
 471 420 471 420 436 458 c 0,2,3
 344 559 344 559 333 562 c 1,4,5
 322 561 322 561 298 528 c 0,6,7
 225 430 225 430 181 430 c 0,8,9
 158 430 158 430 138.5 449 c 128,-1,10
 119 468 119 468 119 487.5 c 128,-1,11
 119 507 119 507 146 535 c 128,-1,12
 173 563 173 563 208 593.5 c 128,-1,13
 243 624 243 624 253 638 c 1,14,15
 248 643 248 643 195 685 c 0,16,17
 88 770 88 770 88 823 c 0,18,19
 88 846 88 846 106.5 863 c 128,-1,20
 125 880 125 880 142.5 880 c 128,-1,21
 160 880 160 880 198 848 c 128,-1,22
 236 816 236 816 283 771.5 c 128,-1,23
 330 727 330 727 337 721 c 1,24,25
 365 735 365 735 399 781 c 0,26,27
 462 866 462 866 510 866 c 1,28,29
 531 866 531 866 547.5 849 c 128,-1,30
 564 832 564 832 564 810.5 c 128,-1,31
 564 789 564 789 542.5 766 c 0,32,33
 521 742 521 742 495 726 c 0,34,35
 426 682 426 682 426 643 c 0,36,37
 426 608 426 608 505.5 560.5 c 128,-1,38
 585 513 585 513 585 478.5 c 128,-1,39
 585 444 585 444 562.5 421.5 c 128,-1,40
 540 399 540 399 512 399 c 1,41,-1
 479 412 l 1,0,1
EndSplineSet
EndChar

StartChar: Oslash
Encoding: 216 216 153
Width: 728
GlyphClass: 2
Flags: W
LayerCount: 2
Fore
SplineSet
329 1477 m 0,0,1
 280 1476 280 1476 252 1396 c 0,2,3
 221 1308 221 1308 214 1231.5 c 128,-1,4
 207 1155 207 1155 203 1108.5 c 0,5,6
 200 1062 200 1062 198 1006 c 0,7,8
 196 913 196 913 195 861 c 2,9,-1
 195 852 l 2,10,11
 195 648 195 648 240 396 c 1,12,-1
 422 1415 l 1,13,14
 382 1477 382 1477 329 1477 c 0,0,1
471 1299 m 1,15,-1
 276 239 l 1,16,17
 329 55 329 55 405 55 c 0,18,19
 446 55 446 55 474.5 132 c 0,20,21
 502 210 502 210 514 324 c 0,22,23
 534 528 534 528 535 653 c 0,24,25
 535 1080 535 1080 471 1299 c 1,15,-1
628 618 m 1,26,-1
 610 359 l 1,27,-1
 610 350 l 1,28,29
 597 293 597 293 597 227 c 128,-1,30
 597 161 597 161 574 99.5 c 128,-1,31
 551 38 551 38 504 -9.5 c 128,-1,32
 457 -57 457 -57 405 -57 c 128,-1,33
 353 -57 353 -57 318 -31 c 128,-1,34
 283 -5 283 -5 250 47 c 1,35,-1
 178 -280 l 1,36,-1
 133 -224 l 1,37,-1
 195 143 l 1,38,39
 142 281 142 281 122.5 467 c 128,-1,40
 103 653 103 653 103 799 c 1,41,-1
 100 1039 l 1,42,43
 100 1247 100 1247 117.5 1326.5 c 128,-1,44
 135 1406 135 1406 151.5 1449 c 128,-1,45
 168 1492 168 1492 190 1521 c 0,46,47
 240 1585 240 1585 315.5 1585 c 128,-1,48
 391 1585 391 1585 445 1545 c 1,49,-1
 490 1799 l 1,50,-1
 569 1799 l 1,51,-1
 505 1481 l 1,52,53
 629 1300 629 1300 629 734 c 1,54,-1
 628 618 l 1,26,-1
EndSplineSet
EndChar

StartChar: Thorn
Encoding: 222 222 159
Width: 495
GlyphClass: 2
Flags: W
LayerCount: 2
Fore
SplineSet
182 601 m 1,0,1
 337 748 337 748 337 948 c 0,2,3
 337 1098 337 1098 283 1160 c 0,4,5
 255 1192 255 1192 184 1249 c 1,6,-1
 178 1249 l 1,7,8
 178 1141 178 1141 180 925 c 128,-1,9
 182 709 182 709 182 601 c 1,0,1
86 58 m 2,10,-1
 64 1297 l 1,11,12
 62 1487 l 2,13,14
 62 1548 62 1548 113 1548 c 0,15,16
 183 1548 183 1548 183 1424 c 1,17,18
 181 1353 l 1,19,20
 266 1341 266 1341 328 1277 c 0,21,22
 442 1158 442 1158 443 965 c 0,23,24
 443 815 443 815 378 692.5 c 128,-1,25
 313 570 313 570 187 502 c 1,26,-1
 203 74 l 1,27,28
 203 -11 203 -11 135 -11 c 0,29,30
 110 -11 110 -11 98 10.5 c 128,-1,31
 86 32 86 32 86 58 c 2,10,-1
EndSplineSet
EndChar

StartChar: germandbls
Encoding: 223 223 160
Width: 576
GlyphClass: 2
Flags: W
LayerCount: 2
Fore
SplineSet
88 538 m 1,0,-1
 73 1249 l 1,1,2
 73 1490 73 1490 187 1562 c 0,3,4
 224 1586 224 1586 275 1585.5 c 128,-1,5
 326 1585 326 1585 366 1550.5 c 128,-1,6
 406 1516 406 1516 426 1460 c 0,7,8
 462 1358 462 1358 461 1249 c 0,9,10
 461 1066 461 1066 335 859 c 1,11,12
 445 776 445 776 482.5 685.5 c 128,-1,13
 520 595 520 595 520 462 c 0,14,15
 520 193 520 193 338 49 c 1,16,-1
 323 45 l 1,17,18
 306 45 306 45 290 55 c 128,-1,19
 274 65 274 65 274 81 c 128,-1,20
 274 97 274 97 297 131 c 128,-1,21
 320 165 320 165 347.5 201 c 128,-1,22
 375 237 375 237 398 294 c 128,-1,23
 421 351 421 351 421 433 c 128,-1,24
 421 515 421 515 402.5 592.5 c 128,-1,25
 384 670 384 670 358 708.5 c 128,-1,26
 332 747 332 747 306 772 c 128,-1,27
 280 797 280 797 261.5 815.5 c 128,-1,28
 243 834 243 834 243 851.5 c 0,29,30
 242 869 242 869 272 940 c 0,31,32
 360 1153 360 1153 361 1274 c 0,33,34
 361 1323 361 1323 347 1374 c 0,35,36
 307 1458 307 1458 271 1473 c 1,37,38
 198 1473 198 1473 178 1346 c 0,39,40
 174 1318 174 1318 173.5 1202 c 128,-1,41
 173 1086 173 1086 188.5 670.5 c 128,-1,42
 204 255 204 255 204 46 c 0,43,44
 204 3 204 3 190.5 -22 c 128,-1,45
 177 -47 177 -47 138 -47 c 0,46,47
 78 -47 78 -47 78 4 c 2,48,-1
 88 538 l 1,0,-1
EndSplineSet
EndChar

StartChar: ae
Encoding: 230 230 167
Width: 879
GlyphClass: 2
Flags: W
LayerCount: 2
Fore
SplineSet
573 -14 m 1,0,-1
 493 -13 l 2,1,2
 479 -13 479 -13 465 -4 c 128,-1,3
 451 5 451 5 451 19 c 2,4,-1
 467 253 l 1,5,-1
 457 593 l 1,6,7
 442 592 442 592 413.5 590.5 c 0,8,9
 385 590 385 590 367 588 c 0,10,11
 315 584 315 584 280 571 c 1,12,-1
 179 226 l 2,13,14
 176 216 176 216 168 171.5 c 128,-1,15
 160 127 160 127 152 93.5 c 128,-1,16
 144 60 144 60 126 30.5 c 128,-1,17
 108 1 108 1 88 1 c 128,-1,18
 68 1 68 1 56 16 c 128,-1,19
 44 31 44 31 44 48 c 0,20,21
 44 117 44 117 91 284 c 128,-1,22
 138 451 138 451 187 593 c 128,-1,23
 236 735 236 735 310.5 941.5 c 128,-1,24
 385 1148 385 1148 392.5 1169.5 c 128,-1,25
 400 1191 400 1191 408.5 1220.5 c 128,-1,26
 417 1250 417 1250 423 1264.5 c 0,27,28
 428 1279 428 1279 440 1299 c 0,29,30
 462 1338 462 1338 525 1346 c 128,-1,31
 588 1354 588 1354 672.5 1354 c 128,-1,32
 757 1354 757 1354 757 1298 c 2,33,-1
 757 1292 l 1,34,-1
 736 1250 l 1,35,36
 672 1240 672 1240 542 1240 c 1,37,-1
 556 966 l 1,38,-1
 550 676 l 1,39,-1
 708 685 l 1,40,-1
 750 647 l 1,41,42
 750 597 750 597 650 597 c 2,43,-1
 628 597 l 1,44,-1
 549 598 l 1,45,-1
 555 82 l 1,46,-1
 782 103 l 1,47,48
 807 103 807 103 828.5 89.5 c 128,-1,49
 850 76 850 76 850 53 c 0,50,51
 850 -14 850 -14 573 -14 c 1,0,-1
453 666 m 1,52,53
 454 698 454 698 457.5 798 c 128,-1,54
 461 898 461 898 461 969 c 128,-1,55
 461 1040 461 1040 459 1083 c 1,56,57
 445 1047 445 1047 423 994 c 128,-1,58
 401 941 401 941 385 900.5 c 128,-1,59
 369 860 369 860 360.5 835.5 c 128,-1,60
 352 811 352 811 340 776 c 0,61,62
 317 711 317 711 300 648 c 1,63,64
 387 651 387 651 453 666 c 1,52,53
EndSplineSet
EndChar

StartChar: eth
Encoding: 240 240 177
Width: 473
GlyphClass: 2
Flags: W
LayerCount: 2
Fore
SplineSet
187 390 m 1,0,-1
 186 325 l 1,1,2
 186 72 186 72 254 72 c 0,3,4
 314 72 314 72 321 152 c 0,5,6
 322 164 322 164 322.5 184 c 128,-1,7
 323 204 323 204 334 346.5 c 128,-1,8
 345 489 345 489 345 669 c 128,-1,9
 345 849 345 849 286 885 c 1,10,11
 187 859 187 859 187 390 c 1,0,-1
476 1355 m 0,12,13
 493 1355 493 1355 493 1326 c 0,14,15
 493 1287 493 1287 388 1267 c 1,16,17
 440 1025 440 1025 440 641 c 1,18,-1
 431 283 l 1,19,20
 431 119 431 119 391 53 c 0,21,22
 350 -15 350 -15 259 -15 c 0,23,24
 180 -15 180 -15 143 39.5 c 128,-1,25
 106 94 106 94 99 149 c 0,26,27
 88 227 88 227 88 305 c 1,28,29
 85 340 85 340 85 402.5 c 128,-1,30
 85 465 85 465 88.5 528.5 c 128,-1,31
 92 592 92 592 105.5 673 c 128,-1,32
 119 754 119 754 141 813.5 c 128,-1,33
 163 873 163 873 204 914.5 c 128,-1,34
 245 956 245 956 299 956 c 0,35,36
 307 956 307 956 325 954 c 1,37,38
 300 1143 300 1143 277 1251 c 1,39,40
 193 1242 193 1242 108 1242 c 0,41,42
 91 1242 91 1242 91 1272 c 0,43,44
 91 1319 91 1319 257 1340 c 1,45,46
 228 1451 228 1451 201 1473 c 1,47,48
 171 1478 171 1478 145 1495 c 128,-1,49
 119 1512 119 1512 119 1534.5 c 128,-1,50
 119 1557 119 1557 136 1569.5 c 128,-1,51
 153 1582 153 1582 172 1582 c 0,52,53
 299 1582 299 1582 366 1351 c 1,54,55
 440 1355 440 1355 476 1355 c 0,12,13
EndSplineSet
EndChar

StartChar: divide
Encoding: 247 247 184
Width: 684
GlyphClass: 2
Flags: W
LayerCount: 2
Fore
SplineSet
390 484.5 m 128,-1,1
 411 459 411 459 411 429.5 c 128,-1,2
 411 400 411 400 392 384.5 c 128,-1,3
 373 369 373 369 343 369 c 128,-1,4
 313 369 313 369 291.5 389 c 128,-1,5
 270 409 270 409 270 438.5 c 128,-1,6
 270 468 270 468 290 489 c 128,-1,7
 310 510 310 510 339.5 510 c 128,-1,0
 369 510 369 510 390 484.5 c 128,-1,1
390 808 m 128,-1,9
 369 789 369 789 341 789 c 128,-1,10
 313 789 313 789 290 811 c 128,-1,11
 267 833 267 833 267 861 c 128,-1,12
 267 889 267 889 289.5 909.5 c 128,-1,13
 312 930 312 930 341.5 930 c 128,-1,14
 371 930 371 930 391 907 c 128,-1,15
 411 884 411 884 411 855.5 c 128,-1,8
 411 827 411 827 390 808 c 128,-1,9
571 600 m 1,16,-1
 139 590 l 1,17,18
 57 590 57 590 57 655 c 0,19,20
 57 676 57 676 69.5 688.5 c 128,-1,21
 82 701 82 701 103 701 c 2,22,-1
 404 701 l 1,23,-1
 530 708 l 1,24,25
 629 708 629 708 629 647 c 0,26,27
 629 600 629 600 571 600 c 1,16,-1
EndSplineSet
EndChar

StartChar: oslash
Encoding: 248 248 185
Width: 741
GlyphClass: 2
Flags: W
LayerCount: 2
Fore
SplineSet
636 783 m 1,0,-1
 640 551 l 1,1,2
 640 -38 640 -38 367 -38 c 0,3,4
 323 -38 323 -38 286 -17 c 1,5,-1
 242 -274 l 1,6,-1
 192 -227 l 1,7,-1
 230 32 l 1,8,9
 130 154 130 154 108 480 c 0,10,11
 103 552 103 552 103 626 c 1,12,-1
 105 704 l 2,13,14
 105 714 105 714 102 714 c 1,15,-1
 102 751 l 2,16,17
 102 1073 102 1073 139 1209 c 0,18,19
 170 1324 170 1324 199 1351 c 128,-1,20
 228 1378 228 1378 256 1378 c 0,21,22
 353 1378 353 1378 426 1338 c 1,23,-1
 462 1560 l 1,24,-1
 523 1560 l 1,25,-1
 483 1296 l 1,26,27
 636 1156 636 1156 636 798 c 2,28,-1
 636 783 l 1,0,-1
302 89 m 1,29,30
 327 47 327 47 361.5 47 c 128,-1,31
 396 47 396 47 426 77 c 128,-1,32
 456 107 456 107 473.5 157.5 c 128,-1,33
 491 208 491 208 503 263.5 c 0,34,35
 514 319 514 319 520 382 c 0,36,37
 530 491 530 491 530 568 c 128,-1,38
 530 645 530 645 516.5 804 c 128,-1,39
 503 963 503 963 503 1041 c 2,40,-1
 503 1077 l 1,41,42
 501 1140 501 1140 468 1192 c 1,43,-1
 302 89 l 1,29,30
224 906 m 1,44,-1
 214 717 l 1,45,46
 214 407 214 407 258 215 c 1,47,-1
 412 1247 l 1,48,49
 376 1269 376 1269 337.5 1269 c 128,-1,50
 299 1269 299 1269 275.5 1248.5 c 128,-1,51
 252 1228 252 1228 241 1190 c 0,52,53
 222 1124 222 1124 222 1027 c 1,54,-1
 224 906 l 1,44,-1
EndSplineSet
EndChar

StartChar: thorn
Encoding: 254 254 191
Width: 495
GlyphClass: 2
Flags: W
LayerCount: 2
Fore
SplineSet
182 571 m 1,0,1
 337 677 337 677 337 819 c 0,2,3
 337 894 337 894 332 932 c 128,-1,4
 327 970 327 970 307.5 1004.5 c 128,-1,5
 288 1039 288 1039 263 1062.5 c 128,-1,6
 238 1086 238 1086 184 1129 c 1,7,-1
 178 1129 l 1,8,9
 178 1036 178 1036 180 850 c 128,-1,10
 182 664 182 664 182 571 c 1,0,1
86 58 m 2,11,-1
 64 1178 l 1,12,13
 62 1487 l 2,14,15
 62 1548 62 1548 113 1548 c 0,16,17
 188 1548 188 1548 188 1380 c 1,18,19
 181 1233 l 1,20,21
 266 1221 266 1221 328 1157 c 0,22,23
 442 1038 442 1038 443 845 c 0,24,25
 443 716 443 716 375.5 620 c 128,-1,26
 308 524 308 524 187 472 c 1,27,-1
 203 74 l 1,28,29
 203 -11 203 -11 135 -11 c 0,30,31
 110 -11 110 -11 98 10 c 128,-1,32
 86 31 86 31 86 58 c 2,11,-1
EndSplineSet
EndChar

StartChar: Dcroat
Encoding: 272 272 209
Width: 653
GlyphClass: 2
Flags: W
LayerCount: 2
Fore
SplineSet
305 746 m 1,0,-1
 195 742 l 1,1,2
 211 486 211 486 211 310 c 2,3,-1
 211 114 l 1,4,5
 288 164 288 164 345 253.5 c 128,-1,6
 402 343 402 343 432 449 c 0,7,8
 488 652 488 652 488 854 c 0,9,10
 488 1086 488 1086 430 1220 c 0,11,12
 371 1358 371 1358 284 1402 c 0,13,14
 230 1430 230 1430 162 1429 c 1,15,-1
 162 1427 l 1,16,17
 163 1217 163 1217 188 847 c 1,18,-1
 199 847 l 2,19,20
 271 847 271 847 321 833 c 128,-1,21
 371 819 371 819 371 791 c 0,22,23
 371 746 371 746 305 746 c 1,0,-1
588 754 m 1,24,-1
 593 711 l 1,25,26
 594 566 594 566 516 369 c 0,27,28
 428 144 428 144 308 50 c 0,29,30
 240 -4 240 -4 168 -5 c 0,31,32
 130 -5 130 -5 99 12.5 c 128,-1,33
 68 30 68 30 68 65 c 1,34,35
 113 112 113 112 113 306 c 0,36,37
 113 438 113 438 86 744 c 1,38,39
 -71 752 -71 752 -71 797 c 128,-1,40
 -71 842 -71 842 19 842 c 0,41,42
 51 842 51 842 79 843 c 1,43,44
 75 904 75 904 75 982 c 1,45,46
 81 1206 l 1,47,48
 81 1260 81 1260 58.5 1351.5 c 128,-1,49
 36 1443 36 1443 36 1481 c 0,50,51
 36 1552 36 1552 193 1552 c 2,52,-1
 224 1552 l 2,53,54
 433 1552 433 1552 527 1318 c 0,55,56
 593 1155 593 1155 593 868 c 2,57,-1
 593 773 l 1,58,59
 588 764 588 764 588 754 c 1,24,-1
EndSplineSet
EndChar

StartChar: dcroat
Encoding: 273 273 210
Width: 610
GlyphClass: 2
Flags: W
LayerCount: 2
Fore
SplineSet
83 819 m 2,0,-1
 79 901 l 1,1,2
 79 967 79 967 67 1102.5 c 128,-1,3
 55 1238 55 1238 55 1275 c 128,-1,4
 55 1312 55 1312 78 1332.5 c 128,-1,5
 101 1353 101 1353 127 1353 c 0,6,7
 338 1353 338 1353 470 1106 c 0,8,9
 546 965 546 965 546 808 c 1,10,-1
 542 705 l 1,11,-1
 542 592 l 2,12,13
 542 386 542 386 523.5 317 c 128,-1,14
 505 248 505 248 485 202 c 128,-1,15
 465 156 465 156 437 120 c 0,16,17
 372 38 372 38 273 -12 c 1,18,-1
 125 -12 l 2,19,20
 73 -12 73 -12 73 256 c 0,21,22
 73 395 73 395 77 673 c 1,23,24
 -59 679 -59 679 -59 707 c 0,25,26
 -59 751 -59 751 31 751 c 0,27,28
 74 751 74 751 80 786 c 0,29,30
 84 804 84 804 83 819 c 2,0,-1
267 676 m 1,31,-1
 196 672 l 1,32,33
 216 279 216 279 216 141 c 2,34,-1
 216 92 l 1,35,36
 394 92 394 92 430 452 c 0,37,38
 438 535 438 535 438 612 c 0,39,40
 438 1230 438 1230 200 1258 c 1,41,42
 185 1177 185 1177 185 1063 c 128,-1,43
 185 949 185 949 193 755 c 1,44,45
 333 753 333 753 333 701 c 0,46,47
 333 676 333 676 267 676 c 1,31,-1
EndSplineSet
EndChar

StartChar: Hbar
Encoding: 294 294 229
Width: 560
GlyphClass: 2
Flags: W
LayerCount: 2
Fore
SplineSet
170 809 m 1,0,-1
 369 824 l 1,1,2
 369 862 369 862 355 1266 c 1,3,4
 331 1265 331 1265 271 1265 c 1,5,-1
 156 1261 l 1,6,-1
 168 939 l 1,7,8
 166 862 l 2,9,10
 166 833 166 833 170 809 c 1,0,-1
161 1515 m 2,11,-1
 154 1360 l 1,12,-1
 154 1335 l 1,13,14
 266 1339 266 1339 284.5 1339 c 128,-1,15
 303 1339 303 1339 353 1337 c 1,16,17
 351 1390 351 1390 351 1496 c 1,18,-1
 350 1511 l 1,19,20
 350 1532 350 1532 354.5 1538 c 128,-1,21
 359 1544 359 1544 370 1544 c 2,22,-1
 377 1544 l 2,23,24
 461 1544 461 1544 461 1493 c 2,25,-1
 461 1314 l 1,26,27
 485 1303 485 1303 485 1282.5 c 128,-1,28
 485 1262 485 1262 462 1262 c 1,29,30
 465 1085 465 1085 482.5 674 c 128,-1,31
 500 263 500 263 500 43 c 0,32,33
 500 16 500 16 483 -7.5 c 128,-1,34
 466 -31 466 -31 440 -31 c 0,35,36
 388 -31 388 -31 388 37 c 0,37,38
 388 427 388 427 370 759 c 1,39,40
 315 769 315 769 267 769 c 128,-1,41
 219 769 219 769 181 753 c 1,42,43
 181 639 181 639 198 408 c 128,-1,44
 215 177 215 177 215 59 c 0,45,46
 215 39 215 39 203 22 c 0,47,48
 190 5 190 5 170 5 c 0,49,50
 136 5 136 5 120 32.5 c 128,-1,51
 104 60 104 60 99.5 177.5 c 128,-1,52
 95 295 95 295 94 435 c 128,-1,53
 93 575 93 575 91 602 c 0,54,55
 63 986 63 986 57 1269 c 1,56,57
 43 1277 43 1277 43 1292 c 128,-1,58
 43 1307 43 1307 56 1318 c 1,59,60
 53 1418 53 1418 53 1520 c 0,61,62
 53 1534 53 1534 73 1544 c 128,-1,63
 93 1554 93 1554 108.5 1554 c 128,-1,64
 124 1554 124 1554 142.5 1542 c 128,-1,65
 161 1530 161 1530 161 1515 c 2,11,-1
EndSplineSet
EndChar

StartChar: hbar
Encoding: 295 295 230
Width: 571
GlyphClass: 2
Flags: W
LayerCount: 2
Fore
SplineSet
369 712 m 1,0,1
 374 721 374 721 374 769 c 128,-1,2
 374 817 374 817 358 1066 c 1,3,4
 332 1065 332 1065 281 1065 c 128,-1,5
 230 1065 230 1065 189 1062 c 1,6,7
 183 836 183 836 183 722 c 1,8,9
 220 712 220 712 295 712 c 2,10,-1
 369 712 l 1,0,1
71 283 m 1,11,-1
 77 595 l 1,12,13
 77 674 77 674 69 702 c 1,14,-1
 74 712 l 1,15,16
 82 819 82 819 82 850.5 c 128,-1,17
 82 882 82 882 75 1064 c 1,18,19
 43 1070 43 1070 43 1091 c 0,20,21
 43 1117 43 1117 72 1127 c 1,22,23
 68 1200 68 1200 68 1294 c 0,24,25
 68 1318 68 1318 85 1336.5 c 128,-1,26
 102 1355 102 1355 126 1355 c 0,27,28
 191 1355 191 1355 191 1233 c 0,29,30
 191 1169 191 1169 190 1137 c 1,31,32
 240 1139 240 1139 271.5 1139 c 128,-1,33
 303 1139 303 1139 353 1137 c 1,34,35
 347 1228 347 1228 347 1320 c 0,36,37
 347 1343 347 1343 365 1358.5 c 128,-1,38
 383 1374 383 1374 399 1374 c 128,-1,39
 415 1374 415 1374 425 1371 c 128,-1,40
 435 1368 435 1368 447 1363 c 128,-1,41
 459 1358 459 1358 466 1356 c 1,42,43
 466 1241 466 1241 469 1110 c 1,44,45
 485 1099 485 1099 485 1081.5 c 128,-1,46
 485 1064 485 1064 470 1062 c 1,47,48
 476 823 476 823 490 458 c 0,49,50
 505 80 505 80 505 62 c 0,51,52
 506 32 506 32 484 16 c 0,53,54
 462 0 462 0 438 0 c 0,55,56
 385 0 385 0 382 38 c 0,57,58
 371 387 371 387 371 548 c 1,59,-1
 367 556 l 1,60,-1
 370 615 l 1,61,-1
 369 634 l 1,62,-1
 358 636 l 1,63,64
 341 632 341 632 321 632 c 1,65,-1
 189 651 l 1,66,-1
 183 425 l 1,67,-1
 189 416 l 1,68,-1
 201 79 l 1,69,70
 201 50 201 50 186 27.5 c 128,-1,71
 171 5 171 5 143 5 c 0,72,73
 102 5 102 5 86.5 79.5 c 128,-1,74
 71 154 71 154 71 283 c 1,11,-1
EndSplineSet
EndChar

StartChar: dotlessi
Encoding: 305 305 240
Width: 499
GlyphClass: 2
Flags: W
LayerCount: 2
Fore
SplineSet
286 681 m 1,0,-1
 301 246 l 1,1,-1
 298 184 l 1,2,-1
 296 185 l 1,3,4
 296 146 296 146 306 131 c 1,5,-1
 322 128 l 1,6,-1
 381 130 l 1,7,8
 465 130 465 130 465 79 c 0,9,10
 465 53 465 53 444.5 34.5 c 128,-1,11
 424 16 424 16 397 16 c 1,12,13
 329 23 l 2,14,15
 324 23 324 23 298 11.5 c 128,-1,16
 272 0 272 0 240.5 0 c 128,-1,17
 209 0 209 0 188 20 c 1,18,19
 172 18 172 18 163 18 c 0,20,21
 106 18 106 18 87 55 c 1,22,23
 87 95 87 95 119 110 c 1,24,-1
 126 118 l 1,25,-1
 184 118 l 1,26,-1
 188 145 l 1,27,-1
 174 580 l 1,28,-1
 185 1036 l 1,29,30
 185 1151 185 1151 175 1254 c 1,31,-1
 136 1256 l 2,32,33
 128 1257 128 1257 112 1255.5 c 128,-1,34
 96 1254 96 1254 77.5 1254 c 128,-1,35
 59 1254 59 1254 42 1265.5 c 128,-1,36
 25 1277 25 1277 25 1309 c 0,37,38
 25 1356 25 1356 126 1356 c 2,39,-1
 143 1356 l 2,40,41
 406 1356 406 1356 406 1273 c 0,42,43
 406 1262 406 1262 394 1235 c 1,44,-1
 324 1230 l 1,45,-1
 289 1242 l 1,46,47
 297 1167 297 1167 297 1072 c 1,48,-1
 286 681 l 1,0,-1
EndSplineSet
EndChar

StartChar: Lslash
Encoding: 321 321 256
Width: 430
GlyphClass: 2
Flags: W
LayerCount: 2
Fore
SplineSet
86 42 m 1,0,-1
 99 132 l 1,1,2
 99 344 99 344 81 768 c 1,3,4
 50 754 50 754 26.5 754 c 128,-1,5
 3 754 3 754 -17.5 768 c 128,-1,6
 -38 782 -38 782 -38 803 c 0,7,8
 -38 849 -38 849 76 873 c 1,9,10
 58 1311 58 1311 58 1529 c 0,11,12
 58 1548 58 1548 73 1559.5 c 128,-1,13
 88 1571 88 1571 110.5 1571 c 128,-1,14
 133 1571 133 1571 151.5 1554 c 128,-1,15
 170 1537 170 1537 170 1512 c 0,16,17
 170 1396 170 1396 179 1183.5 c 128,-1,18
 188 971 188 971 190 904 c 1,19,20
 293 949 293 949 366 949 c 0,21,22
 380 949 380 949 392 934.5 c 128,-1,23
 404 920 404 920 404 897 c 0,24,25
 404 829 404 829 191 797 c 1,26,-1
 191 795 l 1,27,-1
 194 730 l 2,28,29
 194 717 194 717 193 710 c 1,30,-1
 193 701 l 1,31,32
 201 523 201 523 201 167 c 2,33,-1
 201 115 l 1,34,-1
 357 115 l 1,35,36
 401 85 401 85 401 58 c 128,-1,37
 401 31 401 31 386 13.5 c 128,-1,38
 371 -4 371 -4 355 -4 c 128,-1,39
 339 -4 339 -4 318 3 c 1,40,41
 301 -1 301 -1 279 -1 c 2,42,-1
 145 5 l 2,43,44
 123 5 123 5 104.5 16 c 128,-1,45
 86 27 86 27 86 42 c 1,0,-1
EndSplineSet
EndChar

StartChar: lslash
Encoding: 322 322 257
Width: 467
GlyphClass: 2
Flags: W
LayerCount: 2
Fore
SplineSet
204 1304 m 1,0,-1
 190 1148 l 1,1,2
 190 1079 190 1079 192.5 952 c 128,-1,3
 195 825 195 825 195 775 c 1,4,5
 287 807 287 807 328 807 c 128,-1,6
 369 807 369 807 380.5 797 c 128,-1,7
 392 787 392 787 392 774 c 128,-1,8
 392 761 392 761 387.5 753 c 128,-1,9
 383 745 383 745 372.5 738 c 128,-1,10
 362 731 362 731 351.5 726.5 c 128,-1,11
 341 722 341 722 321 716 c 128,-1,12
 301 710 301 710 286 706 c 0,13,14
 241 696 241 696 196 686 c 1,15,16
 184 647 184 647 184 570 c 2,17,-1
 184 545 l 1,18,-1
 176 219 l 1,19,20
 176 78 176 78 183 78 c 2,21,-1
 330 81 l 1,22,23
 440 81 440 81 440 21 c 0,24,25
 440 -1 440 -1 421 -15.5 c 128,-1,26
 402 -30 402 -30 378 -33 c 1,27,28
 303 -9 303 -9 195 -9 c 1,29,30
 162 -28 162 -28 131.5 -28 c 128,-1,31
 101 -28 101 -28 84 -7 c 128,-1,32
 67 14 67 14 67 39 c 0,33,34
 67 165 67 165 86 650 c 1,35,36
 19 618 19 618 -7 618 c 0,37,38
 -50 618 -50 618 -50 657 c 0,39,40
 -50 708 -50 708 89 736 c 1,41,42
 93 882 93 882 93 954 c 2,43,-1
 93 969 l 1,44,45
 81 1097 81 1097 81 1161 c 0,46,47
 81 1355 81 1355 152 1355 c 0,48,49
 173 1355 173 1355 188.5 1340 c 128,-1,50
 204 1325 204 1325 204 1304 c 1,0,-1
EndSplineSet
EndChar

StartChar: OE
Encoding: 338 338 270
Width: 1113
GlyphClass: 2
Flags: W
LayerCount: 2
Fore
SplineSet
774 757 m 1,0,-1
 788 80 l 1,1,2
 891 87 891 87 921 87 c 1,3,-1
 925 85 l 1,4,-1
 954 85 l 2,5,6
 1090 85 1090 85 1090 25 c 2,7,-1
 1090 18 l 1,8,-1
 1067 -16 l 1,9,-1
 743 -22 l 2,10,11
 719 -22 719 -22 694 -9 c 128,-1,12
 669 4 669 4 669 26 c 1,13,-1
 670 33 l 1,14,15
 594 9 594 9 538.5 9 c 128,-1,16
 483 9 483 9 417.5 25 c 128,-1,17
 352 41 352 41 303.5 67 c 128,-1,18
 255 93 255 93 216.5 134.5 c 128,-1,19
 178 176 178 176 151.5 220 c 128,-1,20
 125 264 125 264 106 323.5 c 128,-1,21
 87 383 87 383 76.5 436 c 128,-1,22
 66 489 66 489 60 559 c 0,23,24
 51 664 51 664 51 762.5 c 128,-1,25
 51 861 51 861 51.5 894 c 128,-1,26
 52 927 52 927 55 991.5 c 128,-1,27
 58 1056 58 1056 63.5 1101.5 c 128,-1,28
 69 1147 69 1147 80 1209.5 c 128,-1,29
 91 1272 91 1272 106.5 1316 c 128,-1,30
 122 1360 122 1360 147 1407.5 c 128,-1,31
 172 1455 172 1455 203 1484 c 0,32,33
 275 1551 275 1551 367.5 1551 c 128,-1,34
 460 1551 460 1551 527 1540 c 128,-1,35
 594 1529 594 1529 649 1494 c 1,36,-1
 679 1537 l 1,37,-1
 771 1525 l 1,38,-1
 923 1525 l 1,39,-1
 974 1529 l 1,40,41
 1021 1503 1021 1503 1021 1476 c 0,42,43
 1021 1426 1021 1426 961 1426 c 1,44,-1
 743 1433 l 1,45,46
 743 1364 743 1364 757 1226 c 128,-1,47
 771 1088 771 1088 771 1018 c 1,48,-1
 767 913 l 1,49,50
 767 880 767 880 772 856 c 1,51,-1
 834 854 l 1,52,-1
 843 854 l 1,53,-1
 888 855 l 2,54,55
 929 855 929 855 958 818 c 1,56,57
 958 754 958 754 902 754 c 1,58,-1
 802 758 l 2,59,60
 783 758 783 758 774 757 c 1,0,-1
145 957 m 2,61,-1
 146 820 l 2,62,63
 146 774 146 774 145 751 c 1,64,65
 158 727 158 727 169 555 c 0,66,67
 191 238 191 238 257 232 c 1,68,69
 358 112 358 112 508 112 c 0,70,71
 583 112 583 112 635.5 129.5 c 128,-1,72
 688 147 688 147 688 168 c 0,73,74
 688 384 688 384 669 789 c 128,-1,75
 650 1194 650 1194 647 1371 c 1,76,77
 577 1449 577 1449 404 1449 c 0,78,79
 292 1448 292 1448 234 1358 c 0,80,81
 177 1270 177 1270 164 1185 c 0,82,83
 145 1051 145 1051 145 957 c 2,61,-1
EndSplineSet
EndChar

StartChar: oe
Encoding: 339 339 271
Width: 846
GlyphClass: 2
Flags: W
LayerCount: 2
Fore
SplineSet
55 626 m 1,0,-1
 57 704 l 2,1,2
 57 714 57 714 54 714 c 1,3,-1
 54 751 l 2,4,5
 54 976 54 976 78.5 1069.5 c 128,-1,6
 103 1163 103 1163 128 1222 c 0,7,8
 181 1348 181 1348 293 1348 c 0,9,10
 361 1348 361 1348 416.5 1299 c 128,-1,11
 472 1250 472 1250 498 1178 c 1,12,13
 498 1318 498 1318 524 1341 c 0,14,15
 536 1352 536 1352 576.5 1352 c 128,-1,16
 617 1352 617 1352 712 1326.5 c 128,-1,17
 807 1301 807 1301 807 1261 c 0,18,19
 807 1244 807 1244 796.5 1229 c 128,-1,20
 786 1214 786 1214 761.5 1214 c 128,-1,21
 737 1214 737 1214 678.5 1233.5 c 128,-1,22
 620 1253 620 1253 595 1256 c 1,23,-1
 595 1148 l 1,24,-1
 594 1128 l 2,25,26
 586 960 586 960 586 899.5 c 128,-1,27
 586 839 586 839 592 797 c 1,28,-1
 686 801 l 1,29,30
 764 801 764 801 764 769 c 0,31,32
 764 749 764 749 751.5 733.5 c 128,-1,33
 739 718 739 718 719 718 c 2,34,-1
 589 718 l 1,35,36
 595 640 595 640 595 563 c 1,37,-1
 586 192 l 1,38,39
 586 64 586 64 590 64 c 2,40,-1
 741 69 l 1,41,42
 806 69 806 69 806 19 c 0,43,44
 806 -27 806 -27 731 -27 c 2,45,-1
 558 -27 l 2,46,47
 531 -27 531 -27 509 -8.5 c 128,-1,48
 487 10 487 10 486 36 c 1,49,-1
 486 127 l 1,50,51
 469 47 469 47 423 4.5 c 128,-1,52
 377 -38 377 -38 320 -38 c 128,-1,53
 263 -38 263 -38 218.5 -4.5 c 128,-1,54
 174 29 174 29 146.5 87 c 128,-1,55
 119 145 119 145 100 212 c 0,56,57
 82 279 82 279 72 359 c 0,58,59
 56 498 56 498 55 626 c 1,0,-1
163 909 m 1,60,-1
 166 717 l 1,61,62
 166 420 166 420 214 199 c 0,63,64
 247 47 247 47 311 47 c 0,65,66
 348 47 348 47 378 77 c 128,-1,67
 408 107 408 107 425.5 157.5 c 128,-1,68
 443 208 443 208 455 263.5 c 0,69,70
 466 319 466 319 472 382 c 0,71,72
 482 491 482 491 482 568 c 128,-1,73
 482 645 482 645 468.5 804 c 128,-1,74
 455 963 455 963 455 1041 c 2,75,-1
 455 1077 l 1,76,77
 453 1152 453 1152 406 1210.5 c 128,-1,78
 359 1269 359 1269 286 1269 c 0,79,80
 209 1268 209 1268 184 1150 c 0,81,82
 163 1052 163 1052 163 909 c 1,60,-1
EndSplineSet
EndChar

StartChar: uni0237
Encoding: 567 567 346
Width: 520
GlyphClass: 2
Flags: W
LayerCount: 2
Fore
SplineSet
331 1208 m 1,0,-1
 352 382 l 1,1,-1
 352 158 l 1,2,3
 327 116 327 116 313 11 c 0,4,5
 298 -94 298 -94 282 -144 c 0,6,7
 246 -254 246 -254 106 -254 c 2,8,-1
 82 -254 l 1,9,-1
 21 -193 l 1,10,-1
 19 -174 l 1,11,12
 19 -155 19 -155 55 -126 c 0,13,14
 106 -85 106 -85 181 -46 c 1,15,16
 240 24 240 24 240 187 c 1,17,-1
 222 1233 l 1,18,-1
 217 1242 l 1,19,20
 195 1242 195 1242 157 1249 c 128,-1,21
 119 1256 119 1256 108 1261 c 0,22,23
 96 1266 96 1266 84 1273 c 0,24,25
 60 1287 60 1287 60 1309.5 c 128,-1,26
 60 1332 60 1332 83 1345.5 c 128,-1,27
 106 1359 106 1359 137.5 1359 c 128,-1,28
 169 1359 169 1359 249 1349 c 128,-1,29
 329 1339 329 1339 410.5 1312.5 c 128,-1,30
 492 1286 492 1286 492 1253 c 0,31,32
 492 1231 492 1231 475.5 1218 c 128,-1,33
 459 1205 459 1205 437 1205 c 128,-1,34
 415 1205 415 1205 377 1214.5 c 128,-1,35
 339 1224 339 1224 332 1225 c 1,36,-1
 331 1208 l 1,0,-1
EndSplineSet
EndChar

StartChar: circumflex
Encoding: 710 710 347
Width: 516
GlyphClass: 2
Flags: W
LayerCount: 2
Fore
SplineSet
159 924.5 m 128,-1,1
 147 911 147 911 133.5 911 c 128,-1,2
 120 911 120 911 106.5 930 c 128,-1,3
 93 949 93 949 93 980.5 c 128,-1,4
 93 1012 93 1012 126 1103.5 c 128,-1,5
 159 1195 159 1195 207.5 1277 c 128,-1,6
 256 1359 256 1359 291 1359 c 128,-1,7
 326 1359 326 1359 374.5 1202 c 128,-1,8
 423 1045 423 1045 423 964 c 0,9,10
 423 940 423 940 404.5 923.5 c 128,-1,11
 386 907 386 907 363 907 c 0,12,13
 308 908 308 908 286 1096 c 0,14,15
 276 1182 276 1182 273 1193 c 1,16,17
 273 1187 273 1187 257.5 1144.5 c 128,-1,18
 242 1102 242 1102 230.5 1070 c 128,-1,19
 219 1038 219 1038 207.5 1012 c 128,-1,20
 196 986 196 986 183.5 962 c 128,-1,0
 171 938 171 938 159 924.5 c 128,-1,1
EndSplineSet
EndChar

StartChar: caron
Encoding: 711 711 348
Width: 498
GlyphClass: 2
Flags: W
LayerCount: 2
Fore
SplineSet
404 1320 m 1,0,-1
 389 1289 l 1,1,-1
 389 1252 l 1,2,-1
 360 1140 l 2,3,4
 331 1028 331 1028 331 994 c 0,5,6
 331 928 331 928 279 928 c 0,7,8
 239 928 239 928 166.5 1094 c 128,-1,9
 94 1260 94 1260 94 1317 c 0,10,11
 94 1333 94 1333 109 1344.5 c 128,-1,12
 124 1356 124 1356 143 1356 c 0,13,14
 186 1356 186 1356 244 1145 c 1,15,-1
 271 1051 l 1,16,17
 275 1073 275 1073 280 1120 c 128,-1,18
 285 1167 285 1167 290 1204 c 0,19,20
 296 1241 296 1241 304 1280 c 0,21,22
 322 1363 322 1363 361 1363 c 0,23,24
 379 1363 379 1363 391.5 1351.5 c 128,-1,25
 404 1340 404 1340 404 1320 c 1,0,-1
EndSplineSet
EndChar

StartChar: breve
Encoding: 728 728 349
Width: 576
GlyphClass: 2
Flags: W
LayerCount: 2
Fore
SplineSet
458 1032 m 1,0,-1
 458 1031 l 1,1,2
 406 898 406 898 350 877 c 0,3,4
 324 867 324 867 275 867 c 128,-1,5
 226 867 226 867 186 904 c 0,6,7
 114 969 114 969 114 1100 c 2,8,-1
 114 1110 l 1,9,-1
 152 1142 l 1,10,11
 198 1142 198 1142 212 1067 c 0,12,13
 227 986 227 986 260 962 c 1,14,-1
 304 962 l 2,15,16
 318 962 318 962 334 994 c 128,-1,17
 350 1026 350 1026 350 1046 c 128,-1,18
 350 1066 350 1066 351 1077 c 128,-1,19
 352 1088 352 1088 357 1103.5 c 128,-1,20
 362 1119 362 1119 374.5 1126 c 128,-1,21
 387 1133 387 1133 408 1133 c 128,-1,22
 429 1133 429 1133 445.5 1117.5 c 128,-1,23
 462 1102 462 1102 462 1089 c 128,-1,24
 462 1076 462 1076 454 1048 c 1,25,-1
 458 1032 l 1,0,-1
EndSplineSet
EndChar

StartChar: dotaccent
Encoding: 729 729 350
Width: 355
GlyphClass: 2
Flags: W
LayerCount: 2
Fore
SplineSet
123.5 124.5 m 128,-1,1
 103 147 103 147 103 176.5 c 128,-1,2
 103 206 103 206 126 230 c 128,-1,3
 149 254 149 254 179 254 c 128,-1,4
 209 254 209 254 231 230 c 128,-1,5
 253 206 253 206 253 174.5 c 128,-1,6
 253 143 253 143 230 122.5 c 128,-1,7
 207 102 207 102 175.5 102 c 128,-1,0
 144 102 144 102 123.5 124.5 c 128,-1,1
EndSplineSet
EndChar

StartChar: ring
Encoding: 730 730 351
Width: 685
GlyphClass: 2
Flags: W
LayerCount: 2
Fore
SplineSet
143.5 566.5 m 128,-1,1
 207 634 207 634 312 634 c 0,2,3
 409 634 409 634 456 611 c 128,-1,4
 503 588 503 588 526.5 568.5 c 128,-1,5
 550 549 550 549 564.5 527.5 c 0,6,7
 578 506 578 506 588 482 c 0,8,9
 606 439 606 439 606 403.5 c 128,-1,10
 606 368 606 368 599 334 c 128,-1,11
 592 300 592 300 572.5 257.5 c 0,12,13
 553 216 553 216 522 182 c 0,14,15
 448 102 448 102 312 102 c 1,16,17
 162 102 162 102 107 243 c 0,18,19
 80 312 80 312 80 405.5 c 128,-1,0
 80 499 80 499 143.5 566.5 c 128,-1,1
410.5 553 m 128,-1,21
 371 565 371 565 323 565 c 128,-1,22
 275 565 275 565 241 544 c 0,23,24
 208 523 208 523 190 487 c 0,25,26
 156 418 156 418 156 329 c 0,27,28
 156 281 156 281 206.5 230 c 128,-1,29
 257 179 257 179 310.5 179 c 128,-1,30
 364 179 364 179 399.5 190.5 c 128,-1,31
 435 202 435 202 458 221 c 128,-1,32
 481 240 481 240 497.5 262.5 c 0,33,34
 514 284 514 284 522 310 c 0,35,36
 538 361 538 361 538 387.5 c 128,-1,37
 538 414 538 414 532 435.5 c 128,-1,38
 526 457 526 457 511 481 c 128,-1,39
 496 505 496 505 473 523 c 128,-1,20
 450 541 450 541 410.5 553 c 128,-1,21
EndSplineSet
EndChar

StartChar: ogonek
Encoding: 731 731 352
Width: 427
GlyphClass: 2
Flags: W
LayerCount: 2
Fore
SplineSet
187 -301 m 0,0,1
 227 -301 227 -301 273 -268 c 1,2,-1
 287 -302 l 1,3,4
 287 -329 287 -329 249 -347.5 c 128,-1,5
 211 -366 211 -366 175 -366 c 128,-1,6
 139 -366 139 -366 114.5 -334 c 128,-1,7
 90 -302 90 -302 90 -259 c 0,8,9
 90 -177 90 -177 146 -103 c 128,-1,10
 202 -29 202 -29 282 20 c 1,11,-1
 337 -7 l 1,12,13
 325 -15 325 -15 305.5 -32.5 c 128,-1,14
 286 -50 286 -50 268 -65.5 c 128,-1,15
 250 -81 250 -81 243.5 -88 c 128,-1,16
 237 -95 237 -95 222.5 -110.5 c 128,-1,17
 208 -126 208 -126 201.5 -136 c 128,-1,18
 195 -146 195 -146 185 -162 c 128,-1,19
 175 -178 175 -178 171 -190 c 0,20,21
 160 -224 160 -224 160 -262.5 c 128,-1,22
 160 -301 160 -301 187 -301 c 0,0,1
EndSplineSet
EndChar

StartChar: tilde
Encoding: 732 732 353
Width: 675
GlyphClass: 2
Flags: W
LayerCount: 2
Fore
SplineSet
478 1210 m 128,-1,1
 489 1223 489 1223 515.5 1223 c 128,-1,2
 542 1223 542 1223 559 1207 c 128,-1,3
 576 1191 576 1191 576 1170 c 0,4,5
 576 1117 576 1117 536.5 1077.5 c 128,-1,6
 497 1038 497 1038 443.5 1038 c 128,-1,7
 390 1038 390 1038 354.5 1051.5 c 0,8,9
 320 1066 320 1066 306 1082 c 0,10,11
 270 1126 270 1126 226 1125 c 1,12,13
 197 1114 197 1114 202 1086 c 128,-1,14
 207 1058 207 1058 173 1046 c 1,15,16
 142 1046 142 1046 120.5 1061 c 128,-1,17
 99 1076 99 1076 99 1115 c 128,-1,18
 99 1154 99 1154 139 1189 c 128,-1,19
 179 1224 179 1224 247 1224 c 0,20,21
 272 1224 272 1224 336 1182.5 c 128,-1,22
 400 1141 400 1141 420 1141 c 128,-1,23
 440 1141 440 1141 450.5 1154 c 128,-1,24
 461 1167 461 1167 464 1182 c 128,-1,0
 467 1197 467 1197 478 1210 c 128,-1,1
EndSplineSet
EndChar

StartChar: hungarumlaut
Encoding: 733 733 354
Width: 684
GlyphClass: 2
Flags: W
LayerCount: 2
Fore
SplineSet
150 0 m 1,0,1
 150 13 l 1,2,3
 152 44 152 44 219.5 149.5 c 128,-1,4
 287 255 287 255 360.5 347.5 c 128,-1,5
 434 440 434 440 452 440 c 0,6,7
 470 440 470 440 485 429 c 128,-1,8
 500 418 500 418 500 402 c 0,9,10
 500 356 500 356 425 260.5 c 128,-1,11
 350 165 350 165 265.5 87 c 128,-1,12
 181 9 181 9 150 0 c 1,0,1
428 13 m 1,13,14
 408 12 408 12 408 38 c 0,15,16
 408 64 408 64 494 162.5 c 128,-1,17
 580 261 580 261 675 350.5 c 128,-1,18
 770 440 770 440 792 440 c 0,19,20
 814 440 814 440 831 425.5 c 128,-1,21
 848 411 848 411 854 392 c 1,22,23
 835 342 835 342 662 194.5 c 128,-1,24
 489 47 489 47 428 13 c 1,13,14
EndSplineSet
EndChar

StartChar: uni0307
Encoding: 775 775 355
Width: 384
GlyphClass: 2
Flags: W
LayerCount: 2
Fore
SplineSet
140.5 1412.5 m 128,-1,1
 120 1435 120 1435 120 1464.5 c 128,-1,2
 120 1494 120 1494 143 1518 c 128,-1,3
 166 1542 166 1542 196 1542 c 128,-1,4
 226 1542 226 1542 248 1518 c 128,-1,5
 270 1494 270 1494 270 1462.5 c 128,-1,6
 270 1431 270 1431 247 1410.5 c 128,-1,7
 224 1390 224 1390 192.5 1390 c 128,-1,0
 161 1390 161 1390 140.5 1412.5 c 128,-1,1
EndSplineSet
EndChar

StartChar: uni030F
Encoding: 783 783 356
Width: 997
GlyphClass: 2
Flags: W
LayerCount: 2
Fore
SplineSet
532 8 m 1,0,1
 222 298 222 298 217 304 c 1,2,-1
 198 338 l 1,3,4
 204 359 204 359 220.5 374.5 c 128,-1,5
 237 390 237 390 256 390 c 128,-1,6
 275 390 275 390 347.5 310 c 128,-1,7
 420 230 420 230 486 141.5 c 128,-1,8
 552 53 552 53 552 30.5 c 128,-1,9
 552 8 552 8 532 8 c 1,0,1
516 331 m 0,10,11
 516 342 516 342 533 351 c 128,-1,12
 550 360 550 360 569.5 360 c 128,-1,13
 589 360 589 360 688 206 c 128,-1,14
 787 52 787 52 790 13 c 1,15,-1
 777 -8 l 1,16,17
 668 95 668 95 592 195.5 c 128,-1,18
 516 296 516 296 516 331 c 0,10,11
EndSplineSet
EndChar

StartChar: uni0311
Encoding: 785 785 357
Width: 575
GlyphClass: 2
Flags: W
LayerCount: 2
Fore
SplineSet
458 978 m 1,0,-1
 453 961 l 1,1,2
 462 930 462 930 462 918.5 c 128,-1,3
 462 907 462 907 445.5 891.5 c 128,-1,4
 429 876 429 876 401 876 c 0,5,6
 350 876 350 876 350 953 c 0,7,8
 350 975 350 975 335.5 1011 c 128,-1,9
 321 1047 321 1047 303 1047 c 2,10,-1
 260 1047 l 1,11,12
 228 1024 228 1024 211 942 c 0,13,14
 195 867 195 867 151 867 c 1,15,-1
 113 899 l 1,16,17
 112 992 112 992 140 1045 c 0,18,19
 190 1142 190 1142 276 1142 c 128,-1,20
 362 1142 362 1142 403 1087 c 0,21,22
 422 1062 422 1062 458 978 c 1,0,-1
EndSplineSet
EndChar

StartChar: uni0326
Encoding: 806 806 358
Width: 462
GlyphClass: 2
Flags: W
LayerCount: 2
Fore
SplineSet
151 -550 m 0,0,1
 117 -550 117 -550 117 -527 c 1,2,-1
 124 -490 l 1,3,4
 168 -290 168 -290 238 -210 c 0,5,6
 270 -174 270 -174 302 -174 c 1,7,8
 306 -178 306 -178 322 -182 c 0,9,10
 358 -193 358 -193 358 -215 c 0,11,12
 358 -262 358 -262 313 -344.5 c 128,-1,13
 268 -427 268 -427 218 -488.5 c 128,-1,14
 168 -550 168 -550 151 -550 c 0,0,1
EndSplineSet
EndChar

StartChar: endash
Encoding: 8211 8211 359
Width: 924
GlyphClass: 2
Flags: W
LayerCount: 2
Fore
SplineSet
760 636 m 2,0,-1
 197 646 l 1,1,2
 115 646 115 646 115 691 c 0,3,4
 115 712 115 712 127.5 724.5 c 128,-1,5
 140 737 140 737 161 737 c 2,6,-1
 332 737 l 1,7,-1
 527 741 l 1,8,9
 808 741 808 741 808 683 c 0,10,11
 808 662 808 662 794.5 649 c 128,-1,12
 781 636 781 636 760 636 c 2,0,-1
EndSplineSet
EndChar

StartChar: emdash
Encoding: 8212 8212 360
Width: 1162
GlyphClass: 2
Flags: W
LayerCount: 2
Fore
SplineSet
325 677 m 1,0,-1
 247 674 l 1,1,2
 124 674 124 674 124 733 c 0,3,4
 124 754 124 754 136.5 766.5 c 128,-1,5
 149 779 149 779 170 779 c 2,6,-1
 647 779 l 1,7,-1
 799 782 l 1,8,9
 1038 782 1038 782 1038 725 c 0,10,11
 1038 673 1038 673 866 673 c 1,12,-1
 693 680 l 1,13,-1
 325 677 l 1,0,-1
EndSplineSet
EndChar

StartChar: quoteleft
Encoding: 8216 8216 361
Width: 354
GlyphClass: 2
Flags: W
LayerCount: 2
Fore
SplineSet
91 1081 m 0,0,1
 70 1081 70 1081 70 1146 c 0,2,3
 70 1211 70 1211 106 1320.5 c 128,-1,4
 142 1430 142 1430 188 1503.5 c 128,-1,5
 234 1577 234 1577 262 1577 c 0,6,7
 284 1578 284 1578 284 1536 c 0,8,9
 284 1494 284 1494 270 1421 c 128,-1,10
 256 1348 256 1348 233 1270.5 c 128,-1,11
 210 1193 210 1193 171.5 1137 c 128,-1,12
 133 1081 133 1081 91 1081 c 0,0,1
EndSplineSet
EndChar

StartChar: quoteright
Encoding: 8217 8217 362
Width: 349
GlyphClass: 2
Flags: W
LayerCount: 2
Fore
SplineSet
90 1081 m 1,0,1
 72 1085 72 1085 72 1119 c 128,-1,2
 72 1153 72 1153 93 1256 c 128,-1,3
 114 1359 114 1359 155.5 1463.5 c 128,-1,4
 197 1568 197 1568 241 1568 c 0,5,6
 278 1568 278 1568 278 1523 c 0,7,8
 278 1436 278 1436 248 1331.5 c 128,-1,9
 218 1227 218 1227 173 1154 c 128,-1,10
 128 1081 128 1081 90 1081 c 1,0,1
EndSplineSet
EndChar

StartChar: quotesinglbase
Encoding: 8218 8218 363
Width: 349
GlyphClass: 2
Flags: W
LayerCount: 2
Fore
SplineSet
90 -333 m 1,0,1
 72 -329 72 -329 72 -295 c 128,-1,2
 72 -261 72 -261 93 -158 c 128,-1,3
 114 -55 114 -55 155.5 49.5 c 128,-1,4
 197 154 197 154 241 154 c 0,5,6
 278 154 278 154 278 109 c 0,7,8
 278 22 278 22 248 -82.5 c 128,-1,9
 218 -187 218 -187 173 -260 c 128,-1,10
 128 -333 128 -333 90 -333 c 1,0,1
EndSplineSet
EndChar

StartChar: quotedblleft
Encoding: 8220 8220 364
Width: 559
GlyphClass: 2
Flags: W
LayerCount: 2
Fore
SplineSet
90 1081 m 0,0,1
 69 1081 69 1081 69 1146 c 0,2,3
 69 1211 69 1211 105 1320.5 c 128,-1,4
 141 1430 141 1430 187 1503.5 c 128,-1,5
 233 1577 233 1577 261 1577 c 0,6,7
 283 1578 283 1578 283 1536 c 0,8,9
 283 1494 283 1494 269 1421 c 128,-1,10
 255 1348 255 1348 232 1270.5 c 128,-1,11
 209 1193 209 1193 170.5 1137 c 128,-1,12
 132 1081 132 1081 90 1081 c 0,0,1
514 1578 m 1,13,14
 532 1574 532 1574 532 1540 c 0,15,16
 532 1506 532 1506 511 1403.5 c 128,-1,17
 490 1301 490 1301 448.5 1196 c 128,-1,18
 407 1091 407 1091 363 1091 c 0,19,20
 325 1091 325 1091 325 1136 c 0,21,22
 325 1223 325 1223 355.5 1327.5 c 128,-1,23
 386 1432 386 1432 431 1505 c 128,-1,24
 476 1578 476 1578 514 1578 c 1,13,14
EndSplineSet
EndChar

StartChar: quotedblright
Encoding: 8221 8221 365
Width: 560
GlyphClass: 2
Flags: W
LayerCount: 2
Fore
SplineSet
521 1578 m 0,0,1
 542 1578 542 1578 542 1513 c 128,-1,2
 542 1448 542 1448 506 1338.5 c 128,-1,3
 470 1229 470 1229 424 1155.5 c 128,-1,4
 378 1082 378 1082 350 1082 c 0,5,6
 328 1082 328 1082 328 1123 c 1,7,8
 345 1195 345 1195 362.5 1296.5 c 128,-1,9
 380 1398 380 1398 392.5 1444.5 c 0,10,11
 405 1492 405 1492 420 1518 c 0,12,13
 454 1578 454 1578 521 1578 c 0,0,1
87 1081 m 1,14,15
 69 1085 69 1085 69 1119 c 128,-1,16
 69 1153 69 1153 90 1256 c 128,-1,17
 111 1359 111 1359 152.5 1463.5 c 128,-1,18
 194 1568 194 1568 238 1568 c 0,19,20
 275 1568 275 1568 275 1523 c 0,21,22
 275 1436 275 1436 245 1331.5 c 128,-1,23
 215 1227 215 1227 170 1154 c 128,-1,24
 125 1081 125 1081 87 1081 c 1,14,15
EndSplineSet
EndChar

StartChar: quotedblbase
Encoding: 8222 8222 366
Width: 660
GlyphClass: 2
Flags: W
LayerCount: 2
Fore
SplineSet
565 126 m 0,0,1
 586 126 586 126 586 61 c 0,2,3
 586 -4 586 -4 550 -113.5 c 128,-1,4
 514 -223 514 -223 468 -296.5 c 128,-1,5
 422 -370 422 -370 394 -370 c 0,6,7
 372 -370 372 -370 372 -328 c 0,8,9
 372 -286 372 -286 386 -213.5 c 128,-1,10
 400 -141 400 -141 423 -63.5 c 128,-1,11
 446 14 446 14 484.5 70 c 128,-1,12
 523 126 523 126 565 126 c 0,0,1
121 -371 m 1,13,14
 103 -367 103 -367 103 -333 c 128,-1,15
 103 -299 103 -299 124 -196 c 128,-1,16
 145 -93 145 -93 186.5 11.5 c 128,-1,17
 228 116 228 116 272 116 c 0,18,19
 309 116 309 116 309 71 c 0,20,21
 309 -16 309 -16 279 -120.5 c 128,-1,22
 249 -225 249 -225 204 -298 c 128,-1,23
 159 -371 159 -371 121 -371 c 1,13,14
EndSplineSet
EndChar

StartChar: dagger
Encoding: 8224 8224 367
Width: 853
GlyphClass: 2
Flags: W
LayerCount: 2
Fore
SplineSet
367 -46 m 2,0,-1
 354 385 l 1,1,-1
 341 584 l 1,2,-1
 341 599 l 1,3,-1
 227 590 l 1,4,5
 140 590 140 590 140 655 c 0,6,7
 140 676 140 676 152.5 692 c 128,-1,8
 165 708 165 708 186 708 c 1,9,-1
 307 701 l 1,10,11
 333 701 333 701 354 705 c 1,12,-1
 342 855 l 1,13,14
 342 968 342 968 408 968 c 0,15,16
 431 968 431 968 445.5 951 c 128,-1,17
 460 934 460 934 460 909 c 2,18,-1
 460 884 l 2,19,20
 460 701 460 701 466 701 c 2,21,-1
 606 709 l 1,22,23
 712 709 712 709 712 647 c 0,24,25
 712 623 712 623 695 607 c 128,-1,26
 678 591 678 591 654 591 c 1,27,-1
 533 602 l 1,28,29
 468 602 468 602 468 596 c 0,30,31
 468 457 468 457 484 258 c 128,-1,32
 500 59 500 59 500 -42 c 0,33,34
 500 -67 500 -67 479.5 -82.5 c 128,-1,35
 459 -98 459 -98 434 -98 c 128,-1,36
 409 -98 409 -98 388 -83.5 c 128,-1,37
 367 -69 367 -69 367 -46 c 2,0,-1
EndSplineSet
EndChar

StartChar: daggerdbl
Encoding: 8225 8225 368
Width: 853
GlyphClass: 2
Flags: W
LayerCount: 2
Fore
SplineSet
367 274 m 1,0,-1
 354 385 l 1,1,-1
 341 584 l 1,2,-1
 341 599 l 1,3,-1
 227 590 l 1,4,5
 140 590 140 590 140 655 c 0,6,7
 140 676 140 676 152.5 692 c 128,-1,8
 165 708 165 708 186 708 c 1,9,-1
 307 701 l 1,10,11
 333 701 333 701 354 705 c 1,12,-1
 342 855 l 1,13,14
 342 968 342 968 408 968 c 0,15,16
 431 968 431 968 445.5 951 c 128,-1,17
 460 934 460 934 460 909 c 2,18,-1
 460 884 l 2,19,20
 460 701 460 701 487 701 c 1,21,-1
 606 709 l 1,22,23
 712 709 712 709 712 647 c 0,24,25
 712 623 712 623 695 607 c 128,-1,26
 678 591 678 591 654 591 c 1,27,-1
 533 602 l 1,28,29
 468 602 468 602 468 596 c 0,30,31
 468 540 468 540 479 405 c 128,-1,32
 490 270 490 270 500 270 c 2,33,-1
 619 278 l 1,34,35
 725 278 725 278 725 216 c 0,36,37
 725 192 725 192 708 176 c 128,-1,38
 691 160 691 160 667 160 c 1,39,-1
 546 171 l 1,40,41
 481 171 481 171 481 162 c 2,42,-1
 500 -42 l 1,43,44
 500 -67 500 -67 479.5 -82.5 c 128,-1,45
 459 -98 459 -98 434 -98 c 128,-1,46
 409 -98 409 -98 388 -83.5 c 128,-1,47
 367 -69 367 -69 367 -46 c 1,48,-1
 354 153 l 1,49,-1
 354 168 l 1,50,-1
 240 159 l 1,51,52
 153 159 153 159 153 224 c 0,53,54
 153 245 153 245 165.5 261 c 128,-1,55
 178 277 178 277 199 277 c 1,56,-1
 320 270 l 1,57,58
 346 270 346 270 367 274 c 1,0,-1
EndSplineSet
EndChar

StartChar: bullet
Encoding: 8226 8226 369
Width: 637
GlyphClass: 2
Flags: W
LayerCount: 2
Fore
SplineSet
106 665 m 2,0,-1
 105 727 l 1,1,2
 105 823 105 823 174 920 c 1,3,4
 184 941 184 941 231.5 976 c 128,-1,5
 279 1011 279 1011 301 1011 c 0,6,7
 368 1011 368 1011 417.5 987.5 c 128,-1,8
 467 964 467 964 491 926 c 0,9,10
 537 854 537 854 537 779 c 0,11,12
 537 653 537 653 472 564 c 0,13,14
 415 485 415 485 322.5 485 c 128,-1,15
 230 485 230 485 168 546 c 128,-1,16
 106 607 106 607 106 665 c 2,0,-1
EndSplineSet
EndChar

StartChar: ellipsis
Encoding: 8230 8230 370
Width: 936
GlyphClass: 2
Flags: W
LayerCount: 2
Fore
SplineSet
713.5 -9.5 m 128,-1,1
 693 13 693 13 693 42.5 c 128,-1,2
 693 72 693 72 716 96 c 128,-1,3
 739 120 739 120 769 120 c 128,-1,4
 799 120 799 120 821 96 c 128,-1,5
 843 72 843 72 843 40.5 c 128,-1,6
 843 9 843 9 820 -11.5 c 128,-1,7
 797 -32 797 -32 765.5 -32 c 128,-1,0
 734 -32 734 -32 713.5 -9.5 c 128,-1,1
418.5 -9.5 m 128,-1,9
 398 13 398 13 398 42.5 c 128,-1,10
 398 72 398 72 421 96 c 128,-1,11
 444 120 444 120 474 120 c 128,-1,12
 504 120 504 120 526 96 c 128,-1,13
 548 72 548 72 548 40.5 c 128,-1,14
 548 9 548 9 525 -11.5 c 128,-1,15
 502 -32 502 -32 470.5 -32 c 128,-1,8
 439 -32 439 -32 418.5 -9.5 c 128,-1,9
123.5 -9.5 m 128,-1,17
 103 13 103 13 103 42.5 c 128,-1,18
 103 72 103 72 126 96 c 128,-1,19
 149 120 149 120 179 120 c 128,-1,20
 209 120 209 120 231 96 c 128,-1,21
 253 72 253 72 253 40.5 c 128,-1,22
 253 9 253 9 230 -11.5 c 128,-1,23
 207 -32 207 -32 175.5 -32 c 128,-1,16
 144 -32 144 -32 123.5 -9.5 c 128,-1,17
EndSplineSet
EndChar

StartChar: guilsinglleft
Encoding: 8249 8249 371
Width: 524
GlyphClass: 2
Flags: W
LayerCount: 2
Fore
SplineSet
360 1447 m 1,0,-1
 367 1446 l 1,1,-1
 412 1411 l 1,2,3
 394 1277 394 1277 272 1037 c 0,4,5
 154 805 154 805 154 702 c 0,6,7
 154 687 154 687 291.5 410 c 128,-1,8
 429 133 429 133 465 69 c 1,9,-1
 491 49 l 1,10,11
 489 22 489 22 475.5 0 c 128,-1,12
 462 -22 462 -22 437 -22 c 1,13,-1
 393 -18 l 1,14,15
 286 145 286 145 176.5 390.5 c 128,-1,16
 67 636 67 636 37 698 c 1,17,18
 39 754 39 754 143 980 c 128,-1,19
 247 1206 247 1206 254.5 1232.5 c 128,-1,20
 262 1259 262 1259 269 1288.5 c 128,-1,21
 276 1318 276 1318 283 1340 c 128,-1,22
 290 1362 290 1362 302 1390 c 0,23,24
 326 1448 326 1448 360 1447 c 1,0,-1
EndSplineSet
EndChar

StartChar: guilsinglright
Encoding: 8250 8250 372
Width: 523
GlyphClass: 2
Flags: W
LayerCount: 2
Fore
SplineSet
126 -19 m 1,0,-1
 88 -23 l 1,1,2
 63 -23 63 -23 49 -0.5 c 128,-1,3
 35 22 35 22 34 49 c 1,4,-1
 59 69 l 1,5,6
 99 144 99 144 234 416 c 128,-1,7
 369 688 369 688 369 702 c 0,8,9
 368 804 368 804 278 982 c 0,10,11
 240 1056 240 1056 204 1129 c 0,12,13
 114 1306 114 1306 112 1411 c 1,14,-1
 157 1446 l 1,15,-1
 167 1444 l 1,16,17
 209 1424 209 1424 227 1382 c 0,18,19
 243 1343 243 1343 251 1306 c 128,-1,20
 259 1269 259 1269 268 1237 c 128,-1,21
 277 1205 277 1205 381 981 c 128,-1,22
 485 757 485 757 487 698 c 1,23,-1
 130 -19 l 1,24,-1
 126 -19 l 1,0,-1
EndSplineSet
EndChar

StartChar: fraction
Encoding: 8260 8260 373
Width: 512
GlyphClass: 2
Flags: W
LayerCount: 2
Fore
SplineSet
37 30 m 0,0,1
 37 166 37 166 102.5 437 c 128,-1,2
 168 708 168 708 254.5 1016.5 c 128,-1,3
 341 1325 341 1325 353.5 1390 c 128,-1,4
 366 1455 366 1455 369 1470.5 c 128,-1,5
 372 1486 372 1486 373.5 1493 c 128,-1,6
 375 1500 375 1500 379.5 1513.5 c 128,-1,7
 384 1527 384 1527 390 1534 c 0,8,9
 405 1553 405 1553 425 1553 c 128,-1,10
 445 1553 445 1553 461.5 1539 c 128,-1,11
 478 1525 478 1525 478 1499 c 128,-1,12
 478 1473 478 1473 471.5 1442 c 0,13,14
 464 1411 464 1411 452 1370 c 0,15,16
 404 1212 404 1212 205 292 c 0,17,18
 203 285 203 285 194.5 237.5 c 128,-1,19
 186 190 186 190 177.5 151.5 c 0,20,21
 169 114 169 114 155 68 c 0,22,23
 125 -30 125 -30 83 -31 c 2,24,-1
 75 -31 l 1,25,26
 37 -7 37 -7 37 30 c 0,0,1
EndSplineSet
EndChar

StartChar: Euro
Encoding: 8364 8364 375
Width: 649
GlyphClass: 2
Flags: W
LayerCount: 2
Fore
SplineSet
159 879 m 1,0,-1
 224 880 l 1,1,2
 361 880 361 880 361 852 c 0,3,4
 361 833 361 833 347 821 c 1,5,6
 297 815 297 815 159 811 c 1,7,-1
 164 725 l 1,8,9
 307 727 307 727 354 731 c 1,10,11
 368 719 368 719 368 700 c 0,12,13
 368 652 368 652 210 652 c 1,14,-1
 170 653 l 1,15,16
 206 208 206 208 239 160 c 0,17,18
 285 93 285 93 380 93 c 128,-1,19
 475 93 475 93 525 152 c 1,20,21
 560 152 560 152 590 162 c 1,22,-1
 617 135 l 1,23,24
 617 32 617 32 500 -12 c 0,25,26
 442 -33 442 -33 381.5 -33 c 128,-1,27
 321 -33 321 -33 282.5 -19 c 128,-1,28
 244 -5 244 -5 216.5 18 c 128,-1,29
 189 41 189 41 166.5 77 c 128,-1,30
 144 113 144 113 129.5 149.5 c 128,-1,31
 115 186 115 186 103.5 234.5 c 128,-1,32
 92 283 92 283 86 323.5 c 128,-1,33
 80 364 80 364 76 416 c 128,-1,34
 72 468 72 468 70 504 c 0,35,36
 65 611 65 611 64 654 c 1,37,-1
 -15 657 l 1,38,39
 -28 668 -28 668 -28 687 c 0,40,41
 -28 724 -28 724 44 724 c 2,42,-1
 60 724 l 1,43,-1
 56 808 l 1,44,-1
 -16 808 l 1,45,46
 -35 815 -35 815 -35 837.5 c 0,47,48
 -34 860 -34 860 -28 867 c 0,49,50
 -19 877 -19 877 10 877 c 2,51,-1
 55 877 l 1,52,-1
 53 1038 l 1,53,54
 53 1147 53 1147 67 1226 c 1,55,56
 61 1259 61 1259 61 1289 c 0,57,58
 61 1415 61 1415 155 1490 c 128,-1,59
 249 1565 249 1565 387 1565 c 0,60,61
 436 1565 436 1565 483 1537.5 c 128,-1,62
 530 1510 530 1510 530 1465 c 0,63,64
 530 1443 530 1443 513 1431 c 128,-1,65
 496 1419 496 1419 474.5 1419 c 128,-1,66
 453 1419 453 1419 418.5 1433.5 c 128,-1,67
 384 1448 384 1448 357.5 1448 c 128,-1,68
 331 1448 331 1448 299 1438.5 c 128,-1,69
 267 1429 267 1429 246 1414.5 c 128,-1,70
 225 1400 225 1400 210 1374.5 c 128,-1,71
 195 1349 195 1349 187.5 1326.5 c 128,-1,72
 180 1304 180 1304 176 1268 c 0,73,74
 170 1213 170 1213 170 1097 c 128,-1,75
 170 981 170 981 159 879 c 1,0,-1
EndSplineSet
EndChar

StartChar: trademark
Encoding: 8482 8482 376
Width: 1037
GlyphClass: 2
Flags: W
LayerCount: 2
Fore
SplineSet
324 1369 m 1,0,-1
 337 881 l 1,1,2
 337 786 337 786 332 719 c 1,3,-1
 340 691 l 1,4,5
 340 647 340 647 271 629 c 1,6,-1
 217 657 l 1,7,8
 228 691 228 691 228 739 c 2,9,-1
 228 787 l 1,10,-1
 218 1198 l 1,11,-1
 224 1400 l 1,12,13
 224 1447 224 1447 220 1484 c 1,14,15
 139 1475 139 1475 126 1475 c 0,16,17
 44 1475 44 1475 44 1520 c 2,18,-1
 44 1533 l 1,19,-1
 67 1574 l 1,20,21
 312 1595 312 1595 382 1595 c 1,22,-1
 447 1591 l 1,23,-1
 486 1552 l 1,24,-1
 486 1547 l 1,25,26
 488 1567 488 1567 514.5 1591.5 c 128,-1,27
 541 1616 541 1616 557.5 1616 c 128,-1,28
 574 1616 574 1616 586 1608 c 0,29,30
 602 1598 602 1598 622 1575 c 1,31,32
 618 1562 618 1562 618 1521.5 c 128,-1,33
 618 1481 618 1481 665 1324 c 128,-1,34
 712 1167 712 1167 717 1129 c 1,35,36
 786 1322 786 1322 834 1548 c 0,37,38
 845 1599 845 1599 852.5 1608 c 128,-1,39
 860 1617 860 1617 868 1625 c 0,40,41
 882 1639 882 1639 907 1639 c 128,-1,42
 932 1639 932 1639 949 1624 c 128,-1,43
 966 1609 966 1609 966 1587 c 1,44,-1
 944 1153 l 1,45,46
 944 1092 944 1092 951 969.5 c 128,-1,47
 958 847 958 847 958 786 c 1,48,-1
 959 793 l 1,49,-1
 959 785 l 2,50,51
 959 670 959 670 925 640 c 0,52,53
 908 624 908 624 883.5 624.5 c 128,-1,54
 859 625 859 625 843.5 638 c 128,-1,55
 828 651 828 651 828 673 c 1,56,-1
 840 908 l 1,57,58
 840 952 840 952 836.5 1032.5 c 128,-1,59
 833 1113 833 1113 832 1139 c 1,60,61
 828 1127 828 1127 819 1107 c 0,62,63
 801 1067 801 1067 801 1036 c 1,64,-1
 796 1027 l 1,65,66
 786 914 786 914 747 866 c 0,67,68
 730 845 730 845 708 845 c 0,69,70
 639 844 639 844 596 1122 c 0,71,72
 577 1244 577 1244 574 1254 c 1,73,74
 570 1168 570 1168 570 996 c 1,75,-1
 582 793 l 1,76,77
 582 621 582 621 505 621 c 0,78,79
 457 621 457 621 457 690 c 1,80,-1
 470 910 l 1,81,-1
 468 1189 l 1,82,83
 468 1389 468 1389 483 1529 c 1,84,85
 471 1485 471 1485 387 1485 c 1,86,-1
 329 1487 l 1,87,88
 324 1438 324 1438 324 1369 c 1,0,-1
EndSplineSet
EndChar

StartChar: foundryicon
Encoding: 65541 -1 377
Width: 1251
GlyphClass: 2
Flags: W
LayerCount: 2
Fore
SplineSet
975 106 m 0,0,1
 975 72 975 72 942 72 c 0,2,3
 916 72 916 72 798 224 c 0,4,5
 754 280 754 280 699 327.5 c 128,-1,6
 644 375 644 375 604 375 c 2,7,-1
 592 375 l 1,8,9
 509 305 509 305 397 221 c 0,10,11
 392 217 392 217 361 187 c 0,12,13
 287 115 287 115 259 115 c 128,-1,14
 231 115 231 115 231 141 c 0,15,16
 231 152 231 152 237.5 166 c 128,-1,17
 244 180 244 180 252 215.5 c 0,18,19
 260 252 260 252 304 372 c 2,20,-1
 356 520 l 1,21,-1
 318 568 l 1,22,23
 275 618 275 618 137 735 c 0,24,25
 127 744 127 744 94 762 c 0,26,27
 18 805 18 805 18 840 c 0,28,29
 18 870 18 870 57 870 c 0,30,31
 60 870 60 870 98 864 c 0,32,33
 213 848 213 848 279 848 c 1,34,-1
 469 840 l 1,35,-1
 563 1075 l 1,36,37
 573 1090 573 1090 588.5 1134.5 c 128,-1,38
 604 1179 604 1179 622 1207 c 128,-1,39
 640 1235 640 1235 660 1235 c 128,-1,40
 680 1235 680 1235 697.5 1218 c 128,-1,41
 715 1201 715 1201 715 1188 c 0,42,43
 715 1119 715 1119 768 895 c 1,44,-1
 778 848 l 1,45,46
 865 842 865 842 981 842 c 1,47,-1
 1171 848 l 1,48,49
 1225 848 1225 848 1225 807 c 0,50,51
 1225 796 1225 796 1179.5 768 c 128,-1,52
 1134 740 1134 740 1120.5 728 c 0,53,54
 1106 716 1106 716 1056 664 c 0,55,56
 955 560 955 560 881 522 c 1,57,-1
 881 510 l 2,58,59
 881 470 881 470 900.5 410.5 c 128,-1,60
 920 351 920 351 922 344 c 1,61,62
 928 343 928 343 951.5 235.5 c 128,-1,63
 975 128 975 128 975 106 c 0,0,1
EndSplineSet
EndChar

StartChar: commaaccent
Encoding: 65542 -1 378
Width: 462
GlyphClass: 2
Flags: W
LayerCount: 2
Fore
SplineSet
151 -550 m 0,0,1
 117 -550 117 -550 117 -527 c 1,2,-1
 124 -490 l 1,3,4
 168 -290 168 -290 238 -210 c 0,5,6
 270 -174 270 -174 302 -174 c 1,7,8
 306 -178 306 -178 322 -182 c 0,9,10
 358 -193 358 -193 358 -215 c 0,11,12
 358 -262 358 -262 313 -344.5 c 128,-1,13
 268 -427 268 -427 218 -488.5 c 128,-1,14
 168 -550 168 -550 151 -550 c 0,0,1
EndSplineSet
EndChar

StartChar: Eng
Encoding: 330 330 383
Width: 737
GlyphClass: 2
Flags: W
LayerCount: 2
Fore
SplineSet
540 225 m 1,0,-1
 548 939 l 1,1,-1
 548 1545 l 1,2,3
 560 1596 560 1596 615 1596 c 128,-1,4
 670 1596 670 1596 670 1516 c 2,5,-1
 670 1504 l 1,6,7
 668 1499 668 1499 660 1486 c 0,8,9
 644 1459 644 1459 645 1444 c 2,10,-1
 645 42 l 2,11,12
 645 -162 645 -162 618 -216 c 0,13,14
 593 -266 593 -266 536 -308 c 0,15,16
 512 -326 512 -326 434 -388 c 1,17,18
 402 -388 402 -388 381 -372 c 128,-1,19
 360 -356 360 -356 360 -327 c 128,-1,20
 360 -298 360 -298 378.5 -277.5 c 128,-1,21
 397 -257 397 -257 424 -243.5 c 128,-1,22
 451 -230 451 -230 478 -214 c 0,23,24
 542 -177 542 -177 542 -113 c 2,25,-1
 543 32 l 1,26,27
 423 293 423 293 171 1298 c 1,28,-1
 171 626 l 2,29,30
 171 528 171 528 185.5 334 c 128,-1,31
 200 140 200 140 200 42 c 0,32,33
 200 23 200 23 177 10.5 c 128,-1,34
 154 -2 154 -2 118.5 -2 c 128,-1,35
 83 -2 83 -2 83 30 c 1,36,-1
 93 177 l 1,37,38
 93 283 93 283 80 521 c 128,-1,39
 67 759 67 759 67 812 c 2,40,-1
 67 1073 l 1,41,-1
 81 1449 l 1,42,-1
 81 1462 l 2,43,44
 81 1564 81 1564 126 1564 c 0,45,46
 167 1564 167 1564 236 1374 c 0,47,48
 362 1029 362 1029 538 235 c 1,49,-1
 540 225 l 1,0,-1
EndSplineSet
EndChar

StartChar: eng
Encoding: 331 331 385
Width: 827
GlyphClass: 2
Flags: W
LayerCount: 2
Fore
SplineSet
64 829 m 1,0,-1
 76 1211 l 1,1,2
 76 1306 76 1306 151 1362 c 1,3,-1
 151 1349 l 1,4,5
 159 1354 159 1354 166 1354 c 0,6,7
 214 1354 214 1354 286 1188.5 c 128,-1,8
 358 1023 358 1023 416 825 c 128,-1,9
 474 627 474 627 531.5 425.5 c 128,-1,10
 589 224 589 224 603 189 c 1,11,12
 644 618 644 618 644 1228 c 1,13,-1
 641 1283 l 1,14,15
 641 1344 641 1344 692 1344 c 0,16,17
 721 1344 721 1344 735.5 1320 c 128,-1,18
 750 1296 750 1296 750 1264 c 2,19,-1
 750 1001 l 2,20,21
 750 440 750 440 731.5 242.5 c 128,-1,22
 713 45 713 45 699 -52 c 128,-1,23
 685 -149 685 -149 662 -234.5 c 0,24,25
 638 -320 638 -320 610 -381 c 0,26,27
 549 -512 549 -512 455 -512 c 0,28,29
 423 -512 423 -512 402 -496 c 128,-1,30
 381 -480 381 -480 381 -451 c 128,-1,31
 381 -422 381 -422 397.5 -410.5 c 128,-1,32
 414 -399 414 -399 438.5 -393.5 c 128,-1,33
 463 -388 463 -388 488 -377.5 c 128,-1,34
 513 -367 513 -367 534.5 -332 c 128,-1,35
 556 -297 556 -297 562 -246.5 c 128,-1,36
 568 -196 568 -196 571.5 -117 c 128,-1,37
 575 -38 575 -38 579 -1 c 1,38,39
 549 68 549 68 376 576 c 128,-1,40
 203 1084 203 1084 176 1145 c 1,41,-1
 176 114 l 1,42,43
 178 110 178 110 184 100 c 0,44,45
 197 78 197 78 197 59 c 128,-1,46
 197 40 197 40 178.5 21 c 128,-1,47
 160 2 160 2 135 2 c 0,48,49
 68 2 68 2 68 127 c 2,50,-1
 64 829 l 1,0,-1
EndSplineSet
EndChar

StartChar: minus
Encoding: 8722 8722 386
Width: 684
GlyphClass: 2
Flags: W
LayerCount: 2
Fore
SplineSet
571 600 m 1,0,-1
 139 590 l 1,1,2
 57 590 57 590 57 655 c 0,3,4
 57 676 57 676 69.5 688.5 c 128,-1,5
 82 701 82 701 103 701 c 2,6,-1
 404 701 l 1,7,-1
 530 708 l 1,8,9
 629 708 629 708 629 647 c 0,10,11
 629 600 629 600 571 600 c 1,0,-1
EndSplineSet
EndChar

